<?xml version="1.0" encoding="utf-8" standalone="no"?>
<!DOCTYPE svg PUBLIC "-//W3C//DTD SVG 1.1//EN"
  "http://www.w3.org/Graphics/SVG/1.1/DTD/svg11.dtd">
<svg xmlns:xlink="http://www.w3.org/1999/xlink" width="690.539234pt" height="578.877619pt" viewBox="0 0 690.539234 578.877619" xmlns="http://www.w3.org/2000/svg" version="1.1">
 <metadata>
  <rdf:RDF xmlns:dc="http://purl.org/dc/elements/1.1/" xmlns:cc="http://creativecommons.org/ns#" xmlns:rdf="http://www.w3.org/1999/02/22-rdf-syntax-ns#">
   <cc:Work>
    <dc:type rdf:resource="http://purl.org/dc/dcmitype/StillImage"/>
    <dc:date>2025-11-14T20:45:41.596243</dc:date>
    <dc:format>image/svg+xml</dc:format>
    <dc:creator>
     <cc:Agent>
      <dc:title>Matplotlib v3.10.7, https://matplotlib.org/</dc:title>
     </cc:Agent>
    </dc:creator>
   </cc:Work>
  </rdf:RDF>
 </metadata>
 <defs>
  <style type="text/css">*{stroke-linejoin: round; stroke-linecap: butt}</style>
 </defs>
 <g id="figure_1">
  <g id="patch_1">
   <path d="M 0 578.877619 
L 690.539234 578.877619 
L 690.539234 0 
L 0 0 
z
" style="fill: #ffffff"/>
  </g>
  <g id="axes_1">
   <g id="patch_2">
    <path d="M 549.192734 313.0489 
C 549.192734 282.375784 543.150799 252.000925 531.412706 223.662661 
C 519.674612 195.324396 502.468637 169.573834 480.779469 147.884666 
C 459.0903 126.195497 433.339738 108.989522 405.001474 97.251428 
C 376.663209 85.513335 346.288351 79.4714 315.615234 79.4714 
C 284.942118 79.4714 254.567259 85.513335 226.228995 97.251428 
C 197.890731 108.989522 172.140169 126.195497 150.451 147.884666 
C 128.761832 169.573834 111.555856 195.324396 99.817763 223.662661 
C 88.079669 252.000925 82.037734 282.375784 82.037734 313.0489 
C 82.037734 343.722016 88.079669 374.096875 99.817763 402.435139 
C 111.555856 430.773404 128.761832 456.523966 150.451 478.213134 
C 172.140169 499.902303 197.890731 517.108278 226.228995 528.846372 
C 254.567259 540.584465 284.942118 546.6264 315.615234 546.6264 
C 346.288351 546.6264 376.663209 540.584465 405.001474 528.846372 
C 433.339738 517.108278 459.0903 499.902303 480.779469 478.213134 
C 502.468637 456.523966 519.674612 430.773404 531.412706 402.435139 
C 543.150799 374.096875 549.192734 343.722016 549.192734 313.0489 
M 315.615234 313.0489 
C 315.615234 313.0489 315.615234 313.0489 315.615234 313.0489 
C 315.615234 313.0489 315.615234 313.0489 315.615234 313.0489 
C 315.615234 313.0489 315.615234 313.0489 315.615234 313.0489 
C 315.615234 313.0489 315.615234 313.0489 315.615234 313.0489 
C 315.615234 313.0489 315.615234 313.0489 315.615234 313.0489 
C 315.615234 313.0489 315.615234 313.0489 315.615234 313.0489 
C 315.615234 313.0489 315.615234 313.0489 315.615234 313.0489 
C 315.615234 313.0489 315.615234 313.0489 315.615234 313.0489 
C 315.615234 313.0489 315.615234 313.0489 315.615234 313.0489 
C 315.615234 313.0489 315.615234 313.0489 315.615234 313.0489 
C 315.615234 313.0489 315.615234 313.0489 315.615234 313.0489 
C 315.615234 313.0489 315.615234 313.0489 315.615234 313.0489 
C 315.615234 313.0489 315.615234 313.0489 315.615234 313.0489 
C 315.615234 313.0489 315.615234 313.0489 315.615234 313.0489 
C 315.615234 313.0489 315.615234 313.0489 315.615234 313.0489 
C 315.615234 313.0489 315.615234 313.0489 315.615234 313.0489 
z
" style="fill: #eaeaf2"/>
   </g>
   <g id="matplotlib.axis_1">
    <g id="xtick_1">
     <g id="line2d_1">
      <path d="M 315.615234 313.0489 
L 549.192734 313.0489 
" clip-path="url(#p4a381d42e2)" style="fill: none; stroke: #ffffff; stroke-opacity: 0.3; stroke-linecap: round"/>
     </g>
     <g id="text_1">
      <!-- Data Orchestration -->
      <g style="fill: #262626" transform="translate(517.036562 309.969244) scale(0.11 -0.11)">
       <defs>
        <path id="LiberationSans-44" d="M 4316 2247 
Q 4316 1697 4150 1276 
Q 3984 856 3696 573 
Q 3409 291 3017 145 
Q 2625 0 2172 0 
L 525 0 
L 525 4403 
L 1981 4403 
Q 2491 4403 2920 4276 
Q 3350 4150 3659 3886 
Q 3969 3622 4142 3215 
Q 4316 2809 4316 2247 
z
M 3716 2247 
Q 3716 2694 3587 3011 
Q 3459 3328 3228 3531 
Q 2997 3734 2675 3829 
Q 2353 3925 1969 3925 
L 1122 3925 
L 1122 478 
L 2103 478 
Q 2450 478 2745 590 
Q 3041 703 3256 925 
Q 3472 1147 3594 1478 
Q 3716 1809 3716 2247 
z
" transform="scale(0.015625)"/>
        <path id="LiberationSans-61" d="M 1294 -63 
Q 784 -63 528 206 
Q 272 475 272 944 
Q 272 1278 398 1492 
Q 525 1706 729 1828 
Q 934 1950 1196 1997 
Q 1459 2044 1731 2050 
L 2491 2063 
L 2491 2247 
Q 2491 2456 2447 2603 
Q 2403 2750 2312 2840 
Q 2222 2931 2086 2973 
Q 1950 3016 1766 3016 
Q 1603 3016 1472 2992 
Q 1341 2969 1244 2908 
Q 1147 2847 1087 2742 
Q 1028 2638 1009 2478 
L 422 2531 
Q 453 2731 540 2898 
Q 628 3066 789 3187 
Q 950 3309 1192 3376 
Q 1434 3444 1778 3444 
Q 2416 3444 2737 3151 
Q 3059 2859 3059 2306 
L 3059 850 
Q 3059 600 3125 473 
Q 3191 347 3375 347 
Q 3422 347 3469 353 
Q 3516 359 3559 369 
L 3559 19 
Q 3453 -6 3348 -18 
Q 3244 -31 3125 -31 
Q 2966 -31 2852 11 
Q 2738 53 2666 139 
Q 2594 225 2556 351 
Q 2519 478 2509 647 
L 2491 647 
Q 2400 484 2292 353 
Q 2184 222 2040 130 
Q 1897 38 1714 -12 
Q 1531 -63 1294 -63 
z
M 1422 359 
Q 1691 359 1892 457 
Q 2094 556 2226 709 
Q 2359 863 2425 1044 
Q 2491 1225 2491 1391 
L 2491 1669 
L 1875 1656 
Q 1669 1653 1483 1626 
Q 1297 1600 1156 1522 
Q 1016 1444 933 1303 
Q 850 1163 850 934 
Q 850 659 998 509 
Q 1147 359 1422 359 
z
" transform="scale(0.015625)"/>
        <path id="LiberationSans-74" d="M 1731 25 
Q 1603 -9 1470 -29 
Q 1338 -50 1163 -50 
Q 488 -50 488 716 
L 488 2972 
L 97 2972 
L 97 3381 
L 509 3381 
L 675 4138 
L 1050 4138 
L 1050 3381 
L 1675 3381 
L 1675 2972 
L 1050 2972 
L 1050 838 
Q 1050 594 1129 495 
Q 1209 397 1406 397 
Q 1488 397 1564 409 
Q 1641 422 1731 441 
L 1731 25 
z
" transform="scale(0.015625)"/>
        <path id="LiberationSans-20" transform="scale(0.015625)"/>
        <path id="LiberationSans-4f" d="M 4672 2222 
Q 4672 1706 4523 1284 
Q 4375 863 4094 563 
Q 3813 263 3406 100 
Q 3000 -63 2484 -63 
Q 1941 -63 1531 107 
Q 1122 278 850 583 
Q 578 888 440 1306 
Q 303 1725 303 2222 
Q 303 2738 447 3153 
Q 591 3569 869 3861 
Q 1147 4153 1555 4311 
Q 1963 4469 2491 4469 
Q 3016 4469 3423 4309 
Q 3831 4150 4107 3856 
Q 4384 3563 4528 3147 
Q 4672 2731 4672 2222 
z
M 4063 2222 
Q 4063 2619 3961 2944 
Q 3859 3269 3661 3500 
Q 3463 3731 3169 3856 
Q 2875 3981 2491 3981 
Q 2097 3981 1800 3856 
Q 1503 3731 1304 3500 
Q 1106 3269 1007 2944 
Q 909 2619 909 2222 
Q 909 1825 1011 1495 
Q 1113 1166 1311 927 
Q 1509 688 1804 555 
Q 2100 422 2484 422 
Q 2897 422 3195 556 
Q 3494 691 3686 930 
Q 3878 1169 3970 1500 
Q 4063 1831 4063 2222 
z
" transform="scale(0.015625)"/>
        <path id="LiberationSans-72" d="M 444 0 
L 444 2594 
Q 444 2700 442 2811 
Q 441 2922 437 3025 
Q 434 3128 431 3218 
Q 428 3309 425 3381 
L 956 3381 
Q 959 3309 964 3217 
Q 969 3125 973 3028 
Q 978 2931 979 2842 
Q 981 2753 981 2691 
L 994 2691 
Q 1053 2884 1120 3026 
Q 1188 3169 1278 3261 
Q 1369 3353 1494 3398 
Q 1619 3444 1797 3444 
Q 1866 3444 1928 3433 
Q 1991 3422 2025 3413 
L 2025 2897 
Q 1969 2913 1894 2920 
Q 1819 2928 1725 2928 
Q 1531 2928 1395 2840 
Q 1259 2753 1173 2598 
Q 1088 2444 1047 2230 
Q 1006 2016 1006 1763 
L 1006 0 
L 444 0 
z
" transform="scale(0.015625)"/>
        <path id="LiberationSans-63" d="M 859 1706 
Q 859 1416 901 1172 
Q 944 928 1044 751 
Q 1144 575 1308 478 
Q 1472 381 1713 381 
Q 2013 381 2214 543 
Q 2416 706 2463 1044 
L 3031 1006 
Q 3003 797 2909 603 
Q 2816 409 2655 262 
Q 2494 116 2262 26 
Q 2031 -63 1728 -63 
Q 1331 -63 1053 71 
Q 775 206 601 442 
Q 428 678 350 998 
Q 272 1319 272 1694 
Q 272 2034 328 2295 
Q 384 2556 486 2751 
Q 588 2947 725 3080 
Q 863 3213 1023 3292 
Q 1184 3372 1362 3408 
Q 1541 3444 1722 3444 
Q 2006 3444 2228 3366 
Q 2450 3288 2611 3152 
Q 2772 3016 2872 2831 
Q 2972 2647 3013 2434 
L 2434 2391 
Q 2391 2672 2212 2837 
Q 2034 3003 1706 3003 
Q 1466 3003 1305 2923 
Q 1144 2844 1044 2683 
Q 944 2522 901 2278 
Q 859 2034 859 1706 
z
" transform="scale(0.015625)"/>
        <path id="LiberationSans-68" d="M 991 2803 
Q 1084 2975 1193 3095 
Q 1303 3216 1434 3294 
Q 1566 3372 1722 3408 
Q 1878 3444 2072 3444 
Q 2397 3444 2605 3356 
Q 2813 3269 2933 3111 
Q 3053 2953 3098 2734 
Q 3144 2516 3144 2253 
L 3144 0 
L 2578 0 
L 2578 2144 
Q 2578 2359 2551 2521 
Q 2525 2684 2450 2792 
Q 2375 2900 2237 2954 
Q 2100 3009 1881 3009 
Q 1681 3009 1520 2937 
Q 1359 2866 1245 2734 
Q 1131 2603 1068 2415 
Q 1006 2228 1006 1994 
L 1006 0 
L 444 0 
L 444 4638 
L 1006 4638 
L 1006 3431 
Q 1006 3328 1003 3225 
Q 1000 3122 995 3034 
Q 991 2947 987 2886 
Q 984 2825 981 2803 
L 991 2803 
z
" transform="scale(0.015625)"/>
        <path id="LiberationSans-65" d="M 863 1572 
Q 863 1306 917 1082 
Q 972 859 1086 698 
Q 1200 538 1378 448 
Q 1556 359 1806 359 
Q 2172 359 2392 506 
Q 2613 653 2691 878 
L 3184 738 
Q 3131 597 3036 455 
Q 2941 313 2781 198 
Q 2622 84 2383 10 
Q 2144 -63 1806 -63 
Q 1056 -63 664 384 
Q 272 831 272 1713 
Q 272 2188 390 2517 
Q 509 2847 715 3053 
Q 922 3259 1197 3351 
Q 1472 3444 1784 3444 
Q 2209 3444 2495 3306 
Q 2781 3169 2954 2926 
Q 3128 2684 3201 2356 
Q 3275 2028 3275 1647 
L 3275 1572 
L 863 1572 
z
M 2694 2003 
Q 2647 2538 2422 2783 
Q 2197 3028 1775 3028 
Q 1634 3028 1479 2983 
Q 1325 2938 1194 2822 
Q 1063 2706 972 2507 
Q 881 2309 869 2003 
L 2694 2003 
z
" transform="scale(0.015625)"/>
        <path id="LiberationSans-73" d="M 2969 934 
Q 2969 697 2876 511 
Q 2784 325 2609 198 
Q 2434 72 2179 4 
Q 1925 -63 1597 -63 
Q 1303 -63 1067 -17 
Q 831 28 653 128 
Q 475 228 354 392 
Q 234 556 178 794 
L 675 891 
Q 747 619 972 492 
Q 1197 366 1597 366 
Q 1778 366 1929 391 
Q 2081 416 2190 477 
Q 2300 538 2361 639 
Q 2422 741 2422 891 
Q 2422 1044 2350 1142 
Q 2278 1241 2150 1306 
Q 2022 1372 1839 1420 
Q 1656 1469 1438 1528 
Q 1234 1581 1034 1647 
Q 834 1713 673 1820 
Q 513 1928 413 2087 
Q 313 2247 313 2488 
Q 313 2950 642 3192 
Q 972 3434 1603 3434 
Q 2163 3434 2492 3237 
Q 2822 3041 2909 2606 
L 2403 2544 
Q 2375 2675 2300 2764 
Q 2225 2853 2119 2908 
Q 2013 2963 1880 2986 
Q 1747 3009 1603 3009 
Q 1222 3009 1040 2893 
Q 859 2778 859 2544 
Q 859 2406 926 2317 
Q 994 2228 1114 2167 
Q 1234 2106 1403 2061 
Q 1572 2016 1775 1966 
Q 1909 1931 2050 1892 
Q 2191 1853 2323 1798 
Q 2456 1744 2573 1670 
Q 2691 1597 2778 1494 
Q 2866 1391 2917 1253 
Q 2969 1116 2969 934 
z
" transform="scale(0.015625)"/>
        <path id="LiberationSans-69" d="M 428 4100 
L 428 4638 
L 991 4638 
L 991 4100 
L 428 4100 
z
M 428 0 
L 428 3381 
L 991 3381 
L 991 0 
L 428 0 
z
" transform="scale(0.015625)"/>
        <path id="LiberationSans-6f" d="M 3291 1694 
Q 3291 806 2900 371 
Q 2509 -63 1766 -63 
Q 1413 -63 1134 43 
Q 856 150 664 369 
Q 472 588 370 917 
Q 269 1247 269 1694 
Q 269 3444 1784 3444 
Q 2178 3444 2464 3334 
Q 2750 3225 2933 3006 
Q 3116 2788 3203 2459 
Q 3291 2131 3291 1694 
z
M 2700 1694 
Q 2700 2088 2639 2344 
Q 2578 2600 2461 2753 
Q 2344 2906 2175 2967 
Q 2006 3028 1794 3028 
Q 1578 3028 1404 2964 
Q 1231 2900 1109 2745 
Q 988 2591 923 2334 
Q 859 2078 859 1694 
Q 859 1300 928 1042 
Q 997 784 1117 631 
Q 1238 478 1402 415 
Q 1566 353 1759 353 
Q 1975 353 2150 414 
Q 2325 475 2447 628 
Q 2569 781 2634 1040 
Q 2700 1300 2700 1694 
z
" transform="scale(0.015625)"/>
        <path id="LiberationSans-6e" d="M 2578 0 
L 2578 2144 
Q 2578 2391 2542 2556 
Q 2506 2722 2425 2823 
Q 2344 2925 2211 2967 
Q 2078 3009 1881 3009 
Q 1681 3009 1520 2939 
Q 1359 2869 1245 2736 
Q 1131 2603 1068 2408 
Q 1006 2213 1006 1959 
L 1006 0 
L 444 0 
L 444 2659 
Q 444 2766 442 2883 
Q 441 3000 437 3104 
Q 434 3209 431 3284 
Q 428 3359 425 3381 
L 956 3381 
Q 959 3366 962 3297 
Q 966 3228 970 3139 
Q 975 3050 978 2958 
Q 981 2866 981 2803 
L 991 2803 
Q 1072 2950 1169 3069 
Q 1266 3188 1394 3270 
Q 1522 3353 1687 3398 
Q 1853 3444 2072 3444 
Q 2353 3444 2556 3375 
Q 2759 3306 2890 3162 
Q 3022 3019 3083 2792 
Q 3144 2566 3144 2253 
L 3144 0 
L 2578 0 
z
" transform="scale(0.015625)"/>
       </defs>
       <use xlink:href="#LiberationSans-44"/>
       <use xlink:href="#LiberationSans-61" transform="translate(72.216797 0)"/>
       <use xlink:href="#LiberationSans-74" transform="translate(127.832031 0)"/>
       <use xlink:href="#LiberationSans-61" transform="translate(155.615234 0)"/>
       <use xlink:href="#LiberationSans-20" transform="translate(211.230469 0)"/>
       <use xlink:href="#LiberationSans-4f" transform="translate(239.013672 0)"/>
       <use xlink:href="#LiberationSans-72" transform="translate(316.796875 0)"/>
       <use xlink:href="#LiberationSans-63" transform="translate(350.097656 0)"/>
       <use xlink:href="#LiberationSans-68" transform="translate(400.097656 0)"/>
       <use xlink:href="#LiberationSans-65" transform="translate(455.712891 0)"/>
       <use xlink:href="#LiberationSans-73" transform="translate(511.328125 0)"/>
       <use xlink:href="#LiberationSans-74" transform="translate(561.328125 0)"/>
       <use xlink:href="#LiberationSans-72" transform="translate(589.111328 0)"/>
       <use xlink:href="#LiberationSans-61" transform="translate(622.412109 0)"/>
       <use xlink:href="#LiberationSans-74" transform="translate(678.027344 0)"/>
       <use xlink:href="#LiberationSans-69" transform="translate(705.810547 0)"/>
       <use xlink:href="#LiberationSans-6f" transform="translate(728.027344 0)"/>
       <use xlink:href="#LiberationSans-6e" transform="translate(783.642578 0)"/>
      </g>
      <!-- &amp; Platform Observability -->
      <g style="fill: #262626" transform="translate(504.204375 321.817619) scale(0.11 -0.11)">
       <defs>
        <path id="LiberationSans-26" d="M 3728 -38 
Q 3428 -38 3203 65 
Q 2978 169 2797 359 
Q 2703 278 2584 203 
Q 2466 128 2320 68 
Q 2175 9 2004 -27 
Q 1834 -63 1634 -63 
Q 1269 -63 1001 31 
Q 734 125 562 289 
Q 391 453 308 676 
Q 225 900 225 1159 
Q 225 1406 304 1607 
Q 384 1809 526 1973 
Q 669 2138 866 2267 
Q 1063 2397 1297 2500 
Q 1241 2606 1195 2726 
Q 1150 2847 1115 2969 
Q 1081 3091 1062 3212 
Q 1044 3334 1044 3444 
Q 1044 3650 1106 3829 
Q 1169 4009 1301 4142 
Q 1434 4275 1642 4351 
Q 1850 4428 2141 4428 
Q 2369 4428 2561 4368 
Q 2753 4309 2893 4196 
Q 3034 4084 3112 3918 
Q 3191 3753 3191 3541 
Q 3191 3306 3087 3123 
Q 2984 2941 2809 2797 
Q 2634 2653 2403 2536 
Q 2172 2419 1913 2316 
Q 2106 1959 2334 1645 
Q 2563 1331 2828 1028 
Q 3019 1309 3145 1620 
Q 3272 1931 3363 2309 
L 3816 2175 
Q 3706 1741 3539 1386 
Q 3372 1031 3153 709 
Q 3319 541 3484 472 
Q 3650 403 3803 403 
Q 3903 403 3995 414 
Q 4088 425 4169 453 
L 4169 31 
Q 4081 -3 3964 -20 
Q 3847 -38 3728 -38 
z
M 2716 3541 
Q 2716 3656 2673 3750 
Q 2631 3844 2556 3911 
Q 2481 3978 2373 4014 
Q 2266 4050 2134 4050 
Q 1834 4050 1678 3889 
Q 1522 3728 1522 3444 
Q 1522 3259 1580 3057 
Q 1638 2856 1725 2681 
Q 1928 2763 2109 2848 
Q 2291 2934 2425 3036 
Q 2559 3138 2637 3261 
Q 2716 3384 2716 3541 
z
M 2484 678 
Q 2206 1006 1950 1365 
Q 1694 1725 1488 2106 
Q 1134 1956 942 1725 
Q 750 1494 750 1166 
Q 750 994 804 845 
Q 859 697 971 586 
Q 1084 475 1254 411 
Q 1425 347 1653 347 
Q 1791 347 1914 376 
Q 2038 406 2144 453 
Q 2250 500 2336 559 
Q 2422 619 2484 678 
z
" transform="scale(0.015625)"/>
        <path id="LiberationSans-50" d="M 3931 3078 
Q 3931 2791 3836 2542 
Q 3741 2294 3552 2111 
Q 3363 1928 3078 1822 
Q 2794 1716 2416 1716 
L 1122 1716 
L 1122 0 
L 525 0 
L 525 4403 
L 2378 4403 
Q 2769 4403 3059 4308 
Q 3350 4213 3544 4039 
Q 3738 3866 3834 3620 
Q 3931 3375 3931 3078 
z
M 3331 3072 
Q 3331 3491 3075 3708 
Q 2819 3925 2306 3925 
L 1122 3925 
L 1122 2188 
L 2331 2188 
Q 2847 2188 3089 2416 
Q 3331 2644 3331 3072 
z
" transform="scale(0.015625)"/>
        <path id="LiberationSans-6c" d="M 431 0 
L 431 4638 
L 994 4638 
L 994 0 
L 431 0 
z
" transform="scale(0.015625)"/>
        <path id="LiberationSans-66" d="M 1128 2972 
L 1128 0 
L 566 0 
L 566 2972 
L 91 2972 
L 91 3381 
L 566 3381 
L 566 3763 
Q 566 3947 600 4105 
Q 634 4263 726 4380 
Q 819 4497 978 4564 
Q 1138 4631 1391 4631 
Q 1491 4631 1598 4622 
Q 1706 4613 1788 4594 
L 1788 4166 
Q 1734 4175 1664 4183 
Q 1594 4191 1538 4191 
Q 1413 4191 1333 4156 
Q 1253 4122 1208 4058 
Q 1163 3994 1145 3900 
Q 1128 3806 1128 3684 
L 1128 3381 
L 1788 3381 
L 1788 2972 
L 1128 2972 
z
" transform="scale(0.015625)"/>
        <path id="LiberationSans-6d" d="M 2400 0 
L 2400 2144 
Q 2400 2391 2369 2556 
Q 2338 2722 2264 2823 
Q 2191 2925 2072 2967 
Q 1953 3009 1781 3009 
Q 1603 3009 1459 2939 
Q 1316 2869 1214 2736 
Q 1113 2603 1058 2408 
Q 1003 2213 1003 1959 
L 1003 0 
L 444 0 
L 444 2659 
Q 444 2766 442 2883 
Q 441 3000 437 3104 
Q 434 3209 431 3284 
Q 428 3359 425 3381 
L 956 3381 
Q 959 3366 962 3297 
Q 966 3228 970 3139 
Q 975 3050 978 2958 
Q 981 2866 981 2803 
L 991 2803 
Q 1066 2950 1153 3069 
Q 1241 3188 1358 3270 
Q 1475 3353 1626 3398 
Q 1778 3444 1978 3444 
Q 2363 3444 2586 3291 
Q 2809 3138 2897 2803 
L 2906 2803 
Q 2981 2950 3075 3069 
Q 3169 3188 3294 3270 
Q 3419 3353 3575 3398 
Q 3731 3444 3931 3444 
Q 4188 3444 4373 3375 
Q 4559 3306 4678 3162 
Q 4797 3019 4853 2792 
Q 4909 2566 4909 2253 
L 4909 0 
L 4353 0 
L 4353 2144 
Q 4353 2391 4322 2556 
Q 4291 2722 4217 2823 
Q 4144 2925 4025 2967 
Q 3906 3009 3734 3009 
Q 3556 3009 3412 2942 
Q 3269 2875 3167 2744 
Q 3066 2613 3011 2416 
Q 2956 2219 2956 1959 
L 2956 0 
L 2400 0 
z
" transform="scale(0.015625)"/>
        <path id="LiberationSans-62" d="M 3291 1706 
Q 3291 -63 2047 -63 
Q 1663 -63 1408 76 
Q 1153 216 994 525 
L 988 525 
Q 988 444 983 356 
Q 978 269 973 194 
Q 969 119 964 66 
Q 959 13 956 0 
L 413 0 
Q 416 28 419 95 
Q 422 163 425 256 
Q 428 350 429 462 
Q 431 575 431 697 
L 431 4638 
L 994 4638 
L 994 3316 
Q 994 3222 992 3136 
Q 991 3050 988 2984 
Q 984 2906 981 2838 
L 994 2838 
Q 1150 3163 1408 3303 
Q 1666 3444 2047 3444 
Q 2688 3444 2989 3012 
Q 3291 2581 3291 1706 
z
M 2700 1688 
Q 2700 2038 2656 2288 
Q 2613 2538 2516 2698 
Q 2419 2859 2269 2934 
Q 2119 3009 1903 3009 
Q 1681 3009 1511 2937 
Q 1341 2866 1227 2706 
Q 1113 2547 1053 2287 
Q 994 2028 994 1653 
Q 994 1291 1053 1044 
Q 1113 797 1227 642 
Q 1341 488 1509 420 
Q 1678 353 1897 353 
Q 2103 353 2253 425 
Q 2403 497 2503 656 
Q 2603 816 2651 1070 
Q 2700 1325 2700 1688 
z
" transform="scale(0.015625)"/>
        <path id="LiberationSans-76" d="M 1916 0 
L 1250 0 
L 22 3381 
L 622 3381 
L 1366 1181 
Q 1388 1113 1417 1014 
Q 1447 916 1478 809 
Q 1509 703 1536 604 
Q 1563 506 1581 441 
Q 1600 506 1629 604 
Q 1659 703 1690 806 
Q 1722 909 1755 1007 
Q 1788 1106 1813 1175 
L 2581 3381 
L 3178 3381 
L 1916 0 
z
" transform="scale(0.015625)"/>
        <path id="LiberationSans-79" d="M 1888 0 
Q 1769 -306 1645 -551 
Q 1522 -797 1369 -970 
Q 1216 -1144 1028 -1236 
Q 841 -1328 597 -1328 
Q 491 -1328 400 -1322 
Q 309 -1316 209 -1294 
L 209 -872 
Q 269 -881 344 -886 
Q 419 -891 472 -891 
Q 719 -891 931 -706 
Q 1144 -522 1303 -119 
L 1356 16 
L 16 3381 
L 616 3381 
L 1328 1513 
Q 1359 1428 1407 1287 
Q 1456 1147 1504 1006 
Q 1553 866 1590 753 
Q 1628 641 1634 613 
Q 1644 647 1680 748 
Q 1716 850 1761 975 
Q 1806 1100 1853 1228 
Q 1900 1356 1931 1450 
L 2594 3381 
L 3188 3381 
L 1888 0 
z
" transform="scale(0.015625)"/>
       </defs>
       <use xlink:href="#LiberationSans-26"/>
       <use xlink:href="#LiberationSans-20" transform="translate(66.699219 0)"/>
       <use xlink:href="#LiberationSans-50" transform="translate(94.482422 0)"/>
       <use xlink:href="#LiberationSans-6c" transform="translate(161.181641 0)"/>
       <use xlink:href="#LiberationSans-61" transform="translate(183.398438 0)"/>
       <use xlink:href="#LiberationSans-74" transform="translate(239.013672 0)"/>
       <use xlink:href="#LiberationSans-66" transform="translate(266.796875 0)"/>
       <use xlink:href="#LiberationSans-6f" transform="translate(294.580078 0)"/>
       <use xlink:href="#LiberationSans-72" transform="translate(350.195312 0)"/>
       <use xlink:href="#LiberationSans-6d" transform="translate(383.496094 0)"/>
       <use xlink:href="#LiberationSans-20" transform="translate(466.796875 0)"/>
       <use xlink:href="#LiberationSans-4f" transform="translate(494.580078 0)"/>
       <use xlink:href="#LiberationSans-62" transform="translate(572.363281 0)"/>
       <use xlink:href="#LiberationSans-73" transform="translate(627.978516 0)"/>
       <use xlink:href="#LiberationSans-65" transform="translate(677.978516 0)"/>
       <use xlink:href="#LiberationSans-72" transform="translate(733.59375 0)"/>
       <use xlink:href="#LiberationSans-76" transform="translate(766.894531 0)"/>
       <use xlink:href="#LiberationSans-61" transform="translate(816.894531 0)"/>
       <use xlink:href="#LiberationSans-62" transform="translate(872.509766 0)"/>
       <use xlink:href="#LiberationSans-69" transform="translate(928.125 0)"/>
       <use xlink:href="#LiberationSans-6c" transform="translate(950.341797 0)"/>
       <use xlink:href="#LiberationSans-69" transform="translate(972.558594 0)"/>
       <use xlink:href="#LiberationSans-74" transform="translate(994.775391 0)"/>
       <use xlink:href="#LiberationSans-79" transform="translate(1022.558594 0)"/>
      </g>
     </g>
    </g>
    <g id="xtick_2">
     <g id="line2d_2">
      <path d="M 315.615234 313.0489 
L 315.615234 79.4714 
" clip-path="url(#p4a381d42e2)" style="fill: none; stroke: #ffffff; stroke-opacity: 0.3; stroke-linecap: round"/>
     </g>
     <g id="text_2">
      <!-- FinOps &amp; -->
      <g style="fill: #262626" transform="translate(292.692266 62.391744) scale(0.11 -0.11)">
       <defs>
        <path id="LiberationSans-46" d="M 1122 3916 
L 1122 2278 
L 3578 2278 
L 3578 1784 
L 1122 1784 
L 1122 0 
L 525 0 
L 525 4403 
L 3653 4403 
L 3653 3916 
L 1122 3916 
z
" transform="scale(0.015625)"/>
        <path id="LiberationSans-70" d="M 3291 1706 
Q 3291 1322 3228 997 
Q 3166 672 3020 437 
Q 2875 203 2636 70 
Q 2397 -63 2047 -63 
Q 1684 -63 1412 75 
Q 1141 213 997 525 
L 981 525 
Q 984 519 986 469 
Q 988 419 989 344 
Q 991 269 992 176 
Q 994 84 994 -6 
L 994 -1328 
L 431 -1328 
L 431 2691 
Q 431 2813 429 2925 
Q 428 3038 425 3130 
Q 422 3222 419 3287 
Q 416 3353 413 3381 
L 956 3381 
Q 959 3372 964 3315 
Q 969 3259 973 3179 
Q 978 3100 983 3009 
Q 988 2919 988 2838 
L 1000 2838 
Q 1078 3000 1178 3114 
Q 1278 3228 1406 3301 
Q 1534 3375 1692 3408 
Q 1850 3441 2047 3441 
Q 2397 3441 2636 3316 
Q 2875 3191 3020 2964 
Q 3166 2738 3228 2417 
Q 3291 2097 3291 1706 
z
M 2700 1694 
Q 2700 2006 2662 2250 
Q 2625 2494 2533 2662 
Q 2441 2831 2287 2918 
Q 2134 3006 1903 3006 
Q 1716 3006 1550 2953 
Q 1384 2900 1261 2750 
Q 1138 2600 1066 2336 
Q 994 2072 994 1650 
Q 994 1291 1053 1042 
Q 1113 794 1227 641 
Q 1341 488 1509 420 
Q 1678 353 1897 353 
Q 2131 353 2286 443 
Q 2441 534 2533 706 
Q 2625 878 2662 1126 
Q 2700 1375 2700 1694 
z
" transform="scale(0.015625)"/>
       </defs>
       <use xlink:href="#LiberationSans-46"/>
       <use xlink:href="#LiberationSans-69" transform="translate(61.083984 0)"/>
       <use xlink:href="#LiberationSans-6e" transform="translate(83.300781 0)"/>
       <use xlink:href="#LiberationSans-4f" transform="translate(138.916016 0)"/>
       <use xlink:href="#LiberationSans-70" transform="translate(216.699219 0)"/>
       <use xlink:href="#LiberationSans-73" transform="translate(272.314453 0)"/>
       <use xlink:href="#LiberationSans-20" transform="translate(322.314453 0)"/>
       <use xlink:href="#LiberationSans-26" transform="translate(350.097656 0)"/>
      </g>
      <!-- Data Management -->
      <g style="fill: #262626" transform="translate(270.37 74.240119) scale(0.11 -0.11)">
       <defs>
        <path id="LiberationSans-4d" d="M 4269 0 
L 4269 2938 
Q 4269 3097 4272 3262 
Q 4275 3428 4281 3566 
Q 4288 3725 4297 3875 
Q 4253 3716 4206 3559 
Q 4166 3425 4117 3273 
Q 4069 3122 4022 3000 
L 2884 0 
L 2466 0 
L 1313 3000 
Q 1294 3047 1273 3109 
Q 1253 3172 1229 3242 
Q 1206 3313 1182 3386 
Q 1159 3459 1138 3531 
Q 1084 3697 1034 3875 
Q 1038 3700 1044 3528 
Q 1050 3381 1053 3220 
Q 1056 3059 1056 2938 
L 1056 0 
L 525 0 
L 525 4403 
L 1309 4403 
L 2481 1350 
Q 2503 1288 2534 1189 
Q 2566 1091 2594 987 
Q 2622 884 2645 792 
Q 2669 700 2678 650 
Q 2688 700 2713 794 
Q 2738 888 2770 991 
Q 2803 1094 2834 1191 
Q 2866 1288 2891 1350 
L 4041 4403 
L 4806 4403 
L 4806 0 
L 4269 0 
z
" transform="scale(0.015625)"/>
        <path id="LiberationSans-67" d="M 1713 -1328 
Q 1422 -1328 1197 -1268 
Q 972 -1209 812 -1098 
Q 653 -988 553 -834 
Q 453 -681 409 -494 
L 975 -413 
Q 1031 -647 1223 -773 
Q 1416 -900 1728 -900 
Q 1919 -900 2075 -847 
Q 2231 -794 2340 -676 
Q 2450 -559 2509 -371 
Q 2569 -184 2569 84 
L 2569 628 
L 2563 628 
Q 2500 500 2408 383 
Q 2316 266 2183 175 
Q 2050 84 1875 29 
Q 1700 -25 1475 -25 
Q 1153 -25 923 83 
Q 694 191 548 406 
Q 403 622 336 942 
Q 269 1263 269 1684 
Q 269 2091 336 2416 
Q 403 2741 554 2967 
Q 706 3194 948 3314 
Q 1191 3434 1538 3434 
Q 1897 3434 2161 3270 
Q 2425 3106 2569 2803 
L 2575 2803 
Q 2575 2881 2579 2978 
Q 2584 3075 2589 3161 
Q 2594 3247 2600 3309 
Q 2606 3372 2613 3381 
L 3147 3381 
Q 3144 3353 3141 3286 
Q 3138 3219 3134 3125 
Q 3131 3031 3129 2917 
Q 3128 2803 3128 2681 
L 3128 97 
Q 3128 -613 2779 -970 
Q 2431 -1328 1713 -1328 
z
M 2569 1691 
Q 2569 2044 2492 2295 
Q 2416 2547 2291 2706 
Q 2166 2866 2005 2941 
Q 1844 3016 1675 3016 
Q 1459 3016 1304 2941 
Q 1150 2866 1048 2705 
Q 947 2544 898 2292 
Q 850 2041 850 1691 
Q 850 1325 898 1076 
Q 947 828 1047 675 
Q 1147 522 1300 456 
Q 1453 391 1666 391 
Q 1834 391 1995 462 
Q 2156 534 2284 690 
Q 2413 847 2491 1094 
Q 2569 1341 2569 1691 
z
" transform="scale(0.015625)"/>
       </defs>
       <use xlink:href="#LiberationSans-44"/>
       <use xlink:href="#LiberationSans-61" transform="translate(72.216797 0)"/>
       <use xlink:href="#LiberationSans-74" transform="translate(127.832031 0)"/>
       <use xlink:href="#LiberationSans-61" transform="translate(155.615234 0)"/>
       <use xlink:href="#LiberationSans-20" transform="translate(211.230469 0)"/>
       <use xlink:href="#LiberationSans-4d" transform="translate(239.013672 0)"/>
       <use xlink:href="#LiberationSans-61" transform="translate(322.314453 0)"/>
       <use xlink:href="#LiberationSans-6e" transform="translate(377.929688 0)"/>
       <use xlink:href="#LiberationSans-61" transform="translate(433.544922 0)"/>
       <use xlink:href="#LiberationSans-67" transform="translate(489.160156 0)"/>
       <use xlink:href="#LiberationSans-65" transform="translate(544.775391 0)"/>
       <use xlink:href="#LiberationSans-6d" transform="translate(600.390625 0)"/>
       <use xlink:href="#LiberationSans-65" transform="translate(683.691406 0)"/>
       <use xlink:href="#LiberationSans-6e" transform="translate(739.306641 0)"/>
       <use xlink:href="#LiberationSans-74" transform="translate(794.921875 0)"/>
      </g>
     </g>
    </g>
    <g id="xtick_3">
     <g id="line2d_3">
      <path d="M 315.615234 313.0489 
L 82.037734 313.0489 
" clip-path="url(#p4a381d42e2)" style="fill: none; stroke: #ffffff; stroke-opacity: 0.3; stroke-linecap: round"/>
     </g>
     <g id="text_3">
      <!-- Autonomous Capabilities -->
      <g style="fill: #262626" transform="translate(7.2 309.969244) scale(0.11 -0.11)">
       <defs>
        <path id="LiberationSans-41" d="M 3647 0 
L 3144 1288 
L 1138 1288 
L 631 0 
L 13 0 
L 1809 4403 
L 2488 4403 
L 4256 0 
L 3647 0 
z
M 2400 3206 
Q 2350 3331 2304 3459 
Q 2259 3588 2225 3692 
Q 2191 3797 2167 3867 
Q 2144 3938 2141 3953 
Q 2134 3938 2112 3866 
Q 2091 3794 2055 3687 
Q 2019 3581 1973 3453 
Q 1928 3325 1881 3200 
L 1319 1753 
L 2966 1753 
L 2400 3206 
z
" transform="scale(0.015625)"/>
        <path id="LiberationSans-75" d="M 981 3381 
L 981 1238 
Q 981 991 1017 825 
Q 1053 659 1134 557 
Q 1216 456 1348 414 
Q 1481 372 1678 372 
Q 1878 372 2039 442 
Q 2200 513 2314 645 
Q 2428 778 2490 973 
Q 2553 1169 2553 1422 
L 2553 3381 
L 3116 3381 
L 3116 722 
Q 3116 616 3117 498 
Q 3119 381 3122 276 
Q 3125 172 3128 97 
Q 3131 22 3134 0 
L 2603 0 
Q 2600 16 2597 84 
Q 2594 153 2589 242 
Q 2584 331 2581 423 
Q 2578 516 2578 578 
L 2569 578 
Q 2488 431 2391 312 
Q 2294 194 2166 111 
Q 2038 28 1872 -17 
Q 1706 -63 1488 -63 
Q 1206 -63 1003 6 
Q 800 75 669 219 
Q 538 363 477 588 
Q 416 813 416 1128 
L 416 3381 
L 981 3381 
z
" transform="scale(0.015625)"/>
        <path id="LiberationSans-43" d="M 2475 3981 
Q 2100 3981 1811 3856 
Q 1522 3731 1326 3500 
Q 1131 3269 1031 2944 
Q 931 2619 931 2222 
Q 931 1825 1039 1495 
Q 1147 1166 1348 928 
Q 1550 691 1842 559 
Q 2134 428 2500 428 
Q 2756 428 2967 495 
Q 3178 563 3348 684 
Q 3519 806 3653 973 
Q 3788 1141 3891 1344 
L 4378 1100 
Q 4259 853 4084 640 
Q 3909 428 3673 272 
Q 3438 116 3139 26 
Q 2841 -63 2472 -63 
Q 1938 -63 1536 107 
Q 1134 278 864 583 
Q 594 888 459 1306 
Q 325 1725 325 2222 
Q 325 2738 467 3153 
Q 609 3569 882 3861 
Q 1156 4153 1556 4311 
Q 1956 4469 2469 4469 
Q 3172 4469 3644 4194 
Q 4116 3919 4338 3378 
L 3772 3191 
Q 3709 3347 3603 3489 
Q 3497 3631 3337 3740 
Q 3178 3850 2964 3915 
Q 2750 3981 2475 3981 
z
" transform="scale(0.015625)"/>
       </defs>
       <use xlink:href="#LiberationSans-41"/>
       <use xlink:href="#LiberationSans-75" transform="translate(66.699219 0)"/>
       <use xlink:href="#LiberationSans-74" transform="translate(122.314453 0)"/>
       <use xlink:href="#LiberationSans-6f" transform="translate(150.097656 0)"/>
       <use xlink:href="#LiberationSans-6e" transform="translate(205.712891 0)"/>
       <use xlink:href="#LiberationSans-6f" transform="translate(261.328125 0)"/>
       <use xlink:href="#LiberationSans-6d" transform="translate(316.943359 0)"/>
       <use xlink:href="#LiberationSans-6f" transform="translate(400.244141 0)"/>
       <use xlink:href="#LiberationSans-75" transform="translate(455.859375 0)"/>
       <use xlink:href="#LiberationSans-73" transform="translate(511.474609 0)"/>
       <use xlink:href="#LiberationSans-20" transform="translate(561.474609 0)"/>
       <use xlink:href="#LiberationSans-43" transform="translate(589.257812 0)"/>
       <use xlink:href="#LiberationSans-61" transform="translate(661.474609 0)"/>
       <use xlink:href="#LiberationSans-70" transform="translate(717.089844 0)"/>
       <use xlink:href="#LiberationSans-61" transform="translate(772.705078 0)"/>
       <use xlink:href="#LiberationSans-62" transform="translate(828.320312 0)"/>
       <use xlink:href="#LiberationSans-69" transform="translate(883.935547 0)"/>
       <use xlink:href="#LiberationSans-6c" transform="translate(906.152344 0)"/>
       <use xlink:href="#LiberationSans-69" transform="translate(928.369141 0)"/>
       <use xlink:href="#LiberationSans-74" transform="translate(950.585938 0)"/>
       <use xlink:href="#LiberationSans-69" transform="translate(978.369141 0)"/>
       <use xlink:href="#LiberationSans-65" transform="translate(1000.585938 0)"/>
       <use xlink:href="#LiberationSans-73" transform="translate(1056.201172 0)"/>
      </g>
      <!-- (AI/ML) -->
      <g style="fill: #262626" transform="translate(50.010625 321.817619) scale(0.11 -0.11)">
       <defs>
        <path id="LiberationSans-28" d="M 397 1663 
Q 397 2097 462 2494 
Q 528 2891 668 3256 
Q 809 3622 1028 3965 
Q 1247 4309 1550 4638 
L 2094 4638 
Q 1800 4309 1586 3964 
Q 1372 3619 1234 3251 
Q 1097 2884 1030 2487 
Q 963 2091 963 1656 
Q 963 1222 1030 825 
Q 1097 428 1234 59 
Q 1372 -309 1586 -653 
Q 1800 -997 2094 -1325 
L 1550 -1325 
Q 1247 -997 1028 -653 
Q 809 -309 668 56 
Q 528 422 462 817 
Q 397 1213 397 1650 
L 397 1663 
z
" transform="scale(0.015625)"/>
        <path id="LiberationSans-49" d="M 591 0 
L 591 4403 
L 1188 4403 
L 1188 0 
L 591 0 
z
" transform="scale(0.015625)"/>
        <path id="LiberationSans-2f" d="M 0 -63 
L 1284 4638 
L 1778 4638 
L 506 -63 
L 0 -63 
z
" transform="scale(0.015625)"/>
        <path id="LiberationSans-4c" d="M 525 0 
L 525 4403 
L 1122 4403 
L 1122 488 
L 3347 488 
L 3347 0 
L 525 0 
z
" transform="scale(0.015625)"/>
        <path id="LiberationSans-29" d="M 1734 1650 
Q 1734 1213 1668 817 
Q 1603 422 1462 56 
Q 1322 -309 1103 -653 
Q 884 -997 581 -1325 
L 38 -1325 
Q 331 -997 545 -653 
Q 759 -309 896 59 
Q 1034 428 1101 825 
Q 1169 1222 1169 1656 
Q 1169 2091 1101 2487 
Q 1034 2884 896 3251 
Q 759 3619 545 3964 
Q 331 4309 38 4638 
L 581 4638 
Q 884 4309 1103 3965 
Q 1322 3622 1462 3256 
Q 1603 2891 1668 2494 
Q 1734 2097 1734 1663 
L 1734 1650 
z
" transform="scale(0.015625)"/>
       </defs>
       <use xlink:href="#LiberationSans-28"/>
       <use xlink:href="#LiberationSans-41" transform="translate(33.300781 0)"/>
       <use xlink:href="#LiberationSans-49" transform="translate(100 0)"/>
       <use xlink:href="#LiberationSans-2f" transform="translate(127.783203 0)"/>
       <use xlink:href="#LiberationSans-4d" transform="translate(155.566406 0)"/>
       <use xlink:href="#LiberationSans-4c" transform="translate(238.867188 0)"/>
       <use xlink:href="#LiberationSans-29" transform="translate(294.482422 0)"/>
      </g>
     </g>
    </g>
    <g id="xtick_4">
     <g id="line2d_4">
      <path d="M 315.615234 313.0489 
L 315.615234 546.6264 
" clip-path="url(#p4a381d42e2)" style="fill: none; stroke: #ffffff; stroke-opacity: 0.3; stroke-linecap: round"/>
     </g>
     <g id="text_4">
      <!-- Operations &amp; Platform -->
      <g style="fill: #262626" transform="translate(261.512422 557.546744) scale(0.11 -0.11)">
       <use xlink:href="#LiberationSans-4f"/>
       <use xlink:href="#LiberationSans-70" transform="translate(77.783203 0)"/>
       <use xlink:href="#LiberationSans-65" transform="translate(133.398438 0)"/>
       <use xlink:href="#LiberationSans-72" transform="translate(189.013672 0)"/>
       <use xlink:href="#LiberationSans-61" transform="translate(222.314453 0)"/>
       <use xlink:href="#LiberationSans-74" transform="translate(277.929688 0)"/>
       <use xlink:href="#LiberationSans-69" transform="translate(305.712891 0)"/>
       <use xlink:href="#LiberationSans-6f" transform="translate(327.929688 0)"/>
       <use xlink:href="#LiberationSans-6e" transform="translate(383.544922 0)"/>
       <use xlink:href="#LiberationSans-73" transform="translate(439.160156 0)"/>
       <use xlink:href="#LiberationSans-20" transform="translate(489.160156 0)"/>
       <use xlink:href="#LiberationSans-26" transform="translate(516.943359 0)"/>
       <use xlink:href="#LiberationSans-20" transform="translate(583.642578 0)"/>
       <use xlink:href="#LiberationSans-50" transform="translate(611.425781 0)"/>
       <use xlink:href="#LiberationSans-6c" transform="translate(678.125 0)"/>
       <use xlink:href="#LiberationSans-61" transform="translate(700.341797 0)"/>
       <use xlink:href="#LiberationSans-74" transform="translate(755.957031 0)"/>
       <use xlink:href="#LiberationSans-66" transform="translate(783.740234 0)"/>
       <use xlink:href="#LiberationSans-6f" transform="translate(811.523438 0)"/>
       <use xlink:href="#LiberationSans-72" transform="translate(867.138672 0)"/>
       <use xlink:href="#LiberationSans-6d" transform="translate(900.439453 0)"/>
      </g>
      <!-- Team Alignment -->
      <g style="fill: #262626" transform="translate(276.487891 569.395119) scale(0.11 -0.11)">
       <defs>
        <path id="LiberationSans-54" d="M 2250 3916 
L 2250 0 
L 1656 0 
L 1656 3916 
L 144 3916 
L 144 4403 
L 3763 4403 
L 3763 3916 
L 2250 3916 
z
" transform="scale(0.015625)"/>
       </defs>
       <use xlink:href="#LiberationSans-54"/>
       <use xlink:href="#LiberationSans-65" transform="translate(49.958984 0)"/>
       <use xlink:href="#LiberationSans-61" transform="translate(105.574219 0)"/>
       <use xlink:href="#LiberationSans-6d" transform="translate(161.189453 0)"/>
       <use xlink:href="#LiberationSans-20" transform="translate(244.490234 0)"/>
       <use xlink:href="#LiberationSans-41" transform="translate(266.773438 0)"/>
       <use xlink:href="#LiberationSans-6c" transform="translate(333.472656 0)"/>
       <use xlink:href="#LiberationSans-69" transform="translate(355.689453 0)"/>
       <use xlink:href="#LiberationSans-67" transform="translate(377.90625 0)"/>
       <use xlink:href="#LiberationSans-6e" transform="translate(433.521484 0)"/>
       <use xlink:href="#LiberationSans-6d" transform="translate(489.136719 0)"/>
       <use xlink:href="#LiberationSans-65" transform="translate(572.4375 0)"/>
       <use xlink:href="#LiberationSans-6e" transform="translate(628.052734 0)"/>
       <use xlink:href="#LiberationSans-74" transform="translate(683.667969 0)"/>
      </g>
     </g>
    </g>
   </g>
   <g id="matplotlib.axis_2">
    <g id="ytick_1">
     <g id="line2d_5">
      <path d="M 362.330734 313.0489 
C 362.330734 306.914277 361.122347 300.839305 358.774729 295.171652 
C 356.42711 289.503999 352.985915 284.353887 348.648081 280.016053 
C 344.310248 275.678219 339.160135 272.237024 333.492482 269.889406 
C 327.824829 267.541787 321.749858 266.3334 315.615234 266.3334 
C 309.480611 266.3334 303.405639 267.541787 297.737986 269.889406 
C 292.070334 272.237024 286.920221 275.678219 282.582388 280.016053 
C 278.244554 284.353887 274.803359 289.503999 272.45574 295.171652 
C 270.108121 300.839305 268.899734 306.914277 268.899734 313.0489 
C 268.899734 319.183523 270.108121 325.258495 272.45574 330.926148 
C 274.803359 336.593801 278.244554 341.743913 282.582388 346.081747 
C 286.920221 350.419581 292.070334 353.860776 297.737986 356.208394 
C 303.405639 358.556013 309.480611 359.7644 315.615234 359.7644 
C 321.749858 359.7644 327.824829 358.556013 333.492482 356.208394 
C 339.160135 353.860776 344.310248 350.419581 348.648081 346.081747 
C 352.985915 341.743913 356.42711 336.593801 358.774729 330.926148 
C 361.122347 325.258495 362.330734 319.183523 362.330734 313.0489 
" clip-path="url(#p4a381d42e2)" style="fill: none; stroke: #ffffff; stroke-opacity: 0.3; stroke-linecap: round"/>
     </g>
     <g id="text_5">
      <!-- 1 -->
      <g style="fill: #262626" transform="translate(358.774729 293.096652) scale(0.1 -0.1)">
       <defs>
        <path id="LiberationSans-31" d="M 488 0 
L 488 478 
L 1609 478 
L 1609 3866 
L 616 3156 
L 616 3688 
L 1656 4403 
L 2175 4403 
L 2175 478 
L 3247 478 
L 3247 0 
L 488 0 
z
" transform="scale(0.015625)"/>
       </defs>
       <use xlink:href="#LiberationSans-31"/>
      </g>
     </g>
    </g>
    <g id="ytick_2">
     <g id="line2d_6">
      <path d="M 409.046234 313.0489 
C 409.046234 300.779653 406.62946 288.62971 401.934223 277.294404 
C 397.238986 265.959099 390.356595 255.658874 381.680928 246.983206 
C 373.005261 238.307539 362.705036 231.425149 351.36973 226.729911 
C 340.034424 222.034674 327.884481 219.6179 315.615234 219.6179 
C 303.345988 219.6179 291.196044 222.034674 279.860739 226.729911 
C 268.525433 231.425149 258.225208 238.307539 249.549541 246.983206 
C 240.873873 255.658874 233.991483 265.959099 229.296246 277.294404 
C 224.601008 288.62971 222.184234 300.779653 222.184234 313.0489 
C 222.184234 325.318147 224.601008 337.46809 229.296246 348.803396 
C 233.991483 360.138701 240.873873 370.438926 249.549541 379.114594 
C 258.225208 387.790261 268.525433 394.672651 279.860739 399.367889 
C 291.196044 404.063126 303.345988 406.4799 315.615234 406.4799 
C 327.884481 406.4799 340.034424 404.063126 351.36973 399.367889 
C 362.705036 394.672651 373.005261 387.790261 381.680928 379.114594 
C 390.356595 370.438926 397.238986 360.138701 401.934223 348.803396 
C 406.62946 337.46809 409.046234 325.318147 409.046234 313.0489 
" clip-path="url(#p4a381d42e2)" style="fill: none; stroke: #ffffff; stroke-opacity: 0.3; stroke-linecap: round"/>
     </g>
     <g id="text_6">
      <!-- 2 -->
      <g style="fill: #262626" transform="translate(401.934223 275.219404) scale(0.1 -0.1)">
       <defs>
        <path id="LiberationSans-32" d="M 322 0 
L 322 397 
Q 481 763 711 1042 
Q 941 1322 1194 1548 
Q 1447 1775 1695 1969 
Q 1944 2163 2144 2356 
Q 2344 2550 2467 2762 
Q 2591 2975 2591 3244 
Q 2591 3431 2534 3573 
Q 2478 3716 2372 3812 
Q 2266 3909 2117 3957 
Q 1969 4006 1788 4006 
Q 1619 4006 1470 3959 
Q 1322 3913 1206 3819 
Q 1091 3725 1017 3586 
Q 944 3447 922 3263 
L 347 3316 
Q 375 3553 478 3762 
Q 581 3972 762 4130 
Q 944 4288 1198 4378 
Q 1453 4469 1788 4469 
Q 2116 4469 2372 4391 
Q 2628 4313 2804 4159 
Q 2981 4006 3075 3781 
Q 3169 3556 3169 3263 
Q 3169 3041 3089 2841 
Q 3009 2641 2876 2459 
Q 2744 2278 2569 2109 
Q 2394 1941 2203 1780 
Q 2013 1619 1819 1461 
Q 1625 1303 1454 1143 
Q 1284 984 1150 820 
Q 1016 656 941 478 
L 3238 478 
L 3238 0 
L 322 0 
z
" transform="scale(0.015625)"/>
       </defs>
       <use xlink:href="#LiberationSans-32"/>
      </g>
     </g>
    </g>
    <g id="ytick_3">
     <g id="line2d_7">
      <path d="M 455.761734 313.0489 
C 455.761734 294.64503 452.136573 276.420115 445.093717 259.417156 
C 438.050861 242.414198 427.727276 226.963861 414.713775 213.950359 
C 401.700274 200.936858 386.249937 190.613273 369.246978 183.570417 
C 352.244019 176.527561 334.019104 172.9024 315.615234 172.9024 
C 297.211365 172.9024 278.986449 176.527561 261.983491 183.570417 
C 244.980532 190.613273 229.530195 200.936858 216.516694 213.950359 
C 203.503193 226.963861 193.179608 242.414198 186.136751 259.417156 
C 179.093895 276.420115 175.468734 294.64503 175.468734 313.0489 
C 175.468734 331.45277 179.093895 349.677685 186.136751 366.680644 
C 193.179608 383.683602 203.503193 399.133939 216.516694 412.147441 
C 229.530195 425.160942 244.980532 435.484527 261.983491 442.527383 
C 278.986449 449.570239 297.211365 453.1954 315.615234 453.1954 
C 334.019104 453.1954 352.244019 449.570239 369.246978 442.527383 
C 386.249937 435.484527 401.700274 425.160942 414.713775 412.147441 
C 427.727276 399.133939 438.050861 383.683602 445.093717 366.680644 
C 452.136573 349.677685 455.761734 331.45277 455.761734 313.0489 
" clip-path="url(#p4a381d42e2)" style="fill: none; stroke: #ffffff; stroke-opacity: 0.3; stroke-linecap: round"/>
     </g>
     <g id="text_7">
      <!-- 3 -->
      <g style="fill: #262626" transform="translate(445.093717 257.342156) scale(0.1 -0.1)">
       <defs>
        <path id="LiberationSans-33" d="M 3278 1216 
Q 3278 913 3179 675 
Q 3081 438 2892 273 
Q 2703 109 2423 23 
Q 2144 -63 1784 -63 
Q 1375 -63 1095 39 
Q 816 141 634 308 
Q 453 475 362 689 
Q 272 903 244 1131 
L 825 1184 
Q 850 1009 917 865 
Q 984 722 1100 619 
Q 1216 516 1384 459 
Q 1553 403 1784 403 
Q 2209 403 2451 612 
Q 2694 822 2694 1234 
Q 2694 1478 2586 1626 
Q 2478 1775 2317 1858 
Q 2156 1941 1967 1969 
Q 1778 1997 1619 1997 
L 1300 1997 
L 1300 2484 
L 1606 2484 
Q 1766 2484 1937 2517 
Q 2109 2550 2251 2636 
Q 2394 2722 2486 2869 
Q 2578 3016 2578 3244 
Q 2578 3597 2370 3801 
Q 2163 4006 1753 4006 
Q 1381 4006 1151 3815 
Q 922 3625 884 3278 
L 319 3322 
Q 353 3613 478 3828 
Q 603 4044 795 4186 
Q 988 4328 1234 4398 
Q 1481 4469 1759 4469 
Q 2128 4469 2393 4376 
Q 2659 4284 2828 4126 
Q 2997 3969 3076 3756 
Q 3156 3544 3156 3303 
Q 3156 3109 3103 2940 
Q 3050 2772 2937 2637 
Q 2825 2503 2651 2406 
Q 2478 2309 2234 2259 
L 2234 2247 
Q 2500 2219 2697 2126 
Q 2894 2034 3022 1896 
Q 3150 1759 3214 1584 
Q 3278 1409 3278 1216 
z
" transform="scale(0.015625)"/>
       </defs>
       <use xlink:href="#LiberationSans-33"/>
      </g>
     </g>
    </g>
    <g id="ytick_4">
     <g id="line2d_8">
      <path d="M 502.477234 313.0489 
C 502.477234 288.510407 497.643686 264.21052 488.253212 241.539908 
C 478.862737 218.869297 465.097957 198.268847 447.746622 180.917513 
C 430.395287 163.566178 409.794837 149.801398 387.124226 140.410923 
C 364.453614 131.020448 340.153727 126.1869 315.615234 126.1869 
C 291.076741 126.1869 266.776854 131.020448 244.106243 140.410923 
C 221.435631 149.801398 200.835182 163.566178 183.483847 180.917513 
C 166.132512 198.268847 152.367732 218.869297 142.977257 241.539908 
C 133.586782 264.21052 128.753234 288.510407 128.753234 313.0489 
C 128.753234 337.587393 133.586782 361.88728 142.977257 384.557892 
C 152.367732 407.228503 166.132512 427.828953 183.483847 445.180287 
C 200.835182 462.531622 221.435631 476.296402 244.106243 485.686877 
C 266.776854 495.077352 291.076741 499.9109 315.615234 499.9109 
C 340.153727 499.9109 364.453614 495.077352 387.124226 485.686877 
C 409.794837 476.296402 430.395287 462.531622 447.746622 445.180287 
C 465.097957 427.828953 478.862737 407.228503 488.253212 384.557892 
C 497.643686 361.88728 502.477234 337.587393 502.477234 313.0489 
" clip-path="url(#p4a381d42e2)" style="fill: none; stroke: #ffffff; stroke-opacity: 0.3; stroke-linecap: round"/>
     </g>
     <g id="text_8">
      <!-- 4 -->
      <g style="fill: #262626" transform="translate(488.253212 239.464908) scale(0.1 -0.1)">
       <defs>
        <path id="LiberationSans-34" d="M 2753 997 
L 2753 0 
L 2222 0 
L 2222 997 
L 147 997 
L 147 1434 
L 2163 4403 
L 2753 4403 
L 2753 1441 
L 3372 1441 
L 3372 997 
L 2753 997 
z
M 2222 3769 
Q 2216 3753 2191 3708 
Q 2166 3663 2134 3606 
Q 2103 3550 2070 3492 
Q 2038 3434 2013 3397 
L 884 1734 
Q 869 1709 839 1668 
Q 809 1628 778 1586 
Q 747 1544 715 1503 
Q 684 1463 666 1441 
L 2222 1441 
L 2222 3769 
z
" transform="scale(0.015625)"/>
       </defs>
       <use xlink:href="#LiberationSans-34"/>
      </g>
     </g>
    </g>
    <g id="ytick_5">
     <g id="line2d_9">
      <path d="M 549.192734 313.0489 
C 549.192734 282.375784 543.150799 252.000925 531.412706 223.662661 
C 519.674612 195.324396 502.468637 169.573834 480.779469 147.884666 
C 459.0903 126.195497 433.339738 108.989522 405.001474 97.251428 
C 376.663209 85.513335 346.288351 79.4714 315.615234 79.4714 
C 284.942118 79.4714 254.567259 85.513335 226.228995 97.251428 
C 197.890731 108.989522 172.140169 126.195497 150.451 147.884666 
C 128.761832 169.573834 111.555856 195.324396 99.817763 223.662661 
C 88.079669 252.000925 82.037734 282.375784 82.037734 313.0489 
C 82.037734 343.722016 88.079669 374.096875 99.817763 402.435139 
C 111.555856 430.773404 128.761832 456.523966 150.451 478.213134 
C 172.140169 499.902303 197.890731 517.108278 226.228995 528.846372 
C 254.567259 540.584465 284.942118 546.6264 315.615234 546.6264 
C 346.288351 546.6264 376.663209 540.584465 405.001474 528.846372 
C 433.339738 517.108278 459.0903 499.902303 480.779469 478.213134 
C 502.468637 456.523966 519.674612 430.773404 531.412706 402.435139 
C 543.150799 374.096875 549.192734 343.722016 549.192734 313.0489 
" clip-path="url(#p4a381d42e2)" style="fill: none; stroke: #ffffff; stroke-opacity: 0.3; stroke-linecap: round"/>
     </g>
     <g id="text_9">
      <!-- 5 -->
      <g style="fill: #262626" transform="translate(531.412706 221.587661) scale(0.1 -0.1)">
       <defs>
        <path id="LiberationSans-35" d="M 3291 1434 
Q 3291 1103 3191 828 
Q 3091 553 2894 354 
Q 2697 156 2405 46 
Q 2113 -63 1728 -63 
Q 1381 -63 1123 18 
Q 866 100 687 242 
Q 509 384 404 575 
Q 300 766 256 984 
L 825 1050 
Q 859 925 921 808 
Q 984 691 1092 598 
Q 1200 506 1358 451 
Q 1516 397 1741 397 
Q 1959 397 2137 464 
Q 2316 531 2442 662 
Q 2569 794 2637 984 
Q 2706 1175 2706 1422 
Q 2706 1625 2640 1795 
Q 2575 1966 2453 2089 
Q 2331 2213 2154 2281 
Q 1978 2350 1753 2350 
Q 1613 2350 1494 2325 
Q 1375 2300 1273 2256 
Q 1172 2213 1089 2155 
Q 1006 2097 934 2034 
L 384 2034 
L 531 4403 
L 3034 4403 
L 3034 3925 
L 1044 3925 
L 959 2528 
Q 1109 2644 1334 2726 
Q 1559 2809 1869 2809 
Q 2197 2809 2459 2709 
Q 2722 2609 2906 2426 
Q 3091 2244 3191 1991 
Q 3291 1738 3291 1434 
z
" transform="scale(0.015625)"/>
       </defs>
       <use xlink:href="#LiberationSans-35"/>
      </g>
     </g>
    </g>
   </g>
   <g id="patch_3">
    <path d="M 446.418634 313.0489 
L 315.615234 205.60325 
L 226.855784 313.0489 
L 315.615234 457.86695 
z
" clip-path="url(#p4a381d42e2)" style="fill: #e74c3c; opacity: 0.25; stroke: #e74c3c; stroke-width: 0.3; stroke-linejoin: miter"/>
   </g>
   <g id="patch_4">
    <path d="M 511.820334 313.0489 
L 315.615234 126.1869 
L 138.096334 313.0489 
L 315.615234 499.9109 
z
" clip-path="url(#p4a381d42e2)" style="fill: #27ae60; opacity: 0.25; stroke: #27ae60; stroke-width: 0.3; stroke-linejoin: miter"/>
   </g>
   <g id="line2d_10">
    <path d="M 446.418634 313.0489 
L 315.615234 205.60325 
L 226.855784 313.0489 
L 315.615234 457.86695 
L 446.418634 313.0489 
" clip-path="url(#p4a381d42e2)" style="fill: none; stroke: #e74c3c; stroke-width: 3; stroke-linecap: round"/>
    <defs>
     <path id="mfe3a2b69b6" d="M 0 3.5 
C 0.928211 3.5 1.81853 3.131218 2.474874 2.474874 
C 3.131218 1.81853 3.5 0.928211 3.5 0 
C 3.5 -0.928211 3.131218 -1.81853 2.474874 -2.474874 
C 1.81853 -3.131218 0.928211 -3.5 0 -3.5 
C -0.928211 -3.5 -1.81853 -3.131218 -2.474874 -2.474874 
C -3.131218 -1.81853 -3.5 -0.928211 -3.5 0 
C -3.5 0.928211 -3.131218 1.81853 -2.474874 2.474874 
C -1.81853 3.131218 -0.928211 3.5 0 3.5 
z
"/>
    </defs>
    <g clip-path="url(#p4a381d42e2)">
     <use xlink:href="#mfe3a2b69b6" x="446.418634" y="313.0489" style="fill: #e74c3c"/>
     <use xlink:href="#mfe3a2b69b6" x="315.615234" y="205.60325" style="fill: #e74c3c"/>
     <use xlink:href="#mfe3a2b69b6" x="226.855784" y="313.0489" style="fill: #e74c3c"/>
     <use xlink:href="#mfe3a2b69b6" x="315.615234" y="457.86695" style="fill: #e74c3c"/>
     <use xlink:href="#mfe3a2b69b6" x="446.418634" y="313.0489" style="fill: #e74c3c"/>
    </g>
   </g>
   <g id="line2d_11">
    <path d="M 511.820334 313.0489 
L 315.615234 126.1869 
L 138.096334 313.0489 
L 315.615234 499.9109 
L 511.820334 313.0489 
" clip-path="url(#p4a381d42e2)" style="fill: none; stroke: #27ae60; stroke-width: 3; stroke-linecap: round"/>
    <defs>
     <path id="mc0c943a367" d="M 0 3.5 
C 0.928211 3.5 1.81853 3.131218 2.474874 2.474874 
C 3.131218 1.81853 3.5 0.928211 3.5 0 
C 3.5 -0.928211 3.131218 -1.81853 2.474874 -2.474874 
C 1.81853 -3.131218 0.928211 -3.5 0 -3.5 
C -0.928211 -3.5 -1.81853 -3.131218 -2.474874 -2.474874 
C -3.131218 -1.81853 -3.5 -0.928211 -3.5 0 
C -3.5 0.928211 -3.131218 1.81853 -2.474874 2.474874 
C -1.81853 3.131218 -0.928211 3.5 0 3.5 
z
"/>
    </defs>
    <g clip-path="url(#p4a381d42e2)">
     <use xlink:href="#mc0c943a367" x="511.820334" y="313.0489" style="fill: #27ae60"/>
     <use xlink:href="#mc0c943a367" x="315.615234" y="126.1869" style="fill: #27ae60"/>
     <use xlink:href="#mc0c943a367" x="138.096334" y="313.0489" style="fill: #27ae60"/>
     <use xlink:href="#mc0c943a367" x="315.615234" y="499.9109" style="fill: #27ae60"/>
     <use xlink:href="#mc0c943a367" x="511.820334" y="313.0489" style="fill: #27ae60"/>
    </g>
   </g>
   <g id="line2d_12">
    <path d="M 465.104834 313.0489 
L 315.615234 172.9024 
L 184.811834 313.0489 
L 315.615234 476.55315 
L 465.104834 313.0489 
" clip-path="url(#p4a381d42e2)" style="fill: none; stroke: #3498db; stroke-width: 2; stroke-linecap: round"/>
    <defs>
     <path id="m59484e6319" d="M 0 3.5 
C 0.928211 3.5 1.81853 3.131218 2.474874 2.474874 
C 3.131218 1.81853 3.5 0.928211 3.5 0 
C 3.5 -0.928211 3.131218 -1.81853 2.474874 -2.474874 
C 1.81853 -3.131218 0.928211 -3.5 0 -3.5 
C -0.928211 -3.5 -1.81853 -3.131218 -2.474874 -2.474874 
C -3.131218 -1.81853 -3.5 -0.928211 -3.5 0 
C -3.5 0.928211 -3.131218 1.81853 -2.474874 2.474874 
C -1.81853 3.131218 -0.928211 3.5 0 3.5 
z
"/>
    </defs>
    <g clip-path="url(#p4a381d42e2)">
     <use xlink:href="#m59484e6319" x="465.104834" y="313.0489" style="fill: #3498db"/>
     <use xlink:href="#m59484e6319" x="315.615234" y="172.9024" style="fill: #3498db"/>
     <use xlink:href="#m59484e6319" x="184.811834" y="313.0489" style="fill: #3498db"/>
     <use xlink:href="#m59484e6319" x="315.615234" y="476.55315" style="fill: #3498db"/>
     <use xlink:href="#m59484e6319" x="465.104834" y="313.0489" style="fill: #3498db"/>
    </g>
   </g>
   <g id="patch_5">
    <path d="M 549.192734 313.0489 
C 549.192734 282.375784 543.150799 252.000925 531.412706 223.662661 
C 519.674612 195.324396 502.468637 169.573834 480.779469 147.884666 
C 459.0903 126.195497 433.339738 108.989522 405.001474 97.251428 
C 376.663209 85.513335 346.288351 79.4714 315.615234 79.4714 
C 284.942118 79.4714 254.567259 85.513335 226.228995 97.251428 
C 197.890731 108.989522 172.140169 126.195497 150.451 147.884666 
C 128.761832 169.573834 111.555856 195.324396 99.817763 223.662661 
C 88.079669 252.000925 82.037734 282.375784 82.037734 313.0489 
C 82.037734 343.722016 88.079669 374.096875 99.817763 402.435139 
C 111.555856 430.773404 128.761832 456.523966 150.451 478.213134 
C 172.140169 499.902303 197.890731 517.108278 226.228995 528.846372 
C 254.567259 540.584465 284.942118 546.6264 315.615234 546.6264 
C 346.288351 546.6264 376.663209 540.584465 405.001474 528.846372 
C 433.339738 517.108278 459.0903 499.902303 480.779469 478.213134 
C 502.468637 456.523966 519.674612 430.773404 531.412706 402.435139 
C 543.150799 374.096875 549.192734 343.722016 549.192734 313.0489 
" style="fill: none"/>
   </g>
   <g id="text_10">
    <!-- 2.8 -->
    <g style="fill: #262626" transform="translate(451.418634 308.0489) scale(0.1 -0.1)">
     <defs>
      <path id="LiberationSans-Bold-32" d="M 222 0 
L 222 609 
Q 372 938 587 1202 
Q 803 1466 1039 1686 
Q 1275 1906 1508 2095 
Q 1741 2284 1927 2461 
Q 2113 2638 2228 2816 
Q 2344 2994 2344 3194 
Q 2344 3488 2197 3628 
Q 2050 3769 1766 3769 
Q 1484 3769 1336 3617 
Q 1188 3466 1144 3163 
L 259 3213 
Q 291 3472 387 3700 
Q 484 3928 664 4100 
Q 844 4272 1114 4370 
Q 1384 4469 1759 4469 
Q 2116 4469 2391 4386 
Q 2666 4303 2853 4143 
Q 3041 3984 3137 3754 
Q 3234 3525 3234 3231 
Q 3234 2922 3112 2672 
Q 2991 2422 2800 2211 
Q 2609 2000 2376 1815 
Q 2144 1631 1925 1456 
Q 1706 1281 1526 1103 
Q 1347 925 1259 722 
L 3303 722 
L 3303 0 
L 222 0 
z
" transform="scale(0.015625)"/>
      <path id="LiberationSans-Bold-2e" d="M 434 0 
L 434 953 
L 1338 953 
L 1338 0 
L 434 0 
z
" transform="scale(0.015625)"/>
      <path id="LiberationSans-Bold-38" d="M 3363 1241 
Q 3363 956 3269 717 
Q 3175 478 2981 304 
Q 2788 131 2491 34 
Q 2194 -63 1784 -63 
Q 1378 -63 1079 34 
Q 781 131 586 304 
Q 391 478 297 715 
Q 203 953 203 1234 
Q 203 1475 278 1661 
Q 353 1847 478 1981 
Q 603 2116 765 2195 
Q 928 2275 1100 2303 
L 1100 2316 
Q 916 2356 769 2450 
Q 622 2544 519 2675 
Q 416 2806 361 2967 
Q 306 3128 306 3303 
Q 306 3566 401 3781 
Q 497 3997 681 4150 
Q 866 4303 1139 4386 
Q 1413 4469 1772 4469 
Q 2156 4469 2436 4383 
Q 2716 4297 2897 4142 
Q 3078 3988 3165 3772 
Q 3253 3556 3253 3297 
Q 3253 3125 3198 2964 
Q 3144 2803 3041 2672 
Q 2938 2541 2789 2450 
Q 2641 2359 2453 2322 
L 2453 2309 
Q 2647 2278 2814 2195 
Q 2981 2113 3103 1980 
Q 3225 1847 3294 1661 
Q 3363 1475 3363 1241 
z
M 2350 3250 
Q 2350 3381 2322 3492 
Q 2294 3603 2228 3683 
Q 2163 3763 2052 3808 
Q 1941 3853 1772 3853 
Q 1609 3853 1500 3808 
Q 1391 3763 1325 3683 
Q 1259 3603 1231 3492 
Q 1203 3381 1203 3250 
Q 1203 3134 1226 3021 
Q 1250 2909 1312 2820 
Q 1375 2731 1487 2675 
Q 1600 2619 1778 2619 
Q 1966 2619 2080 2675 
Q 2194 2731 2253 2822 
Q 2313 2913 2331 3025 
Q 2350 3138 2350 3250 
z
M 2453 1313 
Q 2453 1447 2423 1572 
Q 2394 1697 2317 1792 
Q 2241 1888 2106 1945 
Q 1972 2003 1766 2003 
Q 1578 2003 1451 1945 
Q 1325 1888 1248 1791 
Q 1172 1694 1139 1567 
Q 1106 1441 1106 1300 
Q 1106 1134 1139 996 
Q 1172 859 1251 761 
Q 1331 663 1462 609 
Q 1594 556 1791 556 
Q 1988 556 2116 611 
Q 2244 666 2319 766 
Q 2394 866 2423 1005 
Q 2453 1144 2453 1313 
z
" transform="scale(0.015625)"/>
     </defs>
     <use xlink:href="#LiberationSans-Bold-32"/>
     <use xlink:href="#LiberationSans-Bold-2e" transform="translate(55.615234 0)"/>
     <use xlink:href="#LiberationSans-Bold-38" transform="translate(83.398438 0)"/>
    </g>
   </g>
   <g id="text_11">
    <!-- 2.3 -->
    <g style="fill: #262626" transform="translate(320.615234 200.60325) scale(0.1 -0.1)">
     <defs>
      <path id="LiberationSans-Bold-33" d="M 3328 1222 
Q 3328 922 3229 683 
Q 3131 444 2934 275 
Q 2738 106 2445 17 
Q 2153 -72 1766 -72 
Q 1334 -72 1039 37 
Q 744 147 555 326 
Q 366 506 270 734 
Q 175 963 147 1197 
L 1041 1275 
Q 1059 1134 1111 1017 
Q 1163 900 1250 815 
Q 1338 731 1464 686 
Q 1591 641 1763 641 
Q 2078 641 2253 797 
Q 2428 953 2428 1275 
Q 2428 1472 2345 1590 
Q 2263 1709 2136 1773 
Q 2009 1838 1862 1859 
Q 1716 1881 1584 1881 
L 1278 1881 
L 1278 2591 
L 1566 2591 
Q 1697 2591 1833 2616 
Q 1969 2641 2078 2706 
Q 2188 2772 2256 2889 
Q 2325 3006 2325 3188 
Q 2325 3459 2173 3614 
Q 2022 3769 1731 3769 
Q 1459 3769 1292 3619 
Q 1125 3469 1100 3194 
L 222 3256 
Q 259 3566 392 3794 
Q 525 4022 726 4172 
Q 928 4322 1190 4395 
Q 1453 4469 1747 4469 
Q 2134 4469 2412 4375 
Q 2691 4281 2869 4122 
Q 3047 3963 3131 3750 
Q 3216 3538 3216 3297 
Q 3216 3103 3159 2936 
Q 3103 2769 2989 2636 
Q 2875 2503 2697 2408 
Q 2519 2313 2275 2266 
L 2275 2253 
Q 2547 2222 2747 2130 
Q 2947 2038 3075 1900 
Q 3203 1763 3265 1589 
Q 3328 1416 3328 1222 
z
" transform="scale(0.015625)"/>
     </defs>
     <use xlink:href="#LiberationSans-Bold-32"/>
     <use xlink:href="#LiberationSans-Bold-2e" transform="translate(55.615234 0)"/>
     <use xlink:href="#LiberationSans-Bold-33" transform="translate(83.398438 0)"/>
    </g>
   </g>
   <g id="text_12">
    <!-- 1.9 -->
    <g style="fill: #262626" transform="translate(231.855784 308.0489) scale(0.1 -0.1)">
     <defs>
      <path id="LiberationSans-Bold-31" d="M 403 0 
L 403 653 
L 1494 653 
L 1494 3656 
L 438 2997 
L 438 3688 
L 1541 4403 
L 2372 4403 
L 2372 653 
L 3381 653 
L 3381 0 
L 403 0 
z
" transform="scale(0.015625)"/>
      <path id="LiberationSans-Bold-39" d="M 3322 2272 
Q 3322 1100 2894 518 
Q 2466 -63 1678 -63 
Q 1394 -63 1167 -3 
Q 941 56 772 181 
Q 603 306 486 503 
Q 369 700 300 972 
L 1125 1088 
Q 1188 853 1330 740 
Q 1472 628 1688 628 
Q 1866 628 2006 712 
Q 2147 797 2247 969 
Q 2347 1141 2401 1405 
Q 2456 1669 2459 2028 
Q 2397 1906 2294 1812 
Q 2191 1719 2061 1656 
Q 1931 1594 1784 1561 
Q 1638 1528 1488 1528 
Q 1200 1528 965 1629 
Q 731 1731 565 1922 
Q 400 2113 311 2383 
Q 222 2653 222 2994 
Q 222 3344 326 3619 
Q 431 3894 628 4083 
Q 825 4272 1111 4370 
Q 1397 4469 1759 4469 
Q 2141 4469 2433 4339 
Q 2725 4209 2922 3939 
Q 3119 3669 3220 3255 
Q 3322 2841 3322 2272 
z
M 2394 2888 
Q 2394 3075 2351 3239 
Q 2309 3403 2225 3523 
Q 2141 3644 2019 3712 
Q 1897 3781 1738 3781 
Q 1591 3781 1475 3726 
Q 1359 3672 1278 3569 
Q 1197 3466 1155 3319 
Q 1113 3172 1113 2988 
Q 1113 2816 1153 2667 
Q 1194 2519 1272 2411 
Q 1350 2303 1469 2242 
Q 1588 2181 1741 2181 
Q 1863 2181 1980 2225 
Q 2097 2269 2189 2356 
Q 2281 2444 2337 2576 
Q 2394 2709 2394 2888 
z
" transform="scale(0.015625)"/>
     </defs>
     <use xlink:href="#LiberationSans-Bold-31"/>
     <use xlink:href="#LiberationSans-Bold-2e" transform="translate(55.615234 0)"/>
     <use xlink:href="#LiberationSans-Bold-39" transform="translate(83.398438 0)"/>
    </g>
   </g>
   <g id="text_13">
    <!-- 3.1 -->
    <g style="fill: #262626" transform="translate(320.615234 452.86695) scale(0.1 -0.1)">
     <use xlink:href="#LiberationSans-Bold-33"/>
     <use xlink:href="#LiberationSans-Bold-2e" transform="translate(55.615234 0)"/>
     <use xlink:href="#LiberationSans-Bold-31" transform="translate(83.398438 0)"/>
    </g>
   </g>
   <g id="text_14">
    <!-- Truist Bank Technology Maturity Assessment -->
    <g transform="translate(143.141484 18.795) scale(0.16 -0.16)">
     <defs>
      <path id="LiberationSans-Bold-54" d="M 2416 3691 
L 2416 0 
L 1494 0 
L 1494 3691 
L 72 3691 
L 72 4403 
L 3841 4403 
L 3841 3691 
L 2416 3691 
z
" transform="scale(0.015625)"/>
      <path id="LiberationSans-Bold-72" d="M 447 0 
L 447 2588 
Q 447 2697 445 2819 
Q 444 2941 439 3052 
Q 434 3163 431 3252 
Q 428 3341 422 3381 
L 1259 3381 
Q 1266 3344 1272 3251 
Q 1278 3159 1284 3050 
Q 1291 2941 1295 2833 
Q 1300 2725 1300 2659 
L 1313 2659 
Q 1378 2844 1443 2989 
Q 1509 3134 1598 3236 
Q 1688 3338 1813 3392 
Q 1938 3447 2122 3447 
Q 2200 3447 2276 3433 
Q 2353 3419 2394 3400 
L 2394 2666 
Q 2309 2684 2223 2698 
Q 2138 2713 2019 2713 
Q 1691 2713 1508 2447 
Q 1325 2181 1325 1659 
L 1325 0 
L 447 0 
z
" transform="scale(0.015625)"/>
      <path id="LiberationSans-Bold-75" d="M 1275 3381 
L 1275 1484 
Q 1275 1288 1306 1123 
Q 1338 959 1409 842 
Q 1481 725 1595 659 
Q 1709 594 1875 594 
Q 2034 594 2164 664 
Q 2294 734 2387 864 
Q 2481 994 2532 1173 
Q 2584 1353 2584 1569 
L 2584 3381 
L 3463 3381 
L 3463 756 
Q 3463 650 3464 533 
Q 3466 416 3470 311 
Q 3475 206 3479 123 
Q 3484 41 3488 0 
L 2650 0 
Q 2647 38 2639 120 
Q 2631 203 2626 303 
Q 2622 403 2617 503 
Q 2613 603 2613 672 
L 2597 672 
Q 2422 288 2151 112 
Q 1881 -63 1509 -63 
Q 1206 -63 993 37 
Q 781 138 648 311 
Q 516 484 456 721 
Q 397 959 397 1234 
L 397 3381 
L 1275 3381 
z
" transform="scale(0.015625)"/>
      <path id="LiberationSans-Bold-69" d="M 447 3991 
L 447 4638 
L 1325 4638 
L 1325 3991 
L 447 3991 
z
M 447 0 
L 447 3381 
L 1325 3381 
L 1325 0 
L 447 0 
z
" transform="scale(0.015625)"/>
      <path id="LiberationSans-Bold-73" d="M 3297 988 
Q 3297 744 3195 550 
Q 3094 356 2900 220 
Q 2706 84 2425 10 
Q 2144 -63 1784 -63 
Q 1463 -63 1203 -16 
Q 944 31 748 139 
Q 553 247 422 419 
Q 291 591 225 844 
L 997 959 
Q 1034 819 1100 731 
Q 1166 644 1262 597 
Q 1359 550 1489 534 
Q 1619 519 1784 519 
Q 1934 519 2064 536 
Q 2194 553 2289 595 
Q 2384 638 2437 714 
Q 2491 791 2491 906 
Q 2491 1038 2414 1114 
Q 2338 1191 2205 1239 
Q 2072 1288 1892 1323 
Q 1713 1359 1509 1406 
Q 1297 1453 1090 1518 
Q 884 1584 721 1696 
Q 559 1809 459 1982 
Q 359 2156 359 2422 
Q 359 2663 453 2852 
Q 547 3041 728 3173 
Q 909 3306 1176 3376 
Q 1444 3447 1791 3447 
Q 2066 3447 2303 3395 
Q 2541 3344 2728 3233 
Q 2916 3122 3042 2950 
Q 3169 2778 3219 2534 
L 2441 2453 
Q 2419 2575 2362 2654 
Q 2306 2734 2223 2781 
Q 2141 2828 2031 2845 
Q 1922 2863 1791 2863 
Q 1478 2863 1322 2783 
Q 1166 2703 1166 2516 
Q 1166 2400 1230 2331 
Q 1294 2263 1411 2217 
Q 1528 2172 1689 2139 
Q 1850 2106 2041 2059 
Q 2275 2009 2501 1942 
Q 2728 1875 2904 1758 
Q 3081 1641 3189 1456 
Q 3297 1272 3297 988 
z
" transform="scale(0.015625)"/>
      <path id="LiberationSans-Bold-74" d="M 1313 -56 
Q 925 -56 715 155 
Q 506 366 506 794 
L 506 2788 
L 78 2788 
L 78 3381 
L 550 3381 
L 825 4175 
L 1375 4175 
L 1375 3381 
L 2016 3381 
L 2016 2788 
L 1375 2788 
L 1375 1031 
Q 1375 784 1469 667 
Q 1563 550 1759 550 
Q 1841 550 1906 562 
Q 1972 575 2053 594 
L 2053 50 
Q 1891 -3 1709 -29 
Q 1528 -56 1313 -56 
z
" transform="scale(0.015625)"/>
      <path id="LiberationSans-Bold-20" transform="scale(0.015625)"/>
      <path id="LiberationSans-Bold-42" d="M 4331 1256 
Q 4331 922 4197 683 
Q 4063 444 3830 292 
Q 3597 141 3287 70 
Q 2978 0 2631 0 
L 428 0 
L 428 4403 
L 2444 4403 
Q 2834 4403 3139 4336 
Q 3444 4269 3653 4131 
Q 3863 3994 3970 3786 
Q 4078 3578 4078 3297 
Q 4078 2922 3870 2664 
Q 3663 2406 3238 2316 
Q 3772 2253 4051 1979 
Q 4331 1706 4331 1256 
z
M 3150 3172 
Q 3150 3469 2961 3594 
Q 2772 3719 2400 3719 
L 1350 3719 
L 1350 2628 
L 2406 2628 
Q 2797 2628 2973 2764 
Q 3150 2900 3150 3172 
z
M 3406 1328 
Q 3406 1503 3337 1622 
Q 3269 1741 3148 1812 
Q 3028 1884 2867 1915 
Q 2706 1947 2519 1947 
L 1350 1947 
L 1350 684 
L 2553 684 
Q 2734 684 2890 714 
Q 3047 744 3161 817 
Q 3275 891 3340 1016 
Q 3406 1141 3406 1328 
z
" transform="scale(0.015625)"/>
      <path id="LiberationSans-Bold-61" d="M 1228 -63 
Q 984 -63 792 4 
Q 600 72 465 201 
Q 331 331 259 522 
Q 188 713 188 956 
Q 188 1256 292 1461 
Q 397 1666 578 1792 
Q 759 1919 1003 1976 
Q 1247 2034 1522 2038 
L 2250 2050 
L 2250 2222 
Q 2250 2406 2217 2529 
Q 2184 2653 2121 2731 
Q 2059 2809 1967 2842 
Q 1875 2875 1756 2875 
Q 1647 2875 1561 2853 
Q 1475 2831 1412 2776 
Q 1350 2722 1311 2630 
Q 1272 2538 1256 2397 
L 341 2441 
Q 378 2663 478 2845 
Q 578 3028 754 3162 
Q 931 3297 1189 3370 
Q 1447 3444 1794 3444 
Q 2109 3444 2356 3366 
Q 2603 3288 2775 3133 
Q 2947 2978 3037 2753 
Q 3128 2528 3128 2231 
L 3128 1000 
Q 3128 881 3139 787 
Q 3150 694 3179 630 
Q 3209 566 3264 533 
Q 3319 500 3406 500 
Q 3506 500 3600 519 
L 3600 44 
Q 3522 25 3459 9 
Q 3397 -6 3334 -15 
Q 3272 -25 3201 -31 
Q 3131 -38 3038 -38 
Q 2706 -38 2548 125 
Q 2391 288 2359 603 
L 2341 603 
Q 2166 288 1892 112 
Q 1619 -63 1228 -63 
z
M 2250 1566 
L 1800 1559 
Q 1659 1553 1532 1536 
Q 1406 1519 1311 1464 
Q 1216 1409 1159 1306 
Q 1103 1203 1103 1025 
Q 1103 784 1214 667 
Q 1325 550 1509 550 
Q 1678 550 1815 622 
Q 1953 694 2048 811 
Q 2144 928 2197 1081 
Q 2250 1234 2250 1394 
L 2250 1566 
z
" transform="scale(0.015625)"/>
      <path id="LiberationSans-Bold-6e" d="M 2638 0 
L 2638 1897 
Q 2638 2094 2606 2258 
Q 2575 2422 2503 2539 
Q 2431 2656 2315 2722 
Q 2200 2788 2034 2788 
Q 1875 2788 1745 2717 
Q 1616 2647 1522 2517 
Q 1428 2388 1376 2208 
Q 1325 2028 1325 1813 
L 1325 0 
L 447 0 
L 447 2625 
Q 447 2734 445 2850 
Q 444 2966 439 3070 
Q 434 3175 431 3258 
Q 428 3341 422 3381 
L 1259 3381 
Q 1266 3344 1272 3261 
Q 1278 3178 1284 3078 
Q 1291 2978 1295 2878 
Q 1300 2778 1300 2709 
L 1313 2709 
Q 1491 3097 1759 3272 
Q 2028 3447 2400 3447 
Q 2706 3447 2917 3347 
Q 3128 3247 3261 3072 
Q 3394 2897 3453 2659 
Q 3513 2422 3513 2147 
L 3513 0 
L 2638 0 
z
" transform="scale(0.015625)"/>
      <path id="LiberationSans-Bold-6b" d="M 2606 0 
L 1703 1531 
L 1325 1269 
L 1325 0 
L 447 0 
L 447 4638 
L 1325 4638 
L 1325 1981 
L 2531 3381 
L 3475 3381 
L 2288 2063 
L 3566 0 
L 2606 0 
z
" transform="scale(0.015625)"/>
      <path id="LiberationSans-Bold-65" d="M 1831 -63 
Q 1466 -63 1173 45 
Q 881 153 675 373 
Q 469 594 359 926 
Q 250 1259 250 1706 
Q 250 2191 379 2522 
Q 509 2853 729 3058 
Q 950 3263 1237 3353 
Q 1525 3444 1844 3444 
Q 2244 3444 2526 3305 
Q 2809 3166 2990 2916 
Q 3172 2666 3256 2317 
Q 3341 1969 3341 1547 
L 3341 1522 
L 1172 1522 
Q 1172 1309 1209 1126 
Q 1247 944 1331 811 
Q 1416 678 1550 601 
Q 1684 525 1875 525 
Q 2106 525 2253 623 
Q 2400 722 2463 928 
L 3291 856 
Q 3234 713 3132 550 
Q 3031 388 2862 252 
Q 2694 116 2442 26 
Q 2191 -63 1831 -63 
z
M 1831 2891 
Q 1697 2891 1580 2845 
Q 1463 2800 1377 2701 
Q 1291 2603 1237 2447 
Q 1184 2291 1178 2072 
L 2491 2072 
Q 2466 2481 2294 2686 
Q 2122 2891 1831 2891 
z
" transform="scale(0.015625)"/>
      <path id="LiberationSans-Bold-63" d="M 1856 -63 
Q 1453 -63 1151 62 
Q 850 188 650 416 
Q 450 644 350 964 
Q 250 1284 250 1672 
Q 250 2094 359 2423 
Q 469 2753 675 2979 
Q 881 3206 1182 3325 
Q 1484 3444 1869 3444 
Q 2197 3444 2451 3356 
Q 2706 3269 2890 3117 
Q 3075 2966 3189 2759 
Q 3303 2553 3347 2316 
L 2463 2272 
Q 2425 2531 2275 2686 
Q 2125 2841 1850 2841 
Q 1497 2841 1334 2550 
Q 1172 2259 1172 1706 
Q 1172 538 1863 538 
Q 2113 538 2281 695 
Q 2450 853 2491 1166 
L 3372 1125 
Q 3341 891 3230 677 
Q 3119 463 2930 298 
Q 2741 134 2472 35 
Q 2203 -63 1856 -63 
z
" transform="scale(0.015625)"/>
      <path id="LiberationSans-Bold-68" d="M 1313 2706 
Q 1491 3094 1759 3269 
Q 2028 3444 2400 3444 
Q 2706 3444 2917 3344 
Q 3128 3244 3261 3069 
Q 3394 2894 3453 2656 
Q 3513 2419 3513 2144 
L 3513 0 
L 2638 0 
L 2638 1894 
Q 2638 2091 2606 2255 
Q 2575 2419 2503 2536 
Q 2431 2653 2315 2718 
Q 2200 2784 2034 2784 
Q 1875 2784 1745 2714 
Q 1616 2644 1522 2514 
Q 1428 2384 1376 2204 
Q 1325 2025 1325 1809 
L 1325 0 
L 447 0 
L 447 4638 
L 1325 4638 
L 1325 3372 
Q 1325 3272 1322 3170 
Q 1319 3069 1314 2980 
Q 1309 2891 1306 2819 
Q 1303 2747 1300 2706 
L 1313 2706 
z
" transform="scale(0.015625)"/>
      <path id="LiberationSans-Bold-6f" d="M 3659 1694 
Q 3659 1306 3551 984 
Q 3444 663 3228 430 
Q 3013 197 2691 67 
Q 2369 -63 1941 -63 
Q 1528 -63 1212 65 
Q 897 194 683 425 
Q 469 656 359 979 
Q 250 1303 250 1694 
Q 250 2072 354 2392 
Q 459 2713 671 2947 
Q 884 3181 1206 3312 
Q 1528 3444 1959 3444 
Q 2416 3444 2737 3312 
Q 3059 3181 3264 2948 
Q 3469 2716 3564 2395 
Q 3659 2075 3659 1694 
z
M 2741 1694 
Q 2741 2297 2544 2569 
Q 2347 2841 1972 2841 
Q 1584 2841 1378 2566 
Q 1172 2291 1172 1694 
Q 1172 1391 1226 1172 
Q 1281 953 1381 812 
Q 1481 672 1622 605 
Q 1763 538 1931 538 
Q 2125 538 2276 605 
Q 2428 672 2531 812 
Q 2634 953 2687 1172 
Q 2741 1391 2741 1694 
z
" transform="scale(0.015625)"/>
      <path id="LiberationSans-Bold-6c" d="M 447 0 
L 447 4638 
L 1325 4638 
L 1325 0 
L 447 0 
z
" transform="scale(0.015625)"/>
      <path id="LiberationSans-Bold-67" d="M 1863 -1356 
Q 1528 -1356 1273 -1289 
Q 1019 -1222 839 -1101 
Q 659 -981 551 -814 
Q 444 -647 403 -447 
L 1281 -344 
Q 1328 -547 1483 -662 
Q 1638 -778 1888 -778 
Q 2044 -778 2173 -734 
Q 2303 -691 2395 -586 
Q 2488 -481 2539 -309 
Q 2591 -138 2591 116 
Q 2591 203 2591 293 
Q 2591 384 2594 459 
Q 2597 547 2597 628 
L 2591 628 
Q 2438 300 2161 153 
Q 1884 6 1503 6 
Q 1181 6 948 132 
Q 716 259 562 486 
Q 409 713 336 1027 
Q 263 1341 263 1719 
Q 263 2109 341 2426 
Q 419 2744 580 2972 
Q 741 3200 986 3323 
Q 1231 3447 1569 3447 
Q 1906 3447 2173 3303 
Q 2441 3159 2591 2838 
L 2606 2838 
Q 2606 2903 2611 2989 
Q 2616 3075 2622 3154 
Q 2628 3234 2636 3296 
Q 2644 3359 2650 3381 
L 3481 3381 
Q 3475 3269 3469 3066 
Q 3463 2863 3463 2600 
L 3463 103 
Q 3463 -266 3356 -539 
Q 3250 -813 3045 -994 
Q 2841 -1175 2542 -1265 
Q 2244 -1356 1863 -1356 
z
M 2597 1738 
Q 2597 2056 2534 2268 
Q 2472 2481 2372 2609 
Q 2272 2738 2142 2791 
Q 2013 2844 1881 2844 
Q 1713 2844 1583 2778 
Q 1453 2713 1362 2575 
Q 1272 2438 1225 2225 
Q 1178 2013 1178 1719 
Q 1178 1172 1353 894 
Q 1528 616 1875 616 
Q 2006 616 2136 667 
Q 2266 719 2369 848 
Q 2472 978 2534 1193 
Q 2597 1409 2597 1738 
z
" transform="scale(0.015625)"/>
      <path id="LiberationSans-Bold-79" d="M 1825 753 
L 2606 3381 
L 3525 3381 
L 2188 -178 
Q 1934 -794 1663 -1050 
Q 1366 -1328 884 -1328 
Q 569 -1328 331 -1288 
L 331 -663 
Q 497 -688 630 -688 
Q 763 -688 863 -659 
Q 963 -631 1044 -566 
Q 1203 -434 1331 -116 
L 1388 34 
L 50 3381 
L 978 3381 
L 1825 753 
z
" transform="scale(0.015625)"/>
      <path id="LiberationSans-Bold-4d" d="M 4084 0 
L 4084 2669 
Q 4084 2828 4089 2997 
Q 4094 3166 4100 3306 
Q 4109 3472 4116 3628 
Q 4050 3381 3991 3159 
Q 3966 3066 3937 2966 
Q 3909 2866 3882 2772 
Q 3856 2678 3831 2597 
Q 3806 2516 3788 2456 
L 2994 0 
L 2338 0 
L 1544 2456 
Q 1525 2516 1501 2597 
Q 1478 2678 1451 2772 
Q 1425 2866 1397 2966 
Q 1369 3066 1341 3159 
Q 1278 3381 1209 3628 
Q 1219 3447 1228 3272 
Q 1234 3122 1240 2956 
Q 1247 2791 1247 2669 
L 1247 0 
L 428 0 
L 428 4403 
L 1663 4403 
L 2450 1941 
Q 2481 1844 2517 1703 
Q 2553 1563 2588 1431 
Q 2625 1278 2669 1113 
Q 2713 1275 2753 1425 
Q 2772 1491 2790 1559 
Q 2809 1628 2828 1693 
Q 2847 1759 2865 1818 
Q 2884 1878 2900 1925 
L 3675 4403 
L 4903 4403 
L 4903 0 
L 4084 0 
z
" transform="scale(0.015625)"/>
      <path id="LiberationSans-Bold-41" d="M 3541 0 
L 3150 1125 
L 1472 1125 
L 1081 0 
L 159 0 
L 1766 4403 
L 2853 4403 
L 4453 0 
L 3541 0 
z
M 2509 3084 
Q 2472 3194 2436 3305 
Q 2400 3416 2373 3508 
Q 2347 3600 2330 3659 
Q 2313 3719 2309 3725 
Q 2306 3716 2290 3656 
Q 2275 3597 2248 3506 
Q 2222 3416 2186 3305 
Q 2150 3194 2113 3084 
L 1678 1819 
L 2944 1819 
L 2509 3084 
z
" transform="scale(0.015625)"/>
      <path id="LiberationSans-Bold-6d" d="M 2438 0 
L 2438 1897 
Q 2438 2094 2411 2258 
Q 2384 2422 2323 2539 
Q 2263 2656 2164 2722 
Q 2066 2788 1925 2788 
Q 1791 2788 1681 2717 
Q 1572 2647 1492 2517 
Q 1413 2388 1369 2208 
Q 1325 2028 1325 1813 
L 1325 0 
L 447 0 
L 447 2625 
Q 447 2734 445 2850 
Q 444 2966 439 3070 
Q 434 3175 431 3258 
Q 428 3341 422 3381 
L 1259 3381 
Q 1266 3344 1272 3261 
Q 1278 3178 1284 3078 
Q 1291 2978 1295 2878 
Q 1300 2778 1300 2709 
L 1313 2709 
Q 1475 3097 1717 3272 
Q 1959 3447 2297 3447 
Q 2684 3447 2920 3258 
Q 3156 3069 3238 2709 
L 3256 2709 
Q 3347 2919 3451 3059 
Q 3556 3200 3682 3286 
Q 3809 3372 3957 3409 
Q 4106 3447 4281 3447 
Q 4559 3447 4751 3347 
Q 4944 3247 5064 3072 
Q 5184 2897 5239 2659 
Q 5294 2422 5294 2147 
L 5294 0 
L 4422 0 
L 4422 1897 
Q 4422 2094 4395 2258 
Q 4369 2422 4308 2539 
Q 4247 2656 4148 2722 
Q 4050 2788 3909 2788 
Q 3778 2788 3670 2720 
Q 3563 2653 3483 2529 
Q 3403 2406 3359 2234 
Q 3316 2063 3309 1853 
L 3309 0 
L 2438 0 
z
" transform="scale(0.015625)"/>
     </defs>
     <use xlink:href="#LiberationSans-Bold-54"/>
     <use xlink:href="#LiberationSans-Bold-72" transform="translate(55.583984 0)"/>
     <use xlink:href="#LiberationSans-Bold-75" transform="translate(94.5 0)"/>
     <use xlink:href="#LiberationSans-Bold-69" transform="translate(155.583984 0)"/>
     <use xlink:href="#LiberationSans-Bold-73" transform="translate(183.367188 0)"/>
     <use xlink:href="#LiberationSans-Bold-74" transform="translate(238.982422 0)"/>
     <use xlink:href="#LiberationSans-Bold-20" transform="translate(272.283203 0)"/>
     <use xlink:href="#LiberationSans-Bold-42" transform="translate(300.066406 0)"/>
     <use xlink:href="#LiberationSans-Bold-61" transform="translate(372.283203 0)"/>
     <use xlink:href="#LiberationSans-Bold-6e" transform="translate(427.898438 0)"/>
     <use xlink:href="#LiberationSans-Bold-6b" transform="translate(488.982422 0)"/>
     <use xlink:href="#LiberationSans-Bold-20" transform="translate(544.597656 0)"/>
     <use xlink:href="#LiberationSans-Bold-54" transform="translate(572.380859 0)"/>
     <use xlink:href="#LiberationSans-Bold-65" transform="translate(626.089844 0)"/>
     <use xlink:href="#LiberationSans-Bold-63" transform="translate(681.705078 0)"/>
     <use xlink:href="#LiberationSans-Bold-68" transform="translate(737.320312 0)"/>
     <use xlink:href="#LiberationSans-Bold-6e" transform="translate(798.404297 0)"/>
     <use xlink:href="#LiberationSans-Bold-6f" transform="translate(859.488281 0)"/>
     <use xlink:href="#LiberationSans-Bold-6c" transform="translate(920.572266 0)"/>
     <use xlink:href="#LiberationSans-Bold-6f" transform="translate(948.355469 0)"/>
     <use xlink:href="#LiberationSans-Bold-67" transform="translate(1009.439453 0)"/>
     <use xlink:href="#LiberationSans-Bold-79" transform="translate(1070.523438 0)"/>
     <use xlink:href="#LiberationSans-Bold-20" transform="translate(1126.138672 0)"/>
     <use xlink:href="#LiberationSans-Bold-4d" transform="translate(1153.921875 0)"/>
     <use xlink:href="#LiberationSans-Bold-61" transform="translate(1237.222656 0)"/>
     <use xlink:href="#LiberationSans-Bold-74" transform="translate(1292.837891 0)"/>
     <use xlink:href="#LiberationSans-Bold-75" transform="translate(1326.138672 0)"/>
     <use xlink:href="#LiberationSans-Bold-72" transform="translate(1387.222656 0)"/>
     <use xlink:href="#LiberationSans-Bold-69" transform="translate(1426.138672 0)"/>
     <use xlink:href="#LiberationSans-Bold-74" transform="translate(1453.921875 0)"/>
     <use xlink:href="#LiberationSans-Bold-79" transform="translate(1487.222656 0)"/>
     <use xlink:href="#LiberationSans-Bold-20" transform="translate(1542.837891 0)"/>
     <use xlink:href="#LiberationSans-Bold-41" transform="translate(1566.871094 0)"/>
     <use xlink:href="#LiberationSans-Bold-73" transform="translate(1639.087891 0)"/>
     <use xlink:href="#LiberationSans-Bold-73" transform="translate(1694.703125 0)"/>
     <use xlink:href="#LiberationSans-Bold-65" transform="translate(1750.318359 0)"/>
     <use xlink:href="#LiberationSans-Bold-73" transform="translate(1805.933594 0)"/>
     <use xlink:href="#LiberationSans-Bold-73" transform="translate(1861.548828 0)"/>
     <use xlink:href="#LiberationSans-Bold-6d" transform="translate(1917.164062 0)"/>
     <use xlink:href="#LiberationSans-Bold-65" transform="translate(2006.080078 0)"/>
     <use xlink:href="#LiberationSans-Bold-6e" transform="translate(2061.695312 0)"/>
     <use xlink:href="#LiberationSans-Bold-74" transform="translate(2122.779297 0)"/>
    </g>
    <!-- Cognizant Consulting Framework -->
    <g transform="translate(188.063984 36.099) scale(0.16 -0.16)">
     <defs>
      <path id="LiberationSans-Bold-43" d="M 2484 663 
Q 2744 663 2933 736 
Q 3122 809 3261 928 
Q 3400 1047 3492 1197 
Q 3584 1347 3644 1500 
L 4447 1197 
Q 4350 959 4194 731 
Q 4038 503 3803 328 
Q 3569 153 3245 45 
Q 2922 -63 2484 -63 
Q 1913 -63 1494 107 
Q 1075 278 801 583 
Q 528 888 395 1306 
Q 263 1725 263 2222 
Q 263 2738 395 3153 
Q 528 3569 797 3861 
Q 1066 4153 1477 4311 
Q 1888 4469 2444 4469 
Q 2875 4469 3198 4378 
Q 3522 4288 3758 4123 
Q 3994 3959 4148 3736 
Q 4303 3513 4391 3244 
L 3578 3022 
Q 3534 3163 3443 3292 
Q 3353 3422 3214 3522 
Q 3075 3622 2887 3683 
Q 2700 3744 2463 3744 
Q 2128 3744 1887 3636 
Q 1647 3528 1492 3328 
Q 1338 3128 1264 2848 
Q 1191 2569 1191 2222 
Q 1191 1878 1264 1592 
Q 1338 1306 1494 1100 
Q 1650 894 1895 778 
Q 2141 663 2484 663 
z
" transform="scale(0.015625)"/>
      <path id="LiberationSans-Bold-7a" d="M 213 0 
L 213 622 
L 1900 2747 
L 341 2747 
L 341 3381 
L 2869 3381 
L 2869 2753 
L 1191 641 
L 3022 641 
L 3022 0 
L 213 0 
z
" transform="scale(0.015625)"/>
      <path id="LiberationSans-Bold-46" d="M 1350 3691 
L 1350 2328 
L 3603 2328 
L 3603 1616 
L 1350 1616 
L 1350 0 
L 428 0 
L 428 4403 
L 3675 4403 
L 3675 3691 
L 1350 3691 
z
" transform="scale(0.015625)"/>
      <path id="LiberationSans-Bold-77" d="M 1363 797 
L 2016 3381 
L 2956 3381 
L 3603 797 
L 4178 3381 
L 4991 3381 
L 4103 0 
L 3175 0 
L 2491 2756 
L 1784 0 
L 856 0 
L -19 3381 
L 806 3381 
L 1363 797 
z
" transform="scale(0.015625)"/>
     </defs>
     <use xlink:href="#LiberationSans-Bold-43"/>
     <use xlink:href="#LiberationSans-Bold-6f" transform="translate(72.216797 0)"/>
     <use xlink:href="#LiberationSans-Bold-67" transform="translate(133.300781 0)"/>
     <use xlink:href="#LiberationSans-Bold-6e" transform="translate(194.384766 0)"/>
     <use xlink:href="#LiberationSans-Bold-69" transform="translate(255.46875 0)"/>
     <use xlink:href="#LiberationSans-Bold-7a" transform="translate(283.251953 0)"/>
     <use xlink:href="#LiberationSans-Bold-61" transform="translate(333.251953 0)"/>
     <use xlink:href="#LiberationSans-Bold-6e" transform="translate(388.867188 0)"/>
     <use xlink:href="#LiberationSans-Bold-74" transform="translate(449.951172 0)"/>
     <use xlink:href="#LiberationSans-Bold-20" transform="translate(483.251953 0)"/>
     <use xlink:href="#LiberationSans-Bold-43" transform="translate(511.035156 0)"/>
     <use xlink:href="#LiberationSans-Bold-6f" transform="translate(583.251953 0)"/>
     <use xlink:href="#LiberationSans-Bold-6e" transform="translate(644.335938 0)"/>
     <use xlink:href="#LiberationSans-Bold-73" transform="translate(705.419922 0)"/>
     <use xlink:href="#LiberationSans-Bold-75" transform="translate(761.035156 0)"/>
     <use xlink:href="#LiberationSans-Bold-6c" transform="translate(822.119141 0)"/>
     <use xlink:href="#LiberationSans-Bold-74" transform="translate(849.902344 0)"/>
     <use xlink:href="#LiberationSans-Bold-69" transform="translate(883.203125 0)"/>
     <use xlink:href="#LiberationSans-Bold-6e" transform="translate(910.986328 0)"/>
     <use xlink:href="#LiberationSans-Bold-67" transform="translate(972.070312 0)"/>
     <use xlink:href="#LiberationSans-Bold-20" transform="translate(1033.154297 0)"/>
     <use xlink:href="#LiberationSans-Bold-46" transform="translate(1060.9375 0)"/>
     <use xlink:href="#LiberationSans-Bold-72" transform="translate(1122.021484 0)"/>
     <use xlink:href="#LiberationSans-Bold-61" transform="translate(1160.9375 0)"/>
     <use xlink:href="#LiberationSans-Bold-6d" transform="translate(1216.552734 0)"/>
     <use xlink:href="#LiberationSans-Bold-65" transform="translate(1305.46875 0)"/>
     <use xlink:href="#LiberationSans-Bold-77" transform="translate(1361.083984 0)"/>
     <use xlink:href="#LiberationSans-Bold-6f" transform="translate(1438.867188 0)"/>
     <use xlink:href="#LiberationSans-Bold-72" transform="translate(1499.951172 0)"/>
     <use xlink:href="#LiberationSans-Bold-6b" transform="translate(1538.867188 0)"/>
    </g>
   </g>
   <g id="legend_1">
    <g id="line2d_13">
     <path d="M 555.100484 94.76765 
L 567.100484 94.76765 
L 579.100484 94.76765 
" style="fill: none; stroke: #e74c3c; stroke-width: 3; stroke-linecap: round"/>
     <g>
      <use xlink:href="#mfe3a2b69b6" x="567.100484" y="94.76765" style="fill: #e74c3c"/>
     </g>
    </g>
    <g id="text_15">
     <!-- Current State -->
     <g style="fill: #262626" transform="translate(588.700484 98.96765) scale(0.12 -0.12)">
      <defs>
       <path id="LiberationSans-53" d="M 3975 1216 
Q 3975 938 3867 703 
Q 3759 469 3534 298 
Q 3309 128 2967 32 
Q 2625 -63 2156 -63 
Q 1334 -63 875 225 
Q 416 513 291 1056 
L 869 1172 
Q 913 1000 1003 859 
Q 1094 719 1248 617 
Q 1403 516 1631 459 
Q 1859 403 2178 403 
Q 2444 403 2666 448 
Q 2888 494 3047 587 
Q 3206 681 3295 829 
Q 3384 978 3384 1184 
Q 3384 1400 3286 1534 
Q 3188 1669 3009 1756 
Q 2831 1844 2584 1903 
Q 2338 1963 2038 2031 
Q 1853 2072 1667 2120 
Q 1481 2169 1311 2236 
Q 1141 2303 991 2393 
Q 841 2484 731 2611 
Q 622 2738 559 2905 
Q 497 3072 497 3291 
Q 497 3603 623 3826 
Q 750 4050 975 4194 
Q 1200 4338 1506 4403 
Q 1813 4469 2169 4469 
Q 2578 4469 2868 4405 
Q 3159 4341 3359 4212 
Q 3559 4084 3679 3895 
Q 3800 3706 3872 3456 
L 3284 3353 
Q 3241 3513 3158 3638 
Q 3075 3763 2940 3847 
Q 2806 3931 2614 3975 
Q 2422 4019 2163 4019 
Q 1856 4019 1648 3964 
Q 1441 3909 1314 3815 
Q 1188 3722 1133 3595 
Q 1078 3469 1078 3322 
Q 1078 3125 1176 2998 
Q 1275 2872 1444 2787 
Q 1613 2703 1834 2647 
Q 2056 2591 2306 2534 
Q 2509 2488 2711 2439 
Q 2913 2391 3097 2323 
Q 3281 2256 3442 2165 
Q 3603 2075 3722 1944 
Q 3841 1813 3908 1634 
Q 3975 1456 3975 1216 
z
" transform="scale(0.015625)"/>
      </defs>
      <use xlink:href="#LiberationSans-43"/>
      <use xlink:href="#LiberationSans-75" transform="translate(72.216797 0)"/>
      <use xlink:href="#LiberationSans-72" transform="translate(127.832031 0)"/>
      <use xlink:href="#LiberationSans-72" transform="translate(161.132812 0)"/>
      <use xlink:href="#LiberationSans-65" transform="translate(194.433594 0)"/>
      <use xlink:href="#LiberationSans-6e" transform="translate(250.048828 0)"/>
      <use xlink:href="#LiberationSans-74" transform="translate(305.664062 0)"/>
      <use xlink:href="#LiberationSans-20" transform="translate(333.447266 0)"/>
      <use xlink:href="#LiberationSans-53" transform="translate(361.230469 0)"/>
      <use xlink:href="#LiberationSans-74" transform="translate(427.929688 0)"/>
      <use xlink:href="#LiberationSans-61" transform="translate(455.712891 0)"/>
      <use xlink:href="#LiberationSans-74" transform="translate(511.328125 0)"/>
      <use xlink:href="#LiberationSans-65" transform="translate(539.111328 0)"/>
     </g>
    </g>
    <g id="line2d_14">
     <path d="M 555.100484 111.9539 
L 567.100484 111.9539 
L 579.100484 111.9539 
" style="fill: none; stroke: #27ae60; stroke-width: 3; stroke-linecap: round"/>
     <g>
      <use xlink:href="#mc0c943a367" x="567.100484" y="111.9539" style="fill: #27ae60"/>
     </g>
    </g>
    <g id="text_16">
     <!-- Target State -->
     <g style="fill: #262626" transform="translate(588.700484 116.1539) scale(0.12 -0.12)">
      <use xlink:href="#LiberationSans-54"/>
      <use xlink:href="#LiberationSans-61" transform="translate(49.958984 0)"/>
      <use xlink:href="#LiberationSans-72" transform="translate(105.574219 0)"/>
      <use xlink:href="#LiberationSans-67" transform="translate(138.875 0)"/>
      <use xlink:href="#LiberationSans-65" transform="translate(194.490234 0)"/>
      <use xlink:href="#LiberationSans-74" transform="translate(250.105469 0)"/>
      <use xlink:href="#LiberationSans-20" transform="translate(277.888672 0)"/>
      <use xlink:href="#LiberationSans-53" transform="translate(305.671875 0)"/>
      <use xlink:href="#LiberationSans-74" transform="translate(372.371094 0)"/>
      <use xlink:href="#LiberationSans-61" transform="translate(400.154297 0)"/>
      <use xlink:href="#LiberationSans-74" transform="translate(455.769531 0)"/>
      <use xlink:href="#LiberationSans-65" transform="translate(483.552734 0)"/>
     </g>
    </g>
    <g id="line2d_15">
     <path d="M 555.100484 129.14015 
L 567.100484 129.14015 
L 579.100484 129.14015 
" style="fill: none; stroke: #3498db; stroke-width: 2; stroke-linecap: round"/>
     <g>
      <use xlink:href="#m59484e6319" x="567.100484" y="129.14015" style="fill: #3498db"/>
     </g>
    </g>
    <g id="text_17">
     <!-- Industry Average -->
     <g style="fill: #262626" transform="translate(588.700484 133.34015) scale(0.12 -0.12)">
      <defs>
       <path id="LiberationSans-64" d="M 2566 544 
Q 2409 219 2151 78 
Q 1894 -63 1513 -63 
Q 872 -63 570 368 
Q 269 800 269 1675 
Q 269 3444 1513 3444 
Q 1897 3444 2153 3303 
Q 2409 3163 2566 2856 
L 2572 2856 
Q 2572 2888 2570 2955 
Q 2569 3022 2567 3095 
Q 2566 3169 2566 3234 
Q 2566 3300 2566 3328 
L 2566 4638 
L 3128 4638 
L 3128 697 
Q 3128 575 3129 462 
Q 3131 350 3134 256 
Q 3138 163 3141 95 
Q 3144 28 3147 0 
L 2609 0 
Q 2603 31 2598 89 
Q 2594 147 2589 222 
Q 2584 297 2581 380 
Q 2578 463 2578 544 
L 2566 544 
z
M 859 1694 
Q 859 1344 903 1094 
Q 947 844 1044 683 
Q 1141 522 1291 447 
Q 1441 372 1656 372 
Q 1878 372 2048 444 
Q 2219 516 2333 677 
Q 2447 838 2506 1097 
Q 2566 1356 2566 1731 
Q 2566 2091 2506 2339 
Q 2447 2588 2331 2741 
Q 2216 2894 2048 2961 
Q 1881 3028 1663 3028 
Q 1456 3028 1306 2956 
Q 1156 2884 1056 2725 
Q 956 2566 907 2311 
Q 859 2056 859 1694 
z
" transform="scale(0.015625)"/>
      </defs>
      <use xlink:href="#LiberationSans-49"/>
      <use xlink:href="#LiberationSans-6e" transform="translate(27.783203 0)"/>
      <use xlink:href="#LiberationSans-64" transform="translate(83.398438 0)"/>
      <use xlink:href="#LiberationSans-75" transform="translate(139.013672 0)"/>
      <use xlink:href="#LiberationSans-73" transform="translate(194.628906 0)"/>
      <use xlink:href="#LiberationSans-74" transform="translate(244.628906 0)"/>
      <use xlink:href="#LiberationSans-72" transform="translate(272.412109 0)"/>
      <use xlink:href="#LiberationSans-79" transform="translate(305.712891 0)"/>
      <use xlink:href="#LiberationSans-20" transform="translate(355.712891 0)"/>
      <use xlink:href="#LiberationSans-41" transform="translate(377.996094 0)"/>
      <use xlink:href="#LiberationSans-76" transform="translate(442.945312 0)"/>
      <use xlink:href="#LiberationSans-65" transform="translate(492.945312 0)"/>
      <use xlink:href="#LiberationSans-72" transform="translate(548.560547 0)"/>
      <use xlink:href="#LiberationSans-61" transform="translate(581.861328 0)"/>
      <use xlink:href="#LiberationSans-67" transform="translate(637.476562 0)"/>
      <use xlink:href="#LiberationSans-65" transform="translate(693.091797 0)"/>
     </g>
    </g>
   </g>
  </g>
 </g>
 <defs>
  <clipPath id="p4a381d42e2">
   <path d="M 549.192734 313.0489 
C 549.192734 282.375784 543.150799 252.000925 531.412706 223.662661 
C 519.674612 195.324396 502.468637 169.573834 480.779469 147.884666 
C 459.0903 126.195497 433.339738 108.989522 405.001474 97.251428 
C 376.663209 85.513335 346.288351 79.4714 315.615234 79.4714 
C 284.942118 79.4714 254.567259 85.513335 226.228995 97.251428 
C 197.890731 108.989522 172.140169 126.195497 150.451 147.884666 
C 128.761832 169.573834 111.555856 195.324396 99.817763 223.662661 
C 88.079669 252.000925 82.037734 282.375784 82.037734 313.0489 
C 82.037734 343.722016 88.079669 374.096875 99.817763 402.435139 
C 111.555856 430.773404 128.761832 456.523966 150.451 478.213134 
C 172.140169 499.902303 197.890731 517.108278 226.228995 528.846372 
C 254.567259 540.584465 284.942118 546.6264 315.615234 546.6264 
C 346.288351 546.6264 376.663209 540.584465 405.001474 528.846372 
C 433.339738 517.108278 459.0903 499.902303 480.779469 478.213134 
C 502.468637 456.523966 519.674612 430.773404 531.412706 402.435139 
C 543.150799 374.096875 549.192734 343.722016 549.192734 313.0489 
M 315.615234 313.0489 
C 315.615234 313.0489 315.615234 313.0489 315.615234 313.0489 
C 315.615234 313.0489 315.615234 313.0489 315.615234 313.0489 
C 315.615234 313.0489 315.615234 313.0489 315.615234 313.0489 
C 315.615234 313.0489 315.615234 313.0489 315.615234 313.0489 
C 315.615234 313.0489 315.615234 313.0489 315.615234 313.0489 
C 315.615234 313.0489 315.615234 313.0489 315.615234 313.0489 
C 315.615234 313.0489 315.615234 313.0489 315.615234 313.0489 
C 315.615234 313.0489 315.615234 313.0489 315.615234 313.0489 
C 315.615234 313.0489 315.615234 313.0489 315.615234 313.0489 
C 315.615234 313.0489 315.615234 313.0489 315.615234 313.0489 
C 315.615234 313.0489 315.615234 313.0489 315.615234 313.0489 
C 315.615234 313.0489 315.615234 313.0489 315.615234 313.0489 
C 315.615234 313.0489 315.615234 313.0489 315.615234 313.0489 
C 315.615234 313.0489 315.615234 313.0489 315.615234 313.0489 
C 315.615234 313.0489 315.615234 313.0489 315.615234 313.0489 
C 315.615234 313.0489 315.615234 313.0489 315.615234 313.0489 
z
"/>
  </clipPath>
 </defs>
</svg>
