<?xml version="1.0" encoding="utf-8" standalone="no"?>
<!DOCTYPE svg PUBLIC "-//W3C//DTD SVG 1.1//EN"
  "http://www.w3.org/Graphics/SVG/1.1/DTD/svg11.dtd">
<svg xmlns:xlink="http://www.w3.org/1999/xlink" width="1001.271562pt" height="425.336714pt" viewBox="0 0 1001.271562 425.336714" xmlns="http://www.w3.org/2000/svg" version="1.1">
 <metadata>
  <rdf:RDF xmlns:dc="http://purl.org/dc/elements/1.1/" xmlns:cc="http://creativecommons.org/ns#" xmlns:rdf="http://www.w3.org/1999/02/22-rdf-syntax-ns#">
   <cc:Work>
    <dc:type rdf:resource="http://purl.org/dc/dcmitype/StillImage"/>
    <dc:date>2025-11-14T20:45:42.999739</dc:date>
    <dc:format>image/svg+xml</dc:format>
    <dc:creator>
     <cc:Agent>
      <dc:title>Matplotlib v3.10.7, https://matplotlib.org/</dc:title>
     </cc:Agent>
    </dc:creator>
   </cc:Work>
  </rdf:RDF>
 </metadata>
 <defs>
  <style type="text/css">*{stroke-linejoin: round; stroke-linecap: butt}</style>
 </defs>
 <g id="figure_1">
  <g id="patch_1">
   <path d="M 0 425.336714 
L 1001.271562 425.336714 
L 1001.271562 0 
L 0 0 
z
" style="fill: #ffffff"/>
  </g>
  <g id="axes_1">
   <g id="patch_2">
    <path d="M 46.121563 340.964606 
L 498.171563 340.964606 
L 498.171563 23.345625 
L 46.121563 23.345625 
z
" style="fill: #eaeaf2"/>
   </g>
   <g id="matplotlib.axis_1">
    <g id="xtick_1">
     <g id="line2d_1">
      <path d="M 105.543368 340.964606 
L 105.543368 23.345625 
" clip-path="url(#pea92e25f46)" style="fill: none; stroke: #ffffff; stroke-opacity: 0.3; stroke-linecap: round"/>
     </g>
     <g id="line2d_2"/>
     <g id="text_1">
      <!-- Customer Data -->
      <g style="fill: #262626" transform="translate(83.598199 400.636327) rotate(-45) scale(0.1 -0.1)">
       <defs>
        <path id="LiberationSans-43" d="M 2475 3981 
Q 2100 3981 1811 3856 
Q 1522 3731 1326 3500 
Q 1131 3269 1031 2944 
Q 931 2619 931 2222 
Q 931 1825 1039 1495 
Q 1147 1166 1348 928 
Q 1550 691 1842 559 
Q 2134 428 2500 428 
Q 2756 428 2967 495 
Q 3178 563 3348 684 
Q 3519 806 3653 973 
Q 3788 1141 3891 1344 
L 4378 1100 
Q 4259 853 4084 640 
Q 3909 428 3673 272 
Q 3438 116 3139 26 
Q 2841 -63 2472 -63 
Q 1938 -63 1536 107 
Q 1134 278 864 583 
Q 594 888 459 1306 
Q 325 1725 325 2222 
Q 325 2738 467 3153 
Q 609 3569 882 3861 
Q 1156 4153 1556 4311 
Q 1956 4469 2469 4469 
Q 3172 4469 3644 4194 
Q 4116 3919 4338 3378 
L 3772 3191 
Q 3709 3347 3603 3489 
Q 3497 3631 3337 3740 
Q 3178 3850 2964 3915 
Q 2750 3981 2475 3981 
z
" transform="scale(0.015625)"/>
        <path id="LiberationSans-75" d="M 981 3381 
L 981 1238 
Q 981 991 1017 825 
Q 1053 659 1134 557 
Q 1216 456 1348 414 
Q 1481 372 1678 372 
Q 1878 372 2039 442 
Q 2200 513 2314 645 
Q 2428 778 2490 973 
Q 2553 1169 2553 1422 
L 2553 3381 
L 3116 3381 
L 3116 722 
Q 3116 616 3117 498 
Q 3119 381 3122 276 
Q 3125 172 3128 97 
Q 3131 22 3134 0 
L 2603 0 
Q 2600 16 2597 84 
Q 2594 153 2589 242 
Q 2584 331 2581 423 
Q 2578 516 2578 578 
L 2569 578 
Q 2488 431 2391 312 
Q 2294 194 2166 111 
Q 2038 28 1872 -17 
Q 1706 -63 1488 -63 
Q 1206 -63 1003 6 
Q 800 75 669 219 
Q 538 363 477 588 
Q 416 813 416 1128 
L 416 3381 
L 981 3381 
z
" transform="scale(0.015625)"/>
        <path id="LiberationSans-73" d="M 2969 934 
Q 2969 697 2876 511 
Q 2784 325 2609 198 
Q 2434 72 2179 4 
Q 1925 -63 1597 -63 
Q 1303 -63 1067 -17 
Q 831 28 653 128 
Q 475 228 354 392 
Q 234 556 178 794 
L 675 891 
Q 747 619 972 492 
Q 1197 366 1597 366 
Q 1778 366 1929 391 
Q 2081 416 2190 477 
Q 2300 538 2361 639 
Q 2422 741 2422 891 
Q 2422 1044 2350 1142 
Q 2278 1241 2150 1306 
Q 2022 1372 1839 1420 
Q 1656 1469 1438 1528 
Q 1234 1581 1034 1647 
Q 834 1713 673 1820 
Q 513 1928 413 2087 
Q 313 2247 313 2488 
Q 313 2950 642 3192 
Q 972 3434 1603 3434 
Q 2163 3434 2492 3237 
Q 2822 3041 2909 2606 
L 2403 2544 
Q 2375 2675 2300 2764 
Q 2225 2853 2119 2908 
Q 2013 2963 1880 2986 
Q 1747 3009 1603 3009 
Q 1222 3009 1040 2893 
Q 859 2778 859 2544 
Q 859 2406 926 2317 
Q 994 2228 1114 2167 
Q 1234 2106 1403 2061 
Q 1572 2016 1775 1966 
Q 1909 1931 2050 1892 
Q 2191 1853 2323 1798 
Q 2456 1744 2573 1670 
Q 2691 1597 2778 1494 
Q 2866 1391 2917 1253 
Q 2969 1116 2969 934 
z
" transform="scale(0.015625)"/>
        <path id="LiberationSans-74" d="M 1731 25 
Q 1603 -9 1470 -29 
Q 1338 -50 1163 -50 
Q 488 -50 488 716 
L 488 2972 
L 97 2972 
L 97 3381 
L 509 3381 
L 675 4138 
L 1050 4138 
L 1050 3381 
L 1675 3381 
L 1675 2972 
L 1050 2972 
L 1050 838 
Q 1050 594 1129 495 
Q 1209 397 1406 397 
Q 1488 397 1564 409 
Q 1641 422 1731 441 
L 1731 25 
z
" transform="scale(0.015625)"/>
        <path id="LiberationSans-6f" d="M 3291 1694 
Q 3291 806 2900 371 
Q 2509 -63 1766 -63 
Q 1413 -63 1134 43 
Q 856 150 664 369 
Q 472 588 370 917 
Q 269 1247 269 1694 
Q 269 3444 1784 3444 
Q 2178 3444 2464 3334 
Q 2750 3225 2933 3006 
Q 3116 2788 3203 2459 
Q 3291 2131 3291 1694 
z
M 2700 1694 
Q 2700 2088 2639 2344 
Q 2578 2600 2461 2753 
Q 2344 2906 2175 2967 
Q 2006 3028 1794 3028 
Q 1578 3028 1404 2964 
Q 1231 2900 1109 2745 
Q 988 2591 923 2334 
Q 859 2078 859 1694 
Q 859 1300 928 1042 
Q 997 784 1117 631 
Q 1238 478 1402 415 
Q 1566 353 1759 353 
Q 1975 353 2150 414 
Q 2325 475 2447 628 
Q 2569 781 2634 1040 
Q 2700 1300 2700 1694 
z
" transform="scale(0.015625)"/>
        <path id="LiberationSans-6d" d="M 2400 0 
L 2400 2144 
Q 2400 2391 2369 2556 
Q 2338 2722 2264 2823 
Q 2191 2925 2072 2967 
Q 1953 3009 1781 3009 
Q 1603 3009 1459 2939 
Q 1316 2869 1214 2736 
Q 1113 2603 1058 2408 
Q 1003 2213 1003 1959 
L 1003 0 
L 444 0 
L 444 2659 
Q 444 2766 442 2883 
Q 441 3000 437 3104 
Q 434 3209 431 3284 
Q 428 3359 425 3381 
L 956 3381 
Q 959 3366 962 3297 
Q 966 3228 970 3139 
Q 975 3050 978 2958 
Q 981 2866 981 2803 
L 991 2803 
Q 1066 2950 1153 3069 
Q 1241 3188 1358 3270 
Q 1475 3353 1626 3398 
Q 1778 3444 1978 3444 
Q 2363 3444 2586 3291 
Q 2809 3138 2897 2803 
L 2906 2803 
Q 2981 2950 3075 3069 
Q 3169 3188 3294 3270 
Q 3419 3353 3575 3398 
Q 3731 3444 3931 3444 
Q 4188 3444 4373 3375 
Q 4559 3306 4678 3162 
Q 4797 3019 4853 2792 
Q 4909 2566 4909 2253 
L 4909 0 
L 4353 0 
L 4353 2144 
Q 4353 2391 4322 2556 
Q 4291 2722 4217 2823 
Q 4144 2925 4025 2967 
Q 3906 3009 3734 3009 
Q 3556 3009 3412 2942 
Q 3269 2875 3167 2744 
Q 3066 2613 3011 2416 
Q 2956 2219 2956 1959 
L 2956 0 
L 2400 0 
z
" transform="scale(0.015625)"/>
        <path id="LiberationSans-65" d="M 863 1572 
Q 863 1306 917 1082 
Q 972 859 1086 698 
Q 1200 538 1378 448 
Q 1556 359 1806 359 
Q 2172 359 2392 506 
Q 2613 653 2691 878 
L 3184 738 
Q 3131 597 3036 455 
Q 2941 313 2781 198 
Q 2622 84 2383 10 
Q 2144 -63 1806 -63 
Q 1056 -63 664 384 
Q 272 831 272 1713 
Q 272 2188 390 2517 
Q 509 2847 715 3053 
Q 922 3259 1197 3351 
Q 1472 3444 1784 3444 
Q 2209 3444 2495 3306 
Q 2781 3169 2954 2926 
Q 3128 2684 3201 2356 
Q 3275 2028 3275 1647 
L 3275 1572 
L 863 1572 
z
M 2694 2003 
Q 2647 2538 2422 2783 
Q 2197 3028 1775 3028 
Q 1634 3028 1479 2983 
Q 1325 2938 1194 2822 
Q 1063 2706 972 2507 
Q 881 2309 869 2003 
L 2694 2003 
z
" transform="scale(0.015625)"/>
        <path id="LiberationSans-72" d="M 444 0 
L 444 2594 
Q 444 2700 442 2811 
Q 441 2922 437 3025 
Q 434 3128 431 3218 
Q 428 3309 425 3381 
L 956 3381 
Q 959 3309 964 3217 
Q 969 3125 973 3028 
Q 978 2931 979 2842 
Q 981 2753 981 2691 
L 994 2691 
Q 1053 2884 1120 3026 
Q 1188 3169 1278 3261 
Q 1369 3353 1494 3398 
Q 1619 3444 1797 3444 
Q 1866 3444 1928 3433 
Q 1991 3422 2025 3413 
L 2025 2897 
Q 1969 2913 1894 2920 
Q 1819 2928 1725 2928 
Q 1531 2928 1395 2840 
Q 1259 2753 1173 2598 
Q 1088 2444 1047 2230 
Q 1006 2016 1006 1763 
L 1006 0 
L 444 0 
z
" transform="scale(0.015625)"/>
        <path id="LiberationSans-20" transform="scale(0.015625)"/>
        <path id="LiberationSans-44" d="M 4316 2247 
Q 4316 1697 4150 1276 
Q 3984 856 3696 573 
Q 3409 291 3017 145 
Q 2625 0 2172 0 
L 525 0 
L 525 4403 
L 1981 4403 
Q 2491 4403 2920 4276 
Q 3350 4150 3659 3886 
Q 3969 3622 4142 3215 
Q 4316 2809 4316 2247 
z
M 3716 2247 
Q 3716 2694 3587 3011 
Q 3459 3328 3228 3531 
Q 2997 3734 2675 3829 
Q 2353 3925 1969 3925 
L 1122 3925 
L 1122 478 
L 2103 478 
Q 2450 478 2745 590 
Q 3041 703 3256 925 
Q 3472 1147 3594 1478 
Q 3716 1809 3716 2247 
z
" transform="scale(0.015625)"/>
        <path id="LiberationSans-61" d="M 1294 -63 
Q 784 -63 528 206 
Q 272 475 272 944 
Q 272 1278 398 1492 
Q 525 1706 729 1828 
Q 934 1950 1196 1997 
Q 1459 2044 1731 2050 
L 2491 2063 
L 2491 2247 
Q 2491 2456 2447 2603 
Q 2403 2750 2312 2840 
Q 2222 2931 2086 2973 
Q 1950 3016 1766 3016 
Q 1603 3016 1472 2992 
Q 1341 2969 1244 2908 
Q 1147 2847 1087 2742 
Q 1028 2638 1009 2478 
L 422 2531 
Q 453 2731 540 2898 
Q 628 3066 789 3187 
Q 950 3309 1192 3376 
Q 1434 3444 1778 3444 
Q 2416 3444 2737 3151 
Q 3059 2859 3059 2306 
L 3059 850 
Q 3059 600 3125 473 
Q 3191 347 3375 347 
Q 3422 347 3469 353 
Q 3516 359 3559 369 
L 3559 19 
Q 3453 -6 3348 -18 
Q 3244 -31 3125 -31 
Q 2966 -31 2852 11 
Q 2738 53 2666 139 
Q 2594 225 2556 351 
Q 2519 478 2509 647 
L 2491 647 
Q 2400 484 2292 353 
Q 2184 222 2040 130 
Q 1897 38 1714 -12 
Q 1531 -63 1294 -63 
z
M 1422 359 
Q 1691 359 1892 457 
Q 2094 556 2226 709 
Q 2359 863 2425 1044 
Q 2491 1225 2491 1391 
L 2491 1669 
L 1875 1656 
Q 1669 1653 1483 1626 
Q 1297 1600 1156 1522 
Q 1016 1444 933 1303 
Q 850 1163 850 934 
Q 850 659 998 509 
Q 1147 359 1422 359 
z
" transform="scale(0.015625)"/>
       </defs>
       <use xlink:href="#LiberationSans-43"/>
       <use xlink:href="#LiberationSans-75" transform="translate(72.216797 0)"/>
       <use xlink:href="#LiberationSans-73" transform="translate(127.832031 0)"/>
       <use xlink:href="#LiberationSans-74" transform="translate(177.832031 0)"/>
       <use xlink:href="#LiberationSans-6f" transform="translate(205.615234 0)"/>
       <use xlink:href="#LiberationSans-6d" transform="translate(261.230469 0)"/>
       <use xlink:href="#LiberationSans-65" transform="translate(344.53125 0)"/>
       <use xlink:href="#LiberationSans-72" transform="translate(400.146484 0)"/>
       <use xlink:href="#LiberationSans-20" transform="translate(433.447266 0)"/>
       <use xlink:href="#LiberationSans-44" transform="translate(461.230469 0)"/>
       <use xlink:href="#LiberationSans-61" transform="translate(533.447266 0)"/>
       <use xlink:href="#LiberationSans-74" transform="translate(589.0625 0)"/>
       <use xlink:href="#LiberationSans-61" transform="translate(616.845703 0)"/>
      </g>
     </g>
    </g>
    <g id="xtick_2">
     <g id="line2d_3">
      <path d="M 216.612164 340.964606 
L 216.612164 23.345625 
" clip-path="url(#pea92e25f46)" style="fill: none; stroke: #ffffff; stroke-opacity: 0.3; stroke-linecap: round"/>
     </g>
     <g id="line2d_4"/>
     <g id="text_2">
      <!-- Employee Data -->
      <g style="fill: #262626" transform="translate(194.2698 401.430717) rotate(-45) scale(0.1 -0.1)">
       <defs>
        <path id="LiberationSans-45" d="M 525 0 
L 525 4403 
L 3866 4403 
L 3866 3916 
L 1122 3916 
L 1122 2503 
L 3678 2503 
L 3678 2022 
L 1122 2022 
L 1122 488 
L 3994 488 
L 3994 0 
L 525 0 
z
" transform="scale(0.015625)"/>
        <path id="LiberationSans-70" d="M 3291 1706 
Q 3291 1322 3228 997 
Q 3166 672 3020 437 
Q 2875 203 2636 70 
Q 2397 -63 2047 -63 
Q 1684 -63 1412 75 
Q 1141 213 997 525 
L 981 525 
Q 984 519 986 469 
Q 988 419 989 344 
Q 991 269 992 176 
Q 994 84 994 -6 
L 994 -1328 
L 431 -1328 
L 431 2691 
Q 431 2813 429 2925 
Q 428 3038 425 3130 
Q 422 3222 419 3287 
Q 416 3353 413 3381 
L 956 3381 
Q 959 3372 964 3315 
Q 969 3259 973 3179 
Q 978 3100 983 3009 
Q 988 2919 988 2838 
L 1000 2838 
Q 1078 3000 1178 3114 
Q 1278 3228 1406 3301 
Q 1534 3375 1692 3408 
Q 1850 3441 2047 3441 
Q 2397 3441 2636 3316 
Q 2875 3191 3020 2964 
Q 3166 2738 3228 2417 
Q 3291 2097 3291 1706 
z
M 2700 1694 
Q 2700 2006 2662 2250 
Q 2625 2494 2533 2662 
Q 2441 2831 2287 2918 
Q 2134 3006 1903 3006 
Q 1716 3006 1550 2953 
Q 1384 2900 1261 2750 
Q 1138 2600 1066 2336 
Q 994 2072 994 1650 
Q 994 1291 1053 1042 
Q 1113 794 1227 641 
Q 1341 488 1509 420 
Q 1678 353 1897 353 
Q 2131 353 2286 443 
Q 2441 534 2533 706 
Q 2625 878 2662 1126 
Q 2700 1375 2700 1694 
z
" transform="scale(0.015625)"/>
        <path id="LiberationSans-6c" d="M 431 0 
L 431 4638 
L 994 4638 
L 994 0 
L 431 0 
z
" transform="scale(0.015625)"/>
        <path id="LiberationSans-79" d="M 1888 0 
Q 1769 -306 1645 -551 
Q 1522 -797 1369 -970 
Q 1216 -1144 1028 -1236 
Q 841 -1328 597 -1328 
Q 491 -1328 400 -1322 
Q 309 -1316 209 -1294 
L 209 -872 
Q 269 -881 344 -886 
Q 419 -891 472 -891 
Q 719 -891 931 -706 
Q 1144 -522 1303 -119 
L 1356 16 
L 16 3381 
L 616 3381 
L 1328 1513 
Q 1359 1428 1407 1287 
Q 1456 1147 1504 1006 
Q 1553 866 1590 753 
Q 1628 641 1634 613 
Q 1644 647 1680 748 
Q 1716 850 1761 975 
Q 1806 1100 1853 1228 
Q 1900 1356 1931 1450 
L 2594 3381 
L 3188 3381 
L 1888 0 
z
" transform="scale(0.015625)"/>
       </defs>
       <use xlink:href="#LiberationSans-45"/>
       <use xlink:href="#LiberationSans-6d" transform="translate(66.699219 0)"/>
       <use xlink:href="#LiberationSans-70" transform="translate(150 0)"/>
       <use xlink:href="#LiberationSans-6c" transform="translate(205.615234 0)"/>
       <use xlink:href="#LiberationSans-6f" transform="translate(227.832031 0)"/>
       <use xlink:href="#LiberationSans-79" transform="translate(283.447266 0)"/>
       <use xlink:href="#LiberationSans-65" transform="translate(333.447266 0)"/>
       <use xlink:href="#LiberationSans-65" transform="translate(389.0625 0)"/>
       <use xlink:href="#LiberationSans-20" transform="translate(444.677734 0)"/>
       <use xlink:href="#LiberationSans-44" transform="translate(472.460938 0)"/>
       <use xlink:href="#LiberationSans-61" transform="translate(544.677734 0)"/>
       <use xlink:href="#LiberationSans-74" transform="translate(600.292969 0)"/>
       <use xlink:href="#LiberationSans-61" transform="translate(628.076172 0)"/>
      </g>
     </g>
    </g>
    <g id="xtick_3">
     <g id="line2d_5">
      <path d="M 327.680961 340.964606 
L 327.680961 23.345625 
" clip-path="url(#pea92e25f46)" style="fill: none; stroke: #ffffff; stroke-opacity: 0.3; stroke-linecap: round"/>
     </g>
     <g id="line2d_6"/>
     <g id="text_3">
      <!-- Financial Data -->
      <g style="fill: #262626" transform="translate(306.911356 398.285197) rotate(-45) scale(0.1 -0.1)">
       <defs>
        <path id="LiberationSans-46" d="M 1122 3916 
L 1122 2278 
L 3578 2278 
L 3578 1784 
L 1122 1784 
L 1122 0 
L 525 0 
L 525 4403 
L 3653 4403 
L 3653 3916 
L 1122 3916 
z
" transform="scale(0.015625)"/>
        <path id="LiberationSans-69" d="M 428 4100 
L 428 4638 
L 991 4638 
L 991 4100 
L 428 4100 
z
M 428 0 
L 428 3381 
L 991 3381 
L 991 0 
L 428 0 
z
" transform="scale(0.015625)"/>
        <path id="LiberationSans-6e" d="M 2578 0 
L 2578 2144 
Q 2578 2391 2542 2556 
Q 2506 2722 2425 2823 
Q 2344 2925 2211 2967 
Q 2078 3009 1881 3009 
Q 1681 3009 1520 2939 
Q 1359 2869 1245 2736 
Q 1131 2603 1068 2408 
Q 1006 2213 1006 1959 
L 1006 0 
L 444 0 
L 444 2659 
Q 444 2766 442 2883 
Q 441 3000 437 3104 
Q 434 3209 431 3284 
Q 428 3359 425 3381 
L 956 3381 
Q 959 3366 962 3297 
Q 966 3228 970 3139 
Q 975 3050 978 2958 
Q 981 2866 981 2803 
L 991 2803 
Q 1072 2950 1169 3069 
Q 1266 3188 1394 3270 
Q 1522 3353 1687 3398 
Q 1853 3444 2072 3444 
Q 2353 3444 2556 3375 
Q 2759 3306 2890 3162 
Q 3022 3019 3083 2792 
Q 3144 2566 3144 2253 
L 3144 0 
L 2578 0 
z
" transform="scale(0.015625)"/>
        <path id="LiberationSans-63" d="M 859 1706 
Q 859 1416 901 1172 
Q 944 928 1044 751 
Q 1144 575 1308 478 
Q 1472 381 1713 381 
Q 2013 381 2214 543 
Q 2416 706 2463 1044 
L 3031 1006 
Q 3003 797 2909 603 
Q 2816 409 2655 262 
Q 2494 116 2262 26 
Q 2031 -63 1728 -63 
Q 1331 -63 1053 71 
Q 775 206 601 442 
Q 428 678 350 998 
Q 272 1319 272 1694 
Q 272 2034 328 2295 
Q 384 2556 486 2751 
Q 588 2947 725 3080 
Q 863 3213 1023 3292 
Q 1184 3372 1362 3408 
Q 1541 3444 1722 3444 
Q 2006 3444 2228 3366 
Q 2450 3288 2611 3152 
Q 2772 3016 2872 2831 
Q 2972 2647 3013 2434 
L 2434 2391 
Q 2391 2672 2212 2837 
Q 2034 3003 1706 3003 
Q 1466 3003 1305 2923 
Q 1144 2844 1044 2683 
Q 944 2522 901 2278 
Q 859 2034 859 1706 
z
" transform="scale(0.015625)"/>
       </defs>
       <use xlink:href="#LiberationSans-46"/>
       <use xlink:href="#LiberationSans-69" transform="translate(61.083984 0)"/>
       <use xlink:href="#LiberationSans-6e" transform="translate(83.300781 0)"/>
       <use xlink:href="#LiberationSans-61" transform="translate(138.916016 0)"/>
       <use xlink:href="#LiberationSans-6e" transform="translate(194.53125 0)"/>
       <use xlink:href="#LiberationSans-63" transform="translate(250.146484 0)"/>
       <use xlink:href="#LiberationSans-69" transform="translate(300.146484 0)"/>
       <use xlink:href="#LiberationSans-61" transform="translate(322.363281 0)"/>
       <use xlink:href="#LiberationSans-6c" transform="translate(377.978516 0)"/>
       <use xlink:href="#LiberationSans-20" transform="translate(400.195312 0)"/>
       <use xlink:href="#LiberationSans-44" transform="translate(427.978516 0)"/>
       <use xlink:href="#LiberationSans-61" transform="translate(500.195312 0)"/>
       <use xlink:href="#LiberationSans-74" transform="translate(555.810547 0)"/>
       <use xlink:href="#LiberationSans-61" transform="translate(583.59375 0)"/>
      </g>
     </g>
    </g>
    <g id="xtick_4">
     <g id="line2d_7">
      <path d="M 438.749757 340.964606 
L 438.749757 23.345625 
" clip-path="url(#pea92e25f46)" style="fill: none; stroke: #ffffff; stroke-opacity: 0.3; stroke-linecap: round"/>
     </g>
     <g id="line2d_8"/>
     <g id="text_4">
      <!-- Health Data -->
      <g style="fill: #262626" transform="translate(421.909014 390.427473) rotate(-45) scale(0.1 -0.1)">
       <defs>
        <path id="LiberationSans-48" d="M 3503 0 
L 3503 2041 
L 1122 2041 
L 1122 0 
L 525 0 
L 525 4403 
L 1122 4403 
L 1122 2541 
L 3503 2541 
L 3503 4403 
L 4100 4403 
L 4100 0 
L 3503 0 
z
" transform="scale(0.015625)"/>
        <path id="LiberationSans-68" d="M 991 2803 
Q 1084 2975 1193 3095 
Q 1303 3216 1434 3294 
Q 1566 3372 1722 3408 
Q 1878 3444 2072 3444 
Q 2397 3444 2605 3356 
Q 2813 3269 2933 3111 
Q 3053 2953 3098 2734 
Q 3144 2516 3144 2253 
L 3144 0 
L 2578 0 
L 2578 2144 
Q 2578 2359 2551 2521 
Q 2525 2684 2450 2792 
Q 2375 2900 2237 2954 
Q 2100 3009 1881 3009 
Q 1681 3009 1520 2937 
Q 1359 2866 1245 2734 
Q 1131 2603 1068 2415 
Q 1006 2228 1006 1994 
L 1006 0 
L 444 0 
L 444 4638 
L 1006 4638 
L 1006 3431 
Q 1006 3328 1003 3225 
Q 1000 3122 995 3034 
Q 991 2947 987 2886 
Q 984 2825 981 2803 
L 991 2803 
z
" transform="scale(0.015625)"/>
       </defs>
       <use xlink:href="#LiberationSans-48"/>
       <use xlink:href="#LiberationSans-65" transform="translate(72.216797 0)"/>
       <use xlink:href="#LiberationSans-61" transform="translate(127.832031 0)"/>
       <use xlink:href="#LiberationSans-6c" transform="translate(183.447266 0)"/>
       <use xlink:href="#LiberationSans-74" transform="translate(205.664062 0)"/>
       <use xlink:href="#LiberationSans-68" transform="translate(233.447266 0)"/>
       <use xlink:href="#LiberationSans-20" transform="translate(289.0625 0)"/>
       <use xlink:href="#LiberationSans-44" transform="translate(316.845703 0)"/>
       <use xlink:href="#LiberationSans-61" transform="translate(389.0625 0)"/>
       <use xlink:href="#LiberationSans-74" transform="translate(444.677734 0)"/>
       <use xlink:href="#LiberationSans-61" transform="translate(472.460938 0)"/>
      </g>
     </g>
    </g>
    <g id="text_5">
     <!-- PII Data Categories -->
     <g style="fill: #262626" transform="translate(217.464063 415.594214) scale(0.12 -0.12)">
      <defs>
       <path id="LiberationSans-Bold-50" d="M 4050 3009 
Q 4050 2725 3954 2461 
Q 3859 2197 3662 1994 
Q 3466 1791 3162 1670 
Q 2859 1550 2444 1550 
L 1350 1550 
L 1350 0 
L 428 0 
L 428 4403 
L 2406 4403 
Q 2828 4403 3137 4301 
Q 3447 4200 3650 4015 
Q 3853 3831 3951 3575 
Q 4050 3319 4050 3009 
z
M 3122 2994 
Q 3122 3334 2917 3511 
Q 2713 3688 2303 3688 
L 1350 3688 
L 1350 2259 
L 2328 2259 
Q 2534 2259 2682 2312 
Q 2831 2366 2929 2462 
Q 3028 2559 3075 2695 
Q 3122 2831 3122 2994 
z
" transform="scale(0.015625)"/>
       <path id="LiberationSans-Bold-49" d="M 428 0 
L 428 4403 
L 1350 4403 
L 1350 0 
L 428 0 
z
" transform="scale(0.015625)"/>
       <path id="LiberationSans-Bold-20" transform="scale(0.015625)"/>
       <path id="LiberationSans-Bold-44" d="M 4353 2234 
Q 4353 1684 4187 1267 
Q 4022 850 3734 569 
Q 3447 288 3055 144 
Q 2663 0 2209 0 
L 428 0 
L 428 4403 
L 2022 4403 
Q 2534 4403 2962 4275 
Q 3391 4147 3700 3881 
Q 4009 3616 4181 3206 
Q 4353 2797 4353 2234 
z
M 3425 2234 
Q 3425 2619 3320 2894 
Q 3216 3169 3028 3345 
Q 2841 3522 2580 3606 
Q 2319 3691 2003 3691 
L 1350 3691 
L 1350 713 
L 2131 713 
Q 2409 713 2645 809 
Q 2881 906 3054 1098 
Q 3228 1291 3326 1575 
Q 3425 1859 3425 2234 
z
" transform="scale(0.015625)"/>
       <path id="LiberationSans-Bold-61" d="M 1228 -63 
Q 984 -63 792 4 
Q 600 72 465 201 
Q 331 331 259 522 
Q 188 713 188 956 
Q 188 1256 292 1461 
Q 397 1666 578 1792 
Q 759 1919 1003 1976 
Q 1247 2034 1522 2038 
L 2250 2050 
L 2250 2222 
Q 2250 2406 2217 2529 
Q 2184 2653 2121 2731 
Q 2059 2809 1967 2842 
Q 1875 2875 1756 2875 
Q 1647 2875 1561 2853 
Q 1475 2831 1412 2776 
Q 1350 2722 1311 2630 
Q 1272 2538 1256 2397 
L 341 2441 
Q 378 2663 478 2845 
Q 578 3028 754 3162 
Q 931 3297 1189 3370 
Q 1447 3444 1794 3444 
Q 2109 3444 2356 3366 
Q 2603 3288 2775 3133 
Q 2947 2978 3037 2753 
Q 3128 2528 3128 2231 
L 3128 1000 
Q 3128 881 3139 787 
Q 3150 694 3179 630 
Q 3209 566 3264 533 
Q 3319 500 3406 500 
Q 3506 500 3600 519 
L 3600 44 
Q 3522 25 3459 9 
Q 3397 -6 3334 -15 
Q 3272 -25 3201 -31 
Q 3131 -38 3038 -38 
Q 2706 -38 2548 125 
Q 2391 288 2359 603 
L 2341 603 
Q 2166 288 1892 112 
Q 1619 -63 1228 -63 
z
M 2250 1566 
L 1800 1559 
Q 1659 1553 1532 1536 
Q 1406 1519 1311 1464 
Q 1216 1409 1159 1306 
Q 1103 1203 1103 1025 
Q 1103 784 1214 667 
Q 1325 550 1509 550 
Q 1678 550 1815 622 
Q 1953 694 2048 811 
Q 2144 928 2197 1081 
Q 2250 1234 2250 1394 
L 2250 1566 
z
" transform="scale(0.015625)"/>
       <path id="LiberationSans-Bold-74" d="M 1313 -56 
Q 925 -56 715 155 
Q 506 366 506 794 
L 506 2788 
L 78 2788 
L 78 3381 
L 550 3381 
L 825 4175 
L 1375 4175 
L 1375 3381 
L 2016 3381 
L 2016 2788 
L 1375 2788 
L 1375 1031 
Q 1375 784 1469 667 
Q 1563 550 1759 550 
Q 1841 550 1906 562 
Q 1972 575 2053 594 
L 2053 50 
Q 1891 -3 1709 -29 
Q 1528 -56 1313 -56 
z
" transform="scale(0.015625)"/>
       <path id="LiberationSans-Bold-43" d="M 2484 663 
Q 2744 663 2933 736 
Q 3122 809 3261 928 
Q 3400 1047 3492 1197 
Q 3584 1347 3644 1500 
L 4447 1197 
Q 4350 959 4194 731 
Q 4038 503 3803 328 
Q 3569 153 3245 45 
Q 2922 -63 2484 -63 
Q 1913 -63 1494 107 
Q 1075 278 801 583 
Q 528 888 395 1306 
Q 263 1725 263 2222 
Q 263 2738 395 3153 
Q 528 3569 797 3861 
Q 1066 4153 1477 4311 
Q 1888 4469 2444 4469 
Q 2875 4469 3198 4378 
Q 3522 4288 3758 4123 
Q 3994 3959 4148 3736 
Q 4303 3513 4391 3244 
L 3578 3022 
Q 3534 3163 3443 3292 
Q 3353 3422 3214 3522 
Q 3075 3622 2887 3683 
Q 2700 3744 2463 3744 
Q 2128 3744 1887 3636 
Q 1647 3528 1492 3328 
Q 1338 3128 1264 2848 
Q 1191 2569 1191 2222 
Q 1191 1878 1264 1592 
Q 1338 1306 1494 1100 
Q 1650 894 1895 778 
Q 2141 663 2484 663 
z
" transform="scale(0.015625)"/>
       <path id="LiberationSans-Bold-65" d="M 1831 -63 
Q 1466 -63 1173 45 
Q 881 153 675 373 
Q 469 594 359 926 
Q 250 1259 250 1706 
Q 250 2191 379 2522 
Q 509 2853 729 3058 
Q 950 3263 1237 3353 
Q 1525 3444 1844 3444 
Q 2244 3444 2526 3305 
Q 2809 3166 2990 2916 
Q 3172 2666 3256 2317 
Q 3341 1969 3341 1547 
L 3341 1522 
L 1172 1522 
Q 1172 1309 1209 1126 
Q 1247 944 1331 811 
Q 1416 678 1550 601 
Q 1684 525 1875 525 
Q 2106 525 2253 623 
Q 2400 722 2463 928 
L 3291 856 
Q 3234 713 3132 550 
Q 3031 388 2862 252 
Q 2694 116 2442 26 
Q 2191 -63 1831 -63 
z
M 1831 2891 
Q 1697 2891 1580 2845 
Q 1463 2800 1377 2701 
Q 1291 2603 1237 2447 
Q 1184 2291 1178 2072 
L 2491 2072 
Q 2466 2481 2294 2686 
Q 2122 2891 1831 2891 
z
" transform="scale(0.015625)"/>
       <path id="LiberationSans-Bold-67" d="M 1863 -1356 
Q 1528 -1356 1273 -1289 
Q 1019 -1222 839 -1101 
Q 659 -981 551 -814 
Q 444 -647 403 -447 
L 1281 -344 
Q 1328 -547 1483 -662 
Q 1638 -778 1888 -778 
Q 2044 -778 2173 -734 
Q 2303 -691 2395 -586 
Q 2488 -481 2539 -309 
Q 2591 -138 2591 116 
Q 2591 203 2591 293 
Q 2591 384 2594 459 
Q 2597 547 2597 628 
L 2591 628 
Q 2438 300 2161 153 
Q 1884 6 1503 6 
Q 1181 6 948 132 
Q 716 259 562 486 
Q 409 713 336 1027 
Q 263 1341 263 1719 
Q 263 2109 341 2426 
Q 419 2744 580 2972 
Q 741 3200 986 3323 
Q 1231 3447 1569 3447 
Q 1906 3447 2173 3303 
Q 2441 3159 2591 2838 
L 2606 2838 
Q 2606 2903 2611 2989 
Q 2616 3075 2622 3154 
Q 2628 3234 2636 3296 
Q 2644 3359 2650 3381 
L 3481 3381 
Q 3475 3269 3469 3066 
Q 3463 2863 3463 2600 
L 3463 103 
Q 3463 -266 3356 -539 
Q 3250 -813 3045 -994 
Q 2841 -1175 2542 -1265 
Q 2244 -1356 1863 -1356 
z
M 2597 1738 
Q 2597 2056 2534 2268 
Q 2472 2481 2372 2609 
Q 2272 2738 2142 2791 
Q 2013 2844 1881 2844 
Q 1713 2844 1583 2778 
Q 1453 2713 1362 2575 
Q 1272 2438 1225 2225 
Q 1178 2013 1178 1719 
Q 1178 1172 1353 894 
Q 1528 616 1875 616 
Q 2006 616 2136 667 
Q 2266 719 2369 848 
Q 2472 978 2534 1193 
Q 2597 1409 2597 1738 
z
" transform="scale(0.015625)"/>
       <path id="LiberationSans-Bold-6f" d="M 3659 1694 
Q 3659 1306 3551 984 
Q 3444 663 3228 430 
Q 3013 197 2691 67 
Q 2369 -63 1941 -63 
Q 1528 -63 1212 65 
Q 897 194 683 425 
Q 469 656 359 979 
Q 250 1303 250 1694 
Q 250 2072 354 2392 
Q 459 2713 671 2947 
Q 884 3181 1206 3312 
Q 1528 3444 1959 3444 
Q 2416 3444 2737 3312 
Q 3059 3181 3264 2948 
Q 3469 2716 3564 2395 
Q 3659 2075 3659 1694 
z
M 2741 1694 
Q 2741 2297 2544 2569 
Q 2347 2841 1972 2841 
Q 1584 2841 1378 2566 
Q 1172 2291 1172 1694 
Q 1172 1391 1226 1172 
Q 1281 953 1381 812 
Q 1481 672 1622 605 
Q 1763 538 1931 538 
Q 2125 538 2276 605 
Q 2428 672 2531 812 
Q 2634 953 2687 1172 
Q 2741 1391 2741 1694 
z
" transform="scale(0.015625)"/>
       <path id="LiberationSans-Bold-72" d="M 447 0 
L 447 2588 
Q 447 2697 445 2819 
Q 444 2941 439 3052 
Q 434 3163 431 3252 
Q 428 3341 422 3381 
L 1259 3381 
Q 1266 3344 1272 3251 
Q 1278 3159 1284 3050 
Q 1291 2941 1295 2833 
Q 1300 2725 1300 2659 
L 1313 2659 
Q 1378 2844 1443 2989 
Q 1509 3134 1598 3236 
Q 1688 3338 1813 3392 
Q 1938 3447 2122 3447 
Q 2200 3447 2276 3433 
Q 2353 3419 2394 3400 
L 2394 2666 
Q 2309 2684 2223 2698 
Q 2138 2713 2019 2713 
Q 1691 2713 1508 2447 
Q 1325 2181 1325 1659 
L 1325 0 
L 447 0 
z
" transform="scale(0.015625)"/>
       <path id="LiberationSans-Bold-69" d="M 447 3991 
L 447 4638 
L 1325 4638 
L 1325 3991 
L 447 3991 
z
M 447 0 
L 447 3381 
L 1325 3381 
L 1325 0 
L 447 0 
z
" transform="scale(0.015625)"/>
       <path id="LiberationSans-Bold-73" d="M 3297 988 
Q 3297 744 3195 550 
Q 3094 356 2900 220 
Q 2706 84 2425 10 
Q 2144 -63 1784 -63 
Q 1463 -63 1203 -16 
Q 944 31 748 139 
Q 553 247 422 419 
Q 291 591 225 844 
L 997 959 
Q 1034 819 1100 731 
Q 1166 644 1262 597 
Q 1359 550 1489 534 
Q 1619 519 1784 519 
Q 1934 519 2064 536 
Q 2194 553 2289 595 
Q 2384 638 2437 714 
Q 2491 791 2491 906 
Q 2491 1038 2414 1114 
Q 2338 1191 2205 1239 
Q 2072 1288 1892 1323 
Q 1713 1359 1509 1406 
Q 1297 1453 1090 1518 
Q 884 1584 721 1696 
Q 559 1809 459 1982 
Q 359 2156 359 2422 
Q 359 2663 453 2852 
Q 547 3041 728 3173 
Q 909 3306 1176 3376 
Q 1444 3447 1791 3447 
Q 2066 3447 2303 3395 
Q 2541 3344 2728 3233 
Q 2916 3122 3042 2950 
Q 3169 2778 3219 2534 
L 2441 2453 
Q 2419 2575 2362 2654 
Q 2306 2734 2223 2781 
Q 2141 2828 2031 2845 
Q 1922 2863 1791 2863 
Q 1478 2863 1322 2783 
Q 1166 2703 1166 2516 
Q 1166 2400 1230 2331 
Q 1294 2263 1411 2217 
Q 1528 2172 1689 2139 
Q 1850 2106 2041 2059 
Q 2275 2009 2501 1942 
Q 2728 1875 2904 1758 
Q 3081 1641 3189 1456 
Q 3297 1272 3297 988 
z
" transform="scale(0.015625)"/>
      </defs>
      <use xlink:href="#LiberationSans-Bold-50"/>
      <use xlink:href="#LiberationSans-Bold-49" transform="translate(66.699219 0)"/>
      <use xlink:href="#LiberationSans-Bold-49" transform="translate(94.482422 0)"/>
      <use xlink:href="#LiberationSans-Bold-20" transform="translate(122.265625 0)"/>
      <use xlink:href="#LiberationSans-Bold-44" transform="translate(150.048828 0)"/>
      <use xlink:href="#LiberationSans-Bold-61" transform="translate(222.265625 0)"/>
      <use xlink:href="#LiberationSans-Bold-74" transform="translate(277.880859 0)"/>
      <use xlink:href="#LiberationSans-Bold-61" transform="translate(311.181641 0)"/>
      <use xlink:href="#LiberationSans-Bold-20" transform="translate(366.796875 0)"/>
      <use xlink:href="#LiberationSans-Bold-43" transform="translate(394.580078 0)"/>
      <use xlink:href="#LiberationSans-Bold-61" transform="translate(466.796875 0)"/>
      <use xlink:href="#LiberationSans-Bold-74" transform="translate(522.412109 0)"/>
      <use xlink:href="#LiberationSans-Bold-65" transform="translate(555.712891 0)"/>
      <use xlink:href="#LiberationSans-Bold-67" transform="translate(611.328125 0)"/>
      <use xlink:href="#LiberationSans-Bold-6f" transform="translate(672.412109 0)"/>
      <use xlink:href="#LiberationSans-Bold-72" transform="translate(733.496094 0)"/>
      <use xlink:href="#LiberationSans-Bold-69" transform="translate(772.412109 0)"/>
      <use xlink:href="#LiberationSans-Bold-65" transform="translate(800.195312 0)"/>
      <use xlink:href="#LiberationSans-Bold-73" transform="translate(855.810547 0)"/>
     </g>
    </g>
   </g>
   <g id="matplotlib.axis_2">
    <g id="ytick_1">
     <g id="line2d_9">
      <path d="M 46.121563 340.964606 
L 498.171563 340.964606 
" clip-path="url(#pea92e25f46)" style="fill: none; stroke: #ffffff; stroke-opacity: 0.3; stroke-linecap: round"/>
     </g>
     <g id="line2d_10"/>
     <g id="text_6">
      <!-- 0 -->
      <g style="fill: #262626" transform="translate(33.560625 344.588043) scale(0.1 -0.1)">
       <defs>
        <path id="LiberationSans-30" d="M 3309 2203 
Q 3309 1569 3189 1136 
Q 3069 703 2861 436 
Q 2653 169 2372 53 
Q 2091 -63 1772 -63 
Q 1450 -63 1172 53 
Q 894 169 689 434 
Q 484 700 367 1133 
Q 250 1566 250 2203 
Q 250 2869 367 3305 
Q 484 3741 690 4000 
Q 897 4259 1178 4364 
Q 1459 4469 1791 4469 
Q 2106 4469 2382 4364 
Q 2659 4259 2865 4000 
Q 3072 3741 3190 3305 
Q 3309 2869 3309 2203 
z
M 2738 2203 
Q 2738 2728 2675 3076 
Q 2613 3425 2491 3633 
Q 2369 3841 2192 3927 
Q 2016 4013 1791 4013 
Q 1553 4013 1372 3925 
Q 1191 3838 1067 3630 
Q 944 3422 881 3073 
Q 819 2725 819 2203 
Q 819 1697 883 1350 
Q 947 1003 1070 792 
Q 1194 581 1372 489 
Q 1550 397 1778 397 
Q 2000 397 2178 489 
Q 2356 581 2479 792 
Q 2603 1003 2670 1350 
Q 2738 1697 2738 2203 
z
" transform="scale(0.015625)"/>
       </defs>
       <use xlink:href="#LiberationSans-30"/>
      </g>
     </g>
    </g>
    <g id="ytick_2">
     <g id="line2d_11">
      <path d="M 46.121563 277.440809 
L 498.171563 277.440809 
" clip-path="url(#pea92e25f46)" style="fill: none; stroke: #ffffff; stroke-opacity: 0.3; stroke-linecap: round"/>
     </g>
     <g id="line2d_12"/>
     <g id="text_7">
      <!-- 20 -->
      <g style="fill: #262626" transform="translate(27.999688 281.064247) scale(0.1 -0.1)">
       <defs>
        <path id="LiberationSans-32" d="M 322 0 
L 322 397 
Q 481 763 711 1042 
Q 941 1322 1194 1548 
Q 1447 1775 1695 1969 
Q 1944 2163 2144 2356 
Q 2344 2550 2467 2762 
Q 2591 2975 2591 3244 
Q 2591 3431 2534 3573 
Q 2478 3716 2372 3812 
Q 2266 3909 2117 3957 
Q 1969 4006 1788 4006 
Q 1619 4006 1470 3959 
Q 1322 3913 1206 3819 
Q 1091 3725 1017 3586 
Q 944 3447 922 3263 
L 347 3316 
Q 375 3553 478 3762 
Q 581 3972 762 4130 
Q 944 4288 1198 4378 
Q 1453 4469 1788 4469 
Q 2116 4469 2372 4391 
Q 2628 4313 2804 4159 
Q 2981 4006 3075 3781 
Q 3169 3556 3169 3263 
Q 3169 3041 3089 2841 
Q 3009 2641 2876 2459 
Q 2744 2278 2569 2109 
Q 2394 1941 2203 1780 
Q 2013 1619 1819 1461 
Q 1625 1303 1454 1143 
Q 1284 984 1150 820 
Q 1016 656 941 478 
L 3238 478 
L 3238 0 
L 322 0 
z
" transform="scale(0.015625)"/>
       </defs>
       <use xlink:href="#LiberationSans-32"/>
       <use xlink:href="#LiberationSans-30" transform="translate(55.615234 0)"/>
      </g>
     </g>
    </g>
    <g id="ytick_3">
     <g id="line2d_13">
      <path d="M 46.121563 213.917013 
L 498.171563 213.917013 
" clip-path="url(#pea92e25f46)" style="fill: none; stroke: #ffffff; stroke-opacity: 0.3; stroke-linecap: round"/>
     </g>
     <g id="line2d_14"/>
     <g id="text_8">
      <!-- 40 -->
      <g style="fill: #262626" transform="translate(27.999688 217.540451) scale(0.1 -0.1)">
       <defs>
        <path id="LiberationSans-34" d="M 2753 997 
L 2753 0 
L 2222 0 
L 2222 997 
L 147 997 
L 147 1434 
L 2163 4403 
L 2753 4403 
L 2753 1441 
L 3372 1441 
L 3372 997 
L 2753 997 
z
M 2222 3769 
Q 2216 3753 2191 3708 
Q 2166 3663 2134 3606 
Q 2103 3550 2070 3492 
Q 2038 3434 2013 3397 
L 884 1734 
Q 869 1709 839 1668 
Q 809 1628 778 1586 
Q 747 1544 715 1503 
Q 684 1463 666 1441 
L 2222 1441 
L 2222 3769 
z
" transform="scale(0.015625)"/>
       </defs>
       <use xlink:href="#LiberationSans-34"/>
       <use xlink:href="#LiberationSans-30" transform="translate(55.615234 0)"/>
      </g>
     </g>
    </g>
    <g id="ytick_4">
     <g id="line2d_15">
      <path d="M 46.121563 150.393217 
L 498.171563 150.393217 
" clip-path="url(#pea92e25f46)" style="fill: none; stroke: #ffffff; stroke-opacity: 0.3; stroke-linecap: round"/>
     </g>
     <g id="line2d_16"/>
     <g id="text_9">
      <!-- 60 -->
      <g style="fill: #262626" transform="translate(27.999688 154.016655) scale(0.1 -0.1)">
       <defs>
        <path id="LiberationSans-36" d="M 3278 1441 
Q 3278 1109 3186 832 
Q 3094 556 2914 357 
Q 2734 159 2468 48 
Q 2203 -63 1856 -63 
Q 1472 -63 1184 84 
Q 897 231 706 507 
Q 516 784 420 1186 
Q 325 1588 325 2100 
Q 325 2688 433 3131 
Q 541 3575 744 3872 
Q 947 4169 1239 4319 
Q 1531 4469 1900 4469 
Q 2125 4469 2322 4422 
Q 2519 4375 2680 4270 
Q 2841 4166 2962 3994 
Q 3084 3822 3156 3572 
L 2619 3475 
Q 2531 3759 2339 3886 
Q 2147 4013 1894 4013 
Q 1663 4013 1475 3903 
Q 1288 3794 1156 3576 
Q 1025 3359 954 3031 
Q 884 2703 884 2266 
Q 1038 2550 1316 2698 
Q 1594 2847 1953 2847 
Q 2253 2847 2497 2750 
Q 2741 2653 2914 2470 
Q 3088 2288 3183 2027 
Q 3278 1766 3278 1441 
z
M 2706 1416 
Q 2706 1644 2650 1828 
Q 2594 2013 2481 2142 
Q 2369 2272 2203 2342 
Q 2038 2413 1819 2413 
Q 1666 2413 1509 2367 
Q 1353 2322 1226 2220 
Q 1100 2119 1020 1953 
Q 941 1788 941 1550 
Q 941 1306 1003 1095 
Q 1066 884 1183 728 
Q 1300 572 1465 481 
Q 1631 391 1838 391 
Q 2041 391 2202 461 
Q 2363 531 2475 664 
Q 2588 797 2647 987 
Q 2706 1178 2706 1416 
z
" transform="scale(0.015625)"/>
       </defs>
       <use xlink:href="#LiberationSans-36"/>
       <use xlink:href="#LiberationSans-30" transform="translate(55.615234 0)"/>
      </g>
     </g>
    </g>
    <g id="ytick_5">
     <g id="line2d_17">
      <path d="M 46.121563 86.869421 
L 498.171563 86.869421 
" clip-path="url(#pea92e25f46)" style="fill: none; stroke: #ffffff; stroke-opacity: 0.3; stroke-linecap: round"/>
     </g>
     <g id="line2d_18"/>
     <g id="text_10">
      <!-- 80 -->
      <g style="fill: #262626" transform="translate(27.999688 90.492859) scale(0.1 -0.1)">
       <defs>
        <path id="LiberationSans-38" d="M 3281 1228 
Q 3281 947 3192 711 
Q 3103 475 2920 303 
Q 2738 131 2453 34 
Q 2169 -63 1781 -63 
Q 1394 -63 1111 34 
Q 828 131 642 301 
Q 456 472 367 708 
Q 278 944 278 1222 
Q 278 1463 351 1650 
Q 425 1838 548 1973 
Q 672 2109 830 2192 
Q 988 2275 1156 2303 
L 1156 2316 
Q 972 2359 826 2456 
Q 681 2553 582 2689 
Q 484 2825 432 2990 
Q 381 3156 381 3341 
Q 381 3572 470 3776 
Q 559 3981 734 4136 
Q 909 4291 1168 4380 
Q 1428 4469 1769 4469 
Q 2128 4469 2392 4378 
Q 2656 4288 2829 4133 
Q 3003 3978 3087 3772 
Q 3172 3566 3172 3334 
Q 3172 3153 3120 2987 
Q 3069 2822 2970 2686 
Q 2872 2550 2726 2454 
Q 2581 2359 2391 2322 
L 2391 2309 
Q 2581 2278 2743 2195 
Q 2906 2113 3025 1977 
Q 3144 1841 3212 1653 
Q 3281 1466 3281 1228 
z
M 2588 3303 
Q 2588 3469 2545 3606 
Q 2503 3744 2406 3842 
Q 2309 3941 2153 3995 
Q 1997 4050 1769 4050 
Q 1547 4050 1394 3995 
Q 1241 3941 1142 3842 
Q 1044 3744 1000 3606 
Q 956 3469 956 3303 
Q 956 3172 990 3034 
Q 1025 2897 1115 2784 
Q 1206 2672 1365 2600 
Q 1525 2528 1775 2528 
Q 2041 2528 2202 2600 
Q 2363 2672 2448 2784 
Q 2534 2897 2561 3034 
Q 2588 3172 2588 3303 
z
M 2697 1281 
Q 2697 1441 2653 1589 
Q 2609 1738 2503 1852 
Q 2397 1966 2217 2036 
Q 2038 2106 1769 2106 
Q 1522 2106 1348 2036 
Q 1175 1966 1067 1850 
Q 959 1734 909 1582 
Q 859 1431 859 1269 
Q 859 1066 909 898 
Q 959 731 1068 611 
Q 1178 491 1356 425 
Q 1534 359 1788 359 
Q 2044 359 2219 425 
Q 2394 491 2500 611 
Q 2606 731 2651 901 
Q 2697 1072 2697 1281 
z
" transform="scale(0.015625)"/>
       </defs>
       <use xlink:href="#LiberationSans-38"/>
       <use xlink:href="#LiberationSans-30" transform="translate(55.615234 0)"/>
      </g>
     </g>
    </g>
    <g id="ytick_6">
     <g id="line2d_19">
      <path d="M 46.121563 23.345625 
L 498.171563 23.345625 
" clip-path="url(#pea92e25f46)" style="fill: none; stroke: #ffffff; stroke-opacity: 0.3; stroke-linecap: round"/>
     </g>
     <g id="line2d_20"/>
     <g id="text_11">
      <!-- 100 -->
      <g style="fill: #262626" transform="translate(22.43875 26.969062) scale(0.1 -0.1)">
       <defs>
        <path id="LiberationSans-31" d="M 488 0 
L 488 478 
L 1609 478 
L 1609 3866 
L 616 3156 
L 616 3688 
L 1656 4403 
L 2175 4403 
L 2175 478 
L 3247 478 
L 3247 0 
L 488 0 
z
" transform="scale(0.015625)"/>
       </defs>
       <use xlink:href="#LiberationSans-31"/>
       <use xlink:href="#LiberationSans-30" transform="translate(55.615234 0)"/>
       <use xlink:href="#LiberationSans-30" transform="translate(111.230469 0)"/>
      </g>
     </g>
    </g>
    <g id="text_12">
     <!-- Protection Percentage -->
     <g style="fill: #262626" transform="translate(15.89625 245.836678) rotate(-90) scale(0.12 -0.12)">
      <defs>
       <path id="LiberationSans-Bold-63" d="M 1856 -63 
Q 1453 -63 1151 62 
Q 850 188 650 416 
Q 450 644 350 964 
Q 250 1284 250 1672 
Q 250 2094 359 2423 
Q 469 2753 675 2979 
Q 881 3206 1182 3325 
Q 1484 3444 1869 3444 
Q 2197 3444 2451 3356 
Q 2706 3269 2890 3117 
Q 3075 2966 3189 2759 
Q 3303 2553 3347 2316 
L 2463 2272 
Q 2425 2531 2275 2686 
Q 2125 2841 1850 2841 
Q 1497 2841 1334 2550 
Q 1172 2259 1172 1706 
Q 1172 538 1863 538 
Q 2113 538 2281 695 
Q 2450 853 2491 1166 
L 3372 1125 
Q 3341 891 3230 677 
Q 3119 463 2930 298 
Q 2741 134 2472 35 
Q 2203 -63 1856 -63 
z
" transform="scale(0.015625)"/>
       <path id="LiberationSans-Bold-6e" d="M 2638 0 
L 2638 1897 
Q 2638 2094 2606 2258 
Q 2575 2422 2503 2539 
Q 2431 2656 2315 2722 
Q 2200 2788 2034 2788 
Q 1875 2788 1745 2717 
Q 1616 2647 1522 2517 
Q 1428 2388 1376 2208 
Q 1325 2028 1325 1813 
L 1325 0 
L 447 0 
L 447 2625 
Q 447 2734 445 2850 
Q 444 2966 439 3070 
Q 434 3175 431 3258 
Q 428 3341 422 3381 
L 1259 3381 
Q 1266 3344 1272 3261 
Q 1278 3178 1284 3078 
Q 1291 2978 1295 2878 
Q 1300 2778 1300 2709 
L 1313 2709 
Q 1491 3097 1759 3272 
Q 2028 3447 2400 3447 
Q 2706 3447 2917 3347 
Q 3128 3247 3261 3072 
Q 3394 2897 3453 2659 
Q 3513 2422 3513 2147 
L 3513 0 
L 2638 0 
z
" transform="scale(0.015625)"/>
      </defs>
      <use xlink:href="#LiberationSans-Bold-50"/>
      <use xlink:href="#LiberationSans-Bold-72" transform="translate(66.699219 0)"/>
      <use xlink:href="#LiberationSans-Bold-6f" transform="translate(105.615234 0)"/>
      <use xlink:href="#LiberationSans-Bold-74" transform="translate(166.699219 0)"/>
      <use xlink:href="#LiberationSans-Bold-65" transform="translate(200 0)"/>
      <use xlink:href="#LiberationSans-Bold-63" transform="translate(255.615234 0)"/>
      <use xlink:href="#LiberationSans-Bold-74" transform="translate(311.230469 0)"/>
      <use xlink:href="#LiberationSans-Bold-69" transform="translate(344.53125 0)"/>
      <use xlink:href="#LiberationSans-Bold-6f" transform="translate(372.314453 0)"/>
      <use xlink:href="#LiberationSans-Bold-6e" transform="translate(433.398438 0)"/>
      <use xlink:href="#LiberationSans-Bold-20" transform="translate(494.482422 0)"/>
      <use xlink:href="#LiberationSans-Bold-50" transform="translate(522.265625 0)"/>
      <use xlink:href="#LiberationSans-Bold-65" transform="translate(588.964844 0)"/>
      <use xlink:href="#LiberationSans-Bold-72" transform="translate(644.580078 0)"/>
      <use xlink:href="#LiberationSans-Bold-63" transform="translate(683.496094 0)"/>
      <use xlink:href="#LiberationSans-Bold-65" transform="translate(739.111328 0)"/>
      <use xlink:href="#LiberationSans-Bold-6e" transform="translate(794.726562 0)"/>
      <use xlink:href="#LiberationSans-Bold-74" transform="translate(855.810547 0)"/>
      <use xlink:href="#LiberationSans-Bold-61" transform="translate(889.111328 0)"/>
      <use xlink:href="#LiberationSans-Bold-67" transform="translate(944.726562 0)"/>
      <use xlink:href="#LiberationSans-Bold-65" transform="translate(1005.810547 0)"/>
     </g>
    </g>
   </g>
   <g id="patch_3">
    <path d="M 66.66929 340.964606 
L 105.543368 340.964606 
L 105.543368 48.755143 
L 66.66929 48.755143 
z
" clip-path="url(#pea92e25f46)" style="fill: #add8e6; opacity: 0.8"/>
   </g>
   <g id="patch_4">
    <path d="M 177.738086 340.964606 
L 216.612164 340.964606 
L 216.612164 61.459903 
L 177.738086 61.459903 
z
" clip-path="url(#pea92e25f46)" style="fill: #add8e6; opacity: 0.8"/>
   </g>
   <g id="patch_5">
    <path d="M 288.806882 340.964606 
L 327.680961 340.964606 
L 327.680961 39.226574 
L 288.806882 39.226574 
z
" clip-path="url(#pea92e25f46)" style="fill: #add8e6; opacity: 0.8"/>
   </g>
   <g id="patch_6">
    <path d="M 399.875678 340.964606 
L 438.749757 340.964606 
L 438.749757 99.57418 
L 399.875678 99.57418 
z
" clip-path="url(#pea92e25f46)" style="fill: #add8e6; opacity: 0.8"/>
   </g>
   <g id="patch_7">
    <path d="M 105.543368 340.964606 
L 144.417447 340.964606 
L 144.417447 29.698005 
L 105.543368 29.698005 
z
" clip-path="url(#pea92e25f46)" style="fill: #00008b; opacity: 0.8"/>
   </g>
   <g id="patch_8">
    <path d="M 216.612164 340.964606 
L 255.486243 340.964606 
L 255.486243 39.226574 
L 216.612164 39.226574 
z
" clip-path="url(#pea92e25f46)" style="fill: #00008b; opacity: 0.8"/>
   </g>
   <g id="patch_9">
    <path d="M 327.680961 340.964606 
L 366.555039 340.964606 
L 366.555039 29.698005 
L 327.680961 29.698005 
z
" clip-path="url(#pea92e25f46)" style="fill: #00008b; opacity: 0.8"/>
   </g>
   <g id="patch_10">
    <path d="M 438.749757 340.964606 
L 477.623835 340.964606 
L 477.623835 55.107523 
L 438.749757 55.107523 
z
" clip-path="url(#pea92e25f46)" style="fill: #00008b; opacity: 0.8"/>
   </g>
   <g id="patch_11">
    <path d="M 46.121563 340.964606 
L 46.121563 23.345625 
" style="fill: none"/>
   </g>
   <g id="patch_12">
    <path d="M 498.171563 340.964606 
L 498.171563 23.345625 
" style="fill: none"/>
   </g>
   <g id="patch_13">
    <path d="M 46.121562 340.964606 
L 498.171563 340.964606 
" style="fill: none"/>
   </g>
   <g id="patch_14">
    <path d="M 46.121562 23.345625 
L 498.171563 23.345625 
" style="fill: none"/>
   </g>
   <g id="text_13">
    <!-- 92% -->
    <g style="fill: #262626" transform="translate(76.099298 43.680143) scale(0.1 -0.1)">
     <defs>
      <path id="LiberationSans-Bold-39" d="M 3322 2272 
Q 3322 1100 2894 518 
Q 2466 -63 1678 -63 
Q 1394 -63 1167 -3 
Q 941 56 772 181 
Q 603 306 486 503 
Q 369 700 300 972 
L 1125 1088 
Q 1188 853 1330 740 
Q 1472 628 1688 628 
Q 1866 628 2006 712 
Q 2147 797 2247 969 
Q 2347 1141 2401 1405 
Q 2456 1669 2459 2028 
Q 2397 1906 2294 1812 
Q 2191 1719 2061 1656 
Q 1931 1594 1784 1561 
Q 1638 1528 1488 1528 
Q 1200 1528 965 1629 
Q 731 1731 565 1922 
Q 400 2113 311 2383 
Q 222 2653 222 2994 
Q 222 3344 326 3619 
Q 431 3894 628 4083 
Q 825 4272 1111 4370 
Q 1397 4469 1759 4469 
Q 2141 4469 2433 4339 
Q 2725 4209 2922 3939 
Q 3119 3669 3220 3255 
Q 3322 2841 3322 2272 
z
M 2394 2888 
Q 2394 3075 2351 3239 
Q 2309 3403 2225 3523 
Q 2141 3644 2019 3712 
Q 1897 3781 1738 3781 
Q 1591 3781 1475 3726 
Q 1359 3672 1278 3569 
Q 1197 3466 1155 3319 
Q 1113 3172 1113 2988 
Q 1113 2816 1153 2667 
Q 1194 2519 1272 2411 
Q 1350 2303 1469 2242 
Q 1588 2181 1741 2181 
Q 1863 2181 1980 2225 
Q 2097 2269 2189 2356 
Q 2281 2444 2337 2576 
Q 2394 2709 2394 2888 
z
" transform="scale(0.015625)"/>
      <path id="LiberationSans-Bold-32" d="M 222 0 
L 222 609 
Q 372 938 587 1202 
Q 803 1466 1039 1686 
Q 1275 1906 1508 2095 
Q 1741 2284 1927 2461 
Q 2113 2638 2228 2816 
Q 2344 2994 2344 3194 
Q 2344 3488 2197 3628 
Q 2050 3769 1766 3769 
Q 1484 3769 1336 3617 
Q 1188 3466 1144 3163 
L 259 3213 
Q 291 3472 387 3700 
Q 484 3928 664 4100 
Q 844 4272 1114 4370 
Q 1384 4469 1759 4469 
Q 2116 4469 2391 4386 
Q 2666 4303 2853 4143 
Q 3041 3984 3137 3754 
Q 3234 3525 3234 3231 
Q 3234 2922 3112 2672 
Q 2991 2422 2800 2211 
Q 2609 2000 2376 1815 
Q 2144 1631 1925 1456 
Q 1706 1281 1526 1103 
Q 1347 925 1259 722 
L 3303 722 
L 3303 0 
L 222 0 
z
" transform="scale(0.015625)"/>
      <path id="LiberationSans-Bold-25" d="M 5522 1350 
Q 5522 959 5434 690 
Q 5347 422 5197 258 
Q 5047 94 4845 22 
Q 4644 -50 4416 -50 
Q 4181 -50 3979 22 
Q 3778 94 3629 258 
Q 3481 422 3395 690 
Q 3309 959 3309 1350 
Q 3309 1763 3395 2033 
Q 3481 2303 3631 2464 
Q 3781 2625 3986 2689 
Q 4191 2753 4428 2753 
Q 4653 2753 4853 2689 
Q 5053 2625 5201 2464 
Q 5350 2303 5436 2033 
Q 5522 1763 5522 1350 
z
M 1725 0 
L 1081 0 
L 3956 4403 
L 4609 4403 
L 1725 0 
z
M 1275 4453 
Q 1500 4453 1700 4389 
Q 1900 4325 2050 4165 
Q 2200 4006 2287 3736 
Q 2375 3466 2375 3053 
Q 2375 2663 2287 2394 
Q 2200 2125 2048 1959 
Q 1897 1794 1694 1722 
Q 1491 1650 1259 1650 
Q 1031 1650 829 1722 
Q 628 1794 479 1958 
Q 331 2122 245 2390 
Q 159 2659 159 3053 
Q 159 3466 243 3736 
Q 328 4006 478 4165 
Q 628 4325 833 4389 
Q 1038 4453 1275 4453 
z
M 4850 1350 
Q 4850 1622 4823 1800 
Q 4797 1978 4744 2083 
Q 4691 2188 4612 2230 
Q 4534 2272 4428 2272 
Q 4313 2272 4230 2230 
Q 4147 2188 4094 2081 
Q 4041 1975 4014 1797 
Q 3988 1619 3988 1350 
Q 3988 1088 4013 914 
Q 4038 741 4092 634 
Q 4147 528 4228 484 
Q 4309 441 4422 441 
Q 4525 441 4604 484 
Q 4684 528 4739 633 
Q 4794 738 4822 913 
Q 4850 1088 4850 1350 
z
M 1697 3053 
Q 1697 3322 1670 3498 
Q 1644 3675 1591 3779 
Q 1538 3884 1459 3926 
Q 1381 3969 1275 3969 
Q 1159 3969 1075 3925 
Q 991 3881 937 3776 
Q 884 3672 857 3495 
Q 831 3319 831 3053 
Q 831 2791 857 2616 
Q 884 2441 939 2334 
Q 994 2228 1075 2183 
Q 1156 2138 1269 2138 
Q 1375 2138 1454 2181 
Q 1534 2225 1589 2331 
Q 1644 2438 1670 2614 
Q 1697 2791 1697 3053 
z
" transform="scale(0.015625)"/>
     </defs>
     <use xlink:href="#LiberationSans-Bold-39"/>
     <use xlink:href="#LiberationSans-Bold-32" transform="translate(55.615234 0)"/>
     <use xlink:href="#LiberationSans-Bold-25" transform="translate(111.230469 0)"/>
    </g>
   </g>
   <g id="text_14">
    <!-- 88% -->
    <g style="fill: #262626" transform="translate(187.168094 56.384903) scale(0.1 -0.1)">
     <defs>
      <path id="LiberationSans-Bold-38" d="M 3363 1241 
Q 3363 956 3269 717 
Q 3175 478 2981 304 
Q 2788 131 2491 34 
Q 2194 -63 1784 -63 
Q 1378 -63 1079 34 
Q 781 131 586 304 
Q 391 478 297 715 
Q 203 953 203 1234 
Q 203 1475 278 1661 
Q 353 1847 478 1981 
Q 603 2116 765 2195 
Q 928 2275 1100 2303 
L 1100 2316 
Q 916 2356 769 2450 
Q 622 2544 519 2675 
Q 416 2806 361 2967 
Q 306 3128 306 3303 
Q 306 3566 401 3781 
Q 497 3997 681 4150 
Q 866 4303 1139 4386 
Q 1413 4469 1772 4469 
Q 2156 4469 2436 4383 
Q 2716 4297 2897 4142 
Q 3078 3988 3165 3772 
Q 3253 3556 3253 3297 
Q 3253 3125 3198 2964 
Q 3144 2803 3041 2672 
Q 2938 2541 2789 2450 
Q 2641 2359 2453 2322 
L 2453 2309 
Q 2647 2278 2814 2195 
Q 2981 2113 3103 1980 
Q 3225 1847 3294 1661 
Q 3363 1475 3363 1241 
z
M 2350 3250 
Q 2350 3381 2322 3492 
Q 2294 3603 2228 3683 
Q 2163 3763 2052 3808 
Q 1941 3853 1772 3853 
Q 1609 3853 1500 3808 
Q 1391 3763 1325 3683 
Q 1259 3603 1231 3492 
Q 1203 3381 1203 3250 
Q 1203 3134 1226 3021 
Q 1250 2909 1312 2820 
Q 1375 2731 1487 2675 
Q 1600 2619 1778 2619 
Q 1966 2619 2080 2675 
Q 2194 2731 2253 2822 
Q 2313 2913 2331 3025 
Q 2350 3138 2350 3250 
z
M 2453 1313 
Q 2453 1447 2423 1572 
Q 2394 1697 2317 1792 
Q 2241 1888 2106 1945 
Q 1972 2003 1766 2003 
Q 1578 2003 1451 1945 
Q 1325 1888 1248 1791 
Q 1172 1694 1139 1567 
Q 1106 1441 1106 1300 
Q 1106 1134 1139 996 
Q 1172 859 1251 761 
Q 1331 663 1462 609 
Q 1594 556 1791 556 
Q 1988 556 2116 611 
Q 2244 666 2319 766 
Q 2394 866 2423 1005 
Q 2453 1144 2453 1313 
z
" transform="scale(0.015625)"/>
     </defs>
     <use xlink:href="#LiberationSans-Bold-38"/>
     <use xlink:href="#LiberationSans-Bold-38" transform="translate(55.615234 0)"/>
     <use xlink:href="#LiberationSans-Bold-25" transform="translate(111.230469 0)"/>
    </g>
   </g>
   <g id="text_15">
    <!-- 95% -->
    <g style="fill: #262626" transform="translate(298.23689 34.151574) scale(0.1 -0.1)">
     <defs>
      <path id="LiberationSans-Bold-35" d="M 3381 1466 
Q 3381 1134 3276 854 
Q 3172 575 2965 370 
Q 2759 166 2454 51 
Q 2150 -63 1750 -63 
Q 1381 -63 1106 26 
Q 831 116 642 273 
Q 453 431 345 643 
Q 238 856 197 1100 
L 1075 1172 
Q 1100 1069 1145 972 
Q 1191 875 1272 800 
Q 1353 725 1472 679 
Q 1591 634 1759 634 
Q 2088 634 2283 843 
Q 2478 1053 2478 1447 
Q 2478 1622 2429 1762 
Q 2381 1903 2292 2003 
Q 2203 2103 2073 2156 
Q 1944 2209 1778 2209 
Q 1559 2209 1418 2126 
Q 1278 2044 1181 1925 
L 325 1925 
L 478 4403 
L 3125 4403 
L 3125 3750 
L 1275 3750 
L 1203 2638 
Q 1334 2753 1534 2836 
Q 1734 2919 2000 2919 
Q 2325 2919 2581 2812 
Q 2838 2706 3016 2515 
Q 3194 2325 3287 2058 
Q 3381 1791 3381 1466 
z
" transform="scale(0.015625)"/>
     </defs>
     <use xlink:href="#LiberationSans-Bold-39"/>
     <use xlink:href="#LiberationSans-Bold-35" transform="translate(55.615234 0)"/>
     <use xlink:href="#LiberationSans-Bold-25" transform="translate(111.230469 0)"/>
    </g>
   </g>
   <g id="text_16">
    <!-- 76% -->
    <g style="fill: #262626" transform="translate(409.305686 94.49918) scale(0.1 -0.1)">
     <defs>
      <path id="LiberationSans-Bold-37" d="M 3278 3706 
Q 2981 3238 2717 2797 
Q 2453 2356 2256 1911 
Q 2059 1466 1945 995 
Q 1831 525 1831 0 
L 916 0 
Q 916 522 1039 992 
Q 1163 1463 1375 1909 
Q 1588 2356 1869 2792 
Q 2150 3228 2463 3681 
L 275 3681 
L 275 4403 
L 3278 4403 
L 3278 3706 
z
" transform="scale(0.015625)"/>
      <path id="LiberationSans-Bold-36" d="M 3328 1441 
Q 3328 1109 3234 832 
Q 3141 556 2955 357 
Q 2769 159 2491 48 
Q 2213 -63 1847 -63 
Q 1069 -63 651 482 
Q 234 1028 234 2100 
Q 234 3278 657 3873 
Q 1081 4469 1869 4469 
Q 2131 4469 2347 4414 
Q 2563 4359 2731 4237 
Q 2900 4116 3019 3923 
Q 3138 3731 3209 3456 
L 2381 3341 
Q 2319 3572 2178 3673 
Q 2038 3775 1850 3775 
Q 1497 3775 1295 3422 
Q 1094 3069 1094 2350 
Q 1234 2584 1484 2709 
Q 1734 2834 2050 2834 
Q 2341 2834 2577 2739 
Q 2813 2644 2980 2464 
Q 3147 2284 3237 2025 
Q 3328 1766 3328 1441 
z
M 2447 1416 
Q 2447 1594 2406 1736 
Q 2366 1878 2283 1978 
Q 2200 2078 2078 2133 
Q 1956 2188 1797 2188 
Q 1681 2188 1565 2150 
Q 1450 2113 1359 2030 
Q 1269 1947 1212 1819 
Q 1156 1691 1156 1509 
Q 1156 1322 1203 1159 
Q 1250 997 1336 876 
Q 1422 756 1544 689 
Q 1666 622 1819 622 
Q 2116 622 2281 833 
Q 2447 1044 2447 1416 
z
" transform="scale(0.015625)"/>
     </defs>
     <use xlink:href="#LiberationSans-Bold-37"/>
     <use xlink:href="#LiberationSans-Bold-36" transform="translate(55.615234 0)"/>
     <use xlink:href="#LiberationSans-Bold-25" transform="translate(111.230469 0)"/>
    </g>
   </g>
   <g id="text_17">
    <!-- 98% -->
    <g style="fill: #262626" transform="translate(114.973376 24.623005) scale(0.1 -0.1)">
     <use xlink:href="#LiberationSans-Bold-39"/>
     <use xlink:href="#LiberationSans-Bold-38" transform="translate(55.615234 0)"/>
     <use xlink:href="#LiberationSans-Bold-25" transform="translate(111.230469 0)"/>
    </g>
   </g>
   <g id="text_18">
    <!-- 95% -->
    <g style="fill: #262626" transform="translate(226.042173 34.151574) scale(0.1 -0.1)">
     <use xlink:href="#LiberationSans-Bold-39"/>
     <use xlink:href="#LiberationSans-Bold-35" transform="translate(55.615234 0)"/>
     <use xlink:href="#LiberationSans-Bold-25" transform="translate(111.230469 0)"/>
    </g>
   </g>
   <g id="text_19">
    <!-- 98% -->
    <g style="fill: #262626" transform="translate(337.110969 24.623005) scale(0.1 -0.1)">
     <use xlink:href="#LiberationSans-Bold-39"/>
     <use xlink:href="#LiberationSans-Bold-38" transform="translate(55.615234 0)"/>
     <use xlink:href="#LiberationSans-Bold-25" transform="translate(111.230469 0)"/>
    </g>
   </g>
   <g id="text_20">
    <!-- 90% -->
    <g style="fill: #262626" transform="translate(448.179765 50.032523) scale(0.1 -0.1)">
     <defs>
      <path id="LiberationSans-Bold-30" d="M 3297 2203 
Q 3297 1572 3181 1139 
Q 3066 706 2861 439 
Q 2656 172 2376 54 
Q 2097 -63 1766 -63 
Q 1434 -63 1156 53 
Q 878 169 678 436 
Q 478 703 365 1136 
Q 253 1569 253 2203 
Q 253 2869 364 3305 
Q 475 3741 678 4000 
Q 881 4259 1164 4364 
Q 1447 4469 1791 4469 
Q 2113 4469 2389 4364 
Q 2666 4259 2867 4000 
Q 3069 3741 3183 3305 
Q 3297 2869 3297 2203 
z
M 2416 2203 
Q 2416 2669 2381 2973 
Q 2347 3278 2272 3458 
Q 2197 3638 2076 3709 
Q 1956 3781 1784 3781 
Q 1600 3781 1475 3707 
Q 1350 3634 1273 3453 
Q 1197 3272 1164 2967 
Q 1131 2663 1131 2203 
Q 1131 1750 1165 1447 
Q 1200 1144 1275 961 
Q 1350 778 1472 703 
Q 1594 628 1772 628 
Q 1944 628 2066 703 
Q 2188 778 2266 961 
Q 2344 1144 2380 1447 
Q 2416 1750 2416 2203 
z
" transform="scale(0.015625)"/>
     </defs>
     <use xlink:href="#LiberationSans-Bold-39"/>
     <use xlink:href="#LiberationSans-Bold-30" transform="translate(55.615234 0)"/>
     <use xlink:href="#LiberationSans-Bold-25" transform="translate(111.230469 0)"/>
    </g>
   </g>
   <g id="text_21">
    <!-- PII Protection Status - Truist Bank -->
    <g style="fill: #262626" transform="translate(159.355781 17.345625) scale(0.14 -0.14)">
     <defs>
      <path id="LiberationSans-Bold-53" d="M 4019 1269 
Q 4019 969 3909 723 
Q 3800 478 3570 303 
Q 3341 128 2983 32 
Q 2625 -63 2131 -63 
Q 1694 -63 1359 15 
Q 1025 94 786 247 
Q 547 400 398 626 
Q 250 853 184 1147 
L 1075 1294 
Q 1113 1147 1184 1025 
Q 1256 903 1382 814 
Q 1509 725 1698 676 
Q 1888 628 2156 628 
Q 2625 628 2873 770 
Q 3122 913 3122 1216 
Q 3122 1397 3022 1512 
Q 2922 1628 2756 1703 
Q 2591 1778 2375 1828 
Q 2159 1878 1925 1925 
Q 1738 1969 1550 2016 
Q 1363 2063 1192 2128 
Q 1022 2194 875 2284 
Q 728 2375 620 2508 
Q 513 2641 452 2819 
Q 391 2997 391 3238 
Q 391 3566 522 3800 
Q 653 4034 886 4182 
Q 1119 4331 1441 4400 
Q 1763 4469 2144 4469 
Q 2575 4469 2883 4401 
Q 3191 4334 3398 4196 
Q 3606 4059 3726 3851 
Q 3847 3644 3903 3366 
L 3009 3244 
Q 2941 3528 2730 3672 
Q 2519 3816 2125 3816 
Q 1881 3816 1720 3773 
Q 1559 3731 1464 3659 
Q 1369 3588 1328 3492 
Q 1288 3397 1288 3291 
Q 1288 3128 1366 3023 
Q 1444 2919 1584 2848 
Q 1725 2778 1920 2729 
Q 2116 2681 2350 2631 
Q 2556 2588 2759 2539 
Q 2963 2491 3147 2425 
Q 3331 2359 3490 2265 
Q 3650 2172 3767 2036 
Q 3884 1900 3951 1712 
Q 4019 1525 4019 1269 
z
" transform="scale(0.015625)"/>
      <path id="LiberationSans-Bold-75" d="M 1275 3381 
L 1275 1484 
Q 1275 1288 1306 1123 
Q 1338 959 1409 842 
Q 1481 725 1595 659 
Q 1709 594 1875 594 
Q 2034 594 2164 664 
Q 2294 734 2387 864 
Q 2481 994 2532 1173 
Q 2584 1353 2584 1569 
L 2584 3381 
L 3463 3381 
L 3463 756 
Q 3463 650 3464 533 
Q 3466 416 3470 311 
Q 3475 206 3479 123 
Q 3484 41 3488 0 
L 2650 0 
Q 2647 38 2639 120 
Q 2631 203 2626 303 
Q 2622 403 2617 503 
Q 2613 603 2613 672 
L 2597 672 
Q 2422 288 2151 112 
Q 1881 -63 1509 -63 
Q 1206 -63 993 37 
Q 781 138 648 311 
Q 516 484 456 721 
Q 397 959 397 1234 
L 397 3381 
L 1275 3381 
z
" transform="scale(0.015625)"/>
      <path id="LiberationSans-Bold-2d" d="M 250 1278 
L 250 2041 
L 1875 2041 
L 1875 1278 
L 250 1278 
z
" transform="scale(0.015625)"/>
      <path id="LiberationSans-Bold-54" d="M 2416 3691 
L 2416 0 
L 1494 0 
L 1494 3691 
L 72 3691 
L 72 4403 
L 3841 4403 
L 3841 3691 
L 2416 3691 
z
" transform="scale(0.015625)"/>
      <path id="LiberationSans-Bold-42" d="M 4331 1256 
Q 4331 922 4197 683 
Q 4063 444 3830 292 
Q 3597 141 3287 70 
Q 2978 0 2631 0 
L 428 0 
L 428 4403 
L 2444 4403 
Q 2834 4403 3139 4336 
Q 3444 4269 3653 4131 
Q 3863 3994 3970 3786 
Q 4078 3578 4078 3297 
Q 4078 2922 3870 2664 
Q 3663 2406 3238 2316 
Q 3772 2253 4051 1979 
Q 4331 1706 4331 1256 
z
M 3150 3172 
Q 3150 3469 2961 3594 
Q 2772 3719 2400 3719 
L 1350 3719 
L 1350 2628 
L 2406 2628 
Q 2797 2628 2973 2764 
Q 3150 2900 3150 3172 
z
M 3406 1328 
Q 3406 1503 3337 1622 
Q 3269 1741 3148 1812 
Q 3028 1884 2867 1915 
Q 2706 1947 2519 1947 
L 1350 1947 
L 1350 684 
L 2553 684 
Q 2734 684 2890 714 
Q 3047 744 3161 817 
Q 3275 891 3340 1016 
Q 3406 1141 3406 1328 
z
" transform="scale(0.015625)"/>
      <path id="LiberationSans-Bold-6b" d="M 2606 0 
L 1703 1531 
L 1325 1269 
L 1325 0 
L 447 0 
L 447 4638 
L 1325 4638 
L 1325 1981 
L 2531 3381 
L 3475 3381 
L 2288 2063 
L 3566 0 
L 2606 0 
z
" transform="scale(0.015625)"/>
     </defs>
     <use xlink:href="#LiberationSans-Bold-50"/>
     <use xlink:href="#LiberationSans-Bold-49" transform="translate(66.699219 0)"/>
     <use xlink:href="#LiberationSans-Bold-49" transform="translate(94.482422 0)"/>
     <use xlink:href="#LiberationSans-Bold-20" transform="translate(122.265625 0)"/>
     <use xlink:href="#LiberationSans-Bold-50" transform="translate(150.048828 0)"/>
     <use xlink:href="#LiberationSans-Bold-72" transform="translate(216.748047 0)"/>
     <use xlink:href="#LiberationSans-Bold-6f" transform="translate(255.664062 0)"/>
     <use xlink:href="#LiberationSans-Bold-74" transform="translate(316.748047 0)"/>
     <use xlink:href="#LiberationSans-Bold-65" transform="translate(350.048828 0)"/>
     <use xlink:href="#LiberationSans-Bold-63" transform="translate(405.664062 0)"/>
     <use xlink:href="#LiberationSans-Bold-74" transform="translate(461.279297 0)"/>
     <use xlink:href="#LiberationSans-Bold-69" transform="translate(494.580078 0)"/>
     <use xlink:href="#LiberationSans-Bold-6f" transform="translate(522.363281 0)"/>
     <use xlink:href="#LiberationSans-Bold-6e" transform="translate(583.447266 0)"/>
     <use xlink:href="#LiberationSans-Bold-20" transform="translate(644.53125 0)"/>
     <use xlink:href="#LiberationSans-Bold-53" transform="translate(672.314453 0)"/>
     <use xlink:href="#LiberationSans-Bold-74" transform="translate(739.013672 0)"/>
     <use xlink:href="#LiberationSans-Bold-61" transform="translate(772.314453 0)"/>
     <use xlink:href="#LiberationSans-Bold-74" transform="translate(827.929688 0)"/>
     <use xlink:href="#LiberationSans-Bold-75" transform="translate(861.230469 0)"/>
     <use xlink:href="#LiberationSans-Bold-73" transform="translate(922.314453 0)"/>
     <use xlink:href="#LiberationSans-Bold-20" transform="translate(977.929688 0)"/>
     <use xlink:href="#LiberationSans-Bold-2d" transform="translate(1005.712891 0)"/>
     <use xlink:href="#LiberationSans-Bold-20" transform="translate(1039.013672 0)"/>
     <use xlink:href="#LiberationSans-Bold-54" transform="translate(1066.796875 0)"/>
     <use xlink:href="#LiberationSans-Bold-72" transform="translate(1122.380859 0)"/>
     <use xlink:href="#LiberationSans-Bold-75" transform="translate(1161.296875 0)"/>
     <use xlink:href="#LiberationSans-Bold-69" transform="translate(1222.380859 0)"/>
     <use xlink:href="#LiberationSans-Bold-73" transform="translate(1250.164062 0)"/>
     <use xlink:href="#LiberationSans-Bold-74" transform="translate(1305.779297 0)"/>
     <use xlink:href="#LiberationSans-Bold-20" transform="translate(1339.080078 0)"/>
     <use xlink:href="#LiberationSans-Bold-42" transform="translate(1366.863281 0)"/>
     <use xlink:href="#LiberationSans-Bold-61" transform="translate(1439.080078 0)"/>
     <use xlink:href="#LiberationSans-Bold-6e" transform="translate(1494.695312 0)"/>
     <use xlink:href="#LiberationSans-Bold-6b" transform="translate(1555.779297 0)"/>
    </g>
   </g>
   <g id="legend_1">
    <g id="patch_15">
     <path d="M 427.829375 39.5925 
L 447.829375 39.5925 
L 447.829375 32.5925 
L 427.829375 32.5925 
z
" style="fill: #add8e6; opacity: 0.8"/>
    </g>
    <g id="text_22">
     <!-- Current -->
     <g style="fill: #262626" transform="translate(455.829375 39.5925) scale(0.1 -0.1)">
      <use xlink:href="#LiberationSans-43"/>
      <use xlink:href="#LiberationSans-75" transform="translate(72.216797 0)"/>
      <use xlink:href="#LiberationSans-72" transform="translate(127.832031 0)"/>
      <use xlink:href="#LiberationSans-72" transform="translate(161.132812 0)"/>
      <use xlink:href="#LiberationSans-65" transform="translate(194.433594 0)"/>
      <use xlink:href="#LiberationSans-6e" transform="translate(250.048828 0)"/>
      <use xlink:href="#LiberationSans-74" transform="translate(305.664062 0)"/>
     </g>
    </g>
    <g id="patch_16">
     <path d="M 427.829375 53.914375 
L 447.829375 53.914375 
L 447.829375 46.914375 
L 427.829375 46.914375 
z
" style="fill: #00008b; opacity: 0.8"/>
    </g>
    <g id="text_23">
     <!-- Target -->
     <g style="fill: #262626" transform="translate(455.829375 53.914375) scale(0.1 -0.1)">
      <defs>
       <path id="LiberationSans-54" d="M 2250 3916 
L 2250 0 
L 1656 0 
L 1656 3916 
L 144 3916 
L 144 4403 
L 3763 4403 
L 3763 3916 
L 2250 3916 
z
" transform="scale(0.015625)"/>
       <path id="LiberationSans-67" d="M 1713 -1328 
Q 1422 -1328 1197 -1268 
Q 972 -1209 812 -1098 
Q 653 -988 553 -834 
Q 453 -681 409 -494 
L 975 -413 
Q 1031 -647 1223 -773 
Q 1416 -900 1728 -900 
Q 1919 -900 2075 -847 
Q 2231 -794 2340 -676 
Q 2450 -559 2509 -371 
Q 2569 -184 2569 84 
L 2569 628 
L 2563 628 
Q 2500 500 2408 383 
Q 2316 266 2183 175 
Q 2050 84 1875 29 
Q 1700 -25 1475 -25 
Q 1153 -25 923 83 
Q 694 191 548 406 
Q 403 622 336 942 
Q 269 1263 269 1684 
Q 269 2091 336 2416 
Q 403 2741 554 2967 
Q 706 3194 948 3314 
Q 1191 3434 1538 3434 
Q 1897 3434 2161 3270 
Q 2425 3106 2569 2803 
L 2575 2803 
Q 2575 2881 2579 2978 
Q 2584 3075 2589 3161 
Q 2594 3247 2600 3309 
Q 2606 3372 2613 3381 
L 3147 3381 
Q 3144 3353 3141 3286 
Q 3138 3219 3134 3125 
Q 3131 3031 3129 2917 
Q 3128 2803 3128 2681 
L 3128 97 
Q 3128 -613 2779 -970 
Q 2431 -1328 1713 -1328 
z
M 2569 1691 
Q 2569 2044 2492 2295 
Q 2416 2547 2291 2706 
Q 2166 2866 2005 2941 
Q 1844 3016 1675 3016 
Q 1459 3016 1304 2941 
Q 1150 2866 1048 2705 
Q 947 2544 898 2292 
Q 850 2041 850 1691 
Q 850 1325 898 1076 
Q 947 828 1047 675 
Q 1147 522 1300 456 
Q 1453 391 1666 391 
Q 1834 391 1995 462 
Q 2156 534 2284 690 
Q 2413 847 2491 1094 
Q 2569 1341 2569 1691 
z
" transform="scale(0.015625)"/>
      </defs>
      <use xlink:href="#LiberationSans-54"/>
      <use xlink:href="#LiberationSans-61" transform="translate(49.958984 0)"/>
      <use xlink:href="#LiberationSans-72" transform="translate(105.574219 0)"/>
      <use xlink:href="#LiberationSans-67" transform="translate(138.875 0)"/>
      <use xlink:href="#LiberationSans-65" transform="translate(194.490234 0)"/>
      <use xlink:href="#LiberationSans-74" transform="translate(250.105469 0)"/>
     </g>
    </g>
   </g>
  </g>
  <g id="axes_2">
   <g id="patch_17">
    <path d="M 542.021562 340.964606 
L 994.071563 340.964606 
L 994.071563 23.345625 
L 542.021562 23.345625 
z
" style="fill: #eaeaf2"/>
   </g>
   <g id="matplotlib.axis_3">
    <g id="xtick_5">
     <g id="line2d_21">
      <path d="M 605.827663 340.964606 
L 605.827663 23.345625 
" clip-path="url(#p40b54ba705)" style="fill: none; stroke: #ffffff; stroke-opacity: 0.3; stroke-linecap: round"/>
     </g>
     <g id="line2d_22"/>
     <g id="text_24">
      <!-- Customer Data -->
      <g style="fill: #262626" transform="translate(583.882494 400.636327) rotate(-45) scale(0.1 -0.1)">
       <use xlink:href="#LiberationSans-43"/>
       <use xlink:href="#LiberationSans-75" transform="translate(72.216797 0)"/>
       <use xlink:href="#LiberationSans-73" transform="translate(127.832031 0)"/>
       <use xlink:href="#LiberationSans-74" transform="translate(177.832031 0)"/>
       <use xlink:href="#LiberationSans-6f" transform="translate(205.615234 0)"/>
       <use xlink:href="#LiberationSans-6d" transform="translate(261.230469 0)"/>
       <use xlink:href="#LiberationSans-65" transform="translate(344.53125 0)"/>
       <use xlink:href="#LiberationSans-72" transform="translate(400.146484 0)"/>
       <use xlink:href="#LiberationSans-20" transform="translate(433.447266 0)"/>
       <use xlink:href="#LiberationSans-44" transform="translate(461.230469 0)"/>
       <use xlink:href="#LiberationSans-61" transform="translate(533.447266 0)"/>
       <use xlink:href="#LiberationSans-74" transform="translate(589.0625 0)"/>
       <use xlink:href="#LiberationSans-61" transform="translate(616.845703 0)"/>
      </g>
     </g>
    </g>
    <g id="xtick_6">
     <g id="line2d_23">
      <path d="M 713.973596 340.964606 
L 713.973596 23.345625 
" clip-path="url(#p40b54ba705)" style="fill: none; stroke: #ffffff; stroke-opacity: 0.3; stroke-linecap: round"/>
     </g>
     <g id="line2d_24"/>
     <g id="text_25">
      <!-- Employee Data -->
      <g style="fill: #262626" transform="translate(691.631231 401.430717) rotate(-45) scale(0.1 -0.1)">
       <use xlink:href="#LiberationSans-45"/>
       <use xlink:href="#LiberationSans-6d" transform="translate(66.699219 0)"/>
       <use xlink:href="#LiberationSans-70" transform="translate(150 0)"/>
       <use xlink:href="#LiberationSans-6c" transform="translate(205.615234 0)"/>
       <use xlink:href="#LiberationSans-6f" transform="translate(227.832031 0)"/>
       <use xlink:href="#LiberationSans-79" transform="translate(283.447266 0)"/>
       <use xlink:href="#LiberationSans-65" transform="translate(333.447266 0)"/>
       <use xlink:href="#LiberationSans-65" transform="translate(389.0625 0)"/>
       <use xlink:href="#LiberationSans-20" transform="translate(444.677734 0)"/>
       <use xlink:href="#LiberationSans-44" transform="translate(472.460938 0)"/>
       <use xlink:href="#LiberationSans-61" transform="translate(544.677734 0)"/>
       <use xlink:href="#LiberationSans-74" transform="translate(600.292969 0)"/>
       <use xlink:href="#LiberationSans-61" transform="translate(628.076172 0)"/>
      </g>
     </g>
    </g>
    <g id="xtick_7">
     <g id="line2d_25">
      <path d="M 822.119529 340.964606 
L 822.119529 23.345625 
" clip-path="url(#p40b54ba705)" style="fill: none; stroke: #ffffff; stroke-opacity: 0.3; stroke-linecap: round"/>
     </g>
     <g id="line2d_26"/>
     <g id="text_26">
      <!-- Financial Data -->
      <g style="fill: #262626" transform="translate(801.349925 398.285197) rotate(-45) scale(0.1 -0.1)">
       <use xlink:href="#LiberationSans-46"/>
       <use xlink:href="#LiberationSans-69" transform="translate(61.083984 0)"/>
       <use xlink:href="#LiberationSans-6e" transform="translate(83.300781 0)"/>
       <use xlink:href="#LiberationSans-61" transform="translate(138.916016 0)"/>
       <use xlink:href="#LiberationSans-6e" transform="translate(194.53125 0)"/>
       <use xlink:href="#LiberationSans-63" transform="translate(250.146484 0)"/>
       <use xlink:href="#LiberationSans-69" transform="translate(300.146484 0)"/>
       <use xlink:href="#LiberationSans-61" transform="translate(322.363281 0)"/>
       <use xlink:href="#LiberationSans-6c" transform="translate(377.978516 0)"/>
       <use xlink:href="#LiberationSans-20" transform="translate(400.195312 0)"/>
       <use xlink:href="#LiberationSans-44" transform="translate(427.978516 0)"/>
       <use xlink:href="#LiberationSans-61" transform="translate(500.195312 0)"/>
       <use xlink:href="#LiberationSans-74" transform="translate(555.810547 0)"/>
       <use xlink:href="#LiberationSans-61" transform="translate(583.59375 0)"/>
      </g>
     </g>
    </g>
    <g id="xtick_8">
     <g id="line2d_27">
      <path d="M 930.265462 340.964606 
L 930.265462 23.345625 
" clip-path="url(#p40b54ba705)" style="fill: none; stroke: #ffffff; stroke-opacity: 0.3; stroke-linecap: round"/>
     </g>
     <g id="line2d_28"/>
     <g id="text_27">
      <!-- Health Data -->
      <g style="fill: #262626" transform="translate(913.42472 390.427473) rotate(-45) scale(0.1 -0.1)">
       <use xlink:href="#LiberationSans-48"/>
       <use xlink:href="#LiberationSans-65" transform="translate(72.216797 0)"/>
       <use xlink:href="#LiberationSans-61" transform="translate(127.832031 0)"/>
       <use xlink:href="#LiberationSans-6c" transform="translate(183.447266 0)"/>
       <use xlink:href="#LiberationSans-74" transform="translate(205.664062 0)"/>
       <use xlink:href="#LiberationSans-68" transform="translate(233.447266 0)"/>
       <use xlink:href="#LiberationSans-20" transform="translate(289.0625 0)"/>
       <use xlink:href="#LiberationSans-44" transform="translate(316.845703 0)"/>
       <use xlink:href="#LiberationSans-61" transform="translate(389.0625 0)"/>
       <use xlink:href="#LiberationSans-74" transform="translate(444.677734 0)"/>
       <use xlink:href="#LiberationSans-61" transform="translate(472.460938 0)"/>
      </g>
     </g>
    </g>
    <g id="text_28">
     <!-- PII Data Categories -->
     <g style="fill: #262626" transform="translate(713.364062 415.594214) scale(0.12 -0.12)">
      <use xlink:href="#LiberationSans-Bold-50"/>
      <use xlink:href="#LiberationSans-Bold-49" transform="translate(66.699219 0)"/>
      <use xlink:href="#LiberationSans-Bold-49" transform="translate(94.482422 0)"/>
      <use xlink:href="#LiberationSans-Bold-20" transform="translate(122.265625 0)"/>
      <use xlink:href="#LiberationSans-Bold-44" transform="translate(150.048828 0)"/>
      <use xlink:href="#LiberationSans-Bold-61" transform="translate(222.265625 0)"/>
      <use xlink:href="#LiberationSans-Bold-74" transform="translate(277.880859 0)"/>
      <use xlink:href="#LiberationSans-Bold-61" transform="translate(311.181641 0)"/>
      <use xlink:href="#LiberationSans-Bold-20" transform="translate(366.796875 0)"/>
      <use xlink:href="#LiberationSans-Bold-43" transform="translate(394.580078 0)"/>
      <use xlink:href="#LiberationSans-Bold-61" transform="translate(466.796875 0)"/>
      <use xlink:href="#LiberationSans-Bold-74" transform="translate(522.412109 0)"/>
      <use xlink:href="#LiberationSans-Bold-65" transform="translate(555.712891 0)"/>
      <use xlink:href="#LiberationSans-Bold-67" transform="translate(611.328125 0)"/>
      <use xlink:href="#LiberationSans-Bold-6f" transform="translate(672.412109 0)"/>
      <use xlink:href="#LiberationSans-Bold-72" transform="translate(733.496094 0)"/>
      <use xlink:href="#LiberationSans-Bold-69" transform="translate(772.412109 0)"/>
      <use xlink:href="#LiberationSans-Bold-65" transform="translate(800.195312 0)"/>
      <use xlink:href="#LiberationSans-Bold-73" transform="translate(855.810547 0)"/>
     </g>
    </g>
   </g>
   <g id="matplotlib.axis_4">
    <g id="ytick_7">
     <g id="line2d_29">
      <path d="M 542.021562 340.964606 
L 994.071563 340.964606 
" clip-path="url(#p40b54ba705)" style="fill: none; stroke: #ffffff; stroke-opacity: 0.3; stroke-linecap: round"/>
     </g>
     <g id="line2d_30"/>
     <g id="text_29">
      <!-- 0 -->
      <g style="fill: #262626" transform="translate(529.460625 344.588043) scale(0.1 -0.1)">
       <use xlink:href="#LiberationSans-30"/>
      </g>
     </g>
    </g>
    <g id="ytick_8">
     <g id="line2d_31">
      <path d="M 542.021562 277.944967 
L 994.071563 277.944967 
" clip-path="url(#p40b54ba705)" style="fill: none; stroke: #ffffff; stroke-opacity: 0.3; stroke-linecap: round"/>
     </g>
     <g id="line2d_32"/>
     <g id="text_30">
      <!-- 5 -->
      <g style="fill: #262626" transform="translate(529.460625 281.568404) scale(0.1 -0.1)">
       <defs>
        <path id="LiberationSans-35" d="M 3291 1434 
Q 3291 1103 3191 828 
Q 3091 553 2894 354 
Q 2697 156 2405 46 
Q 2113 -63 1728 -63 
Q 1381 -63 1123 18 
Q 866 100 687 242 
Q 509 384 404 575 
Q 300 766 256 984 
L 825 1050 
Q 859 925 921 808 
Q 984 691 1092 598 
Q 1200 506 1358 451 
Q 1516 397 1741 397 
Q 1959 397 2137 464 
Q 2316 531 2442 662 
Q 2569 794 2637 984 
Q 2706 1175 2706 1422 
Q 2706 1625 2640 1795 
Q 2575 1966 2453 2089 
Q 2331 2213 2154 2281 
Q 1978 2350 1753 2350 
Q 1613 2350 1494 2325 
Q 1375 2300 1273 2256 
Q 1172 2213 1089 2155 
Q 1006 2097 934 2034 
L 384 2034 
L 531 4403 
L 3034 4403 
L 3034 3925 
L 1044 3925 
L 959 2528 
Q 1109 2644 1334 2726 
Q 1559 2809 1869 2809 
Q 2197 2809 2459 2709 
Q 2722 2609 2906 2426 
Q 3091 2244 3191 1991 
Q 3291 1738 3291 1434 
z
" transform="scale(0.015625)"/>
       </defs>
       <use xlink:href="#LiberationSans-35"/>
      </g>
     </g>
    </g>
    <g id="ytick_9">
     <g id="line2d_33">
      <path d="M 542.021562 214.925328 
L 994.071563 214.925328 
" clip-path="url(#p40b54ba705)" style="fill: none; stroke: #ffffff; stroke-opacity: 0.3; stroke-linecap: round"/>
     </g>
     <g id="line2d_34"/>
     <g id="text_31">
      <!-- 10 -->
      <g style="fill: #262626" transform="translate(523.899687 218.548765) scale(0.1 -0.1)">
       <use xlink:href="#LiberationSans-31"/>
       <use xlink:href="#LiberationSans-30" transform="translate(55.615234 0)"/>
      </g>
     </g>
    </g>
    <g id="ytick_10">
     <g id="line2d_35">
      <path d="M 542.021562 151.905689 
L 994.071563 151.905689 
" clip-path="url(#p40b54ba705)" style="fill: none; stroke: #ffffff; stroke-opacity: 0.3; stroke-linecap: round"/>
     </g>
     <g id="line2d_36"/>
     <g id="text_32">
      <!-- 15 -->
      <g style="fill: #262626" transform="translate(523.899687 155.529126) scale(0.1 -0.1)">
       <use xlink:href="#LiberationSans-31"/>
       <use xlink:href="#LiberationSans-35" transform="translate(55.615234 0)"/>
      </g>
     </g>
    </g>
    <g id="ytick_11">
     <g id="line2d_37">
      <path d="M 542.021562 88.88605 
L 994.071563 88.88605 
" clip-path="url(#p40b54ba705)" style="fill: none; stroke: #ffffff; stroke-opacity: 0.3; stroke-linecap: round"/>
     </g>
     <g id="line2d_38"/>
     <g id="text_33">
      <!-- 20 -->
      <g style="fill: #262626" transform="translate(523.899687 92.509487) scale(0.1 -0.1)">
       <use xlink:href="#LiberationSans-32"/>
       <use xlink:href="#LiberationSans-30" transform="translate(55.615234 0)"/>
      </g>
     </g>
    </g>
    <g id="ytick_12">
     <g id="line2d_39">
      <path d="M 542.021562 25.866411 
L 994.071563 25.866411 
" clip-path="url(#p40b54ba705)" style="fill: none; stroke: #ffffff; stroke-opacity: 0.3; stroke-linecap: round"/>
     </g>
     <g id="line2d_40"/>
     <g id="text_34">
      <!-- 25 -->
      <g style="fill: #262626" transform="translate(523.899687 29.489848) scale(0.1 -0.1)">
       <use xlink:href="#LiberationSans-32"/>
       <use xlink:href="#LiberationSans-35" transform="translate(55.615234 0)"/>
      </g>
     </g>
    </g>
    <g id="text_35">
     <!-- Risk Exposure (%) -->
     <g style="fill: #262626" transform="translate(517.409687 234.834178) rotate(-90) scale(0.12 -0.12)">
      <defs>
       <path id="LiberationSans-Bold-52" d="M 3453 0 
L 2431 1672 
L 1350 1672 
L 1350 0 
L 428 0 
L 428 4403 
L 2628 4403 
Q 3041 4403 3348 4311 
Q 3656 4219 3862 4048 
Q 4069 3878 4170 3636 
Q 4272 3394 4272 3091 
Q 4272 2844 4198 2639 
Q 4125 2434 3995 2275 
Q 3866 2116 3687 2008 
Q 3509 1900 3300 1850 
L 4491 0 
L 3453 0 
z
M 3344 3053 
Q 3344 3375 3133 3531 
Q 2922 3688 2531 3688 
L 1350 3688 
L 1350 2388 
L 2556 2388 
Q 2763 2388 2911 2436 
Q 3059 2484 3154 2573 
Q 3250 2663 3297 2784 
Q 3344 2906 3344 3053 
z
" transform="scale(0.015625)"/>
       <path id="LiberationSans-Bold-45" d="M 428 0 
L 428 4403 
L 3891 4403 
L 3891 3691 
L 1350 3691 
L 1350 2584 
L 3700 2584 
L 3700 1872 
L 1350 1872 
L 1350 713 
L 4019 713 
L 4019 0 
L 428 0 
z
" transform="scale(0.015625)"/>
       <path id="LiberationSans-Bold-78" d="M 2559 0 
L 1772 1225 
L 978 0 
L 44 0 
L 1281 1747 
L 103 3381 
L 1050 3381 
L 1772 2275 
L 2491 3381 
L 3444 3381 
L 2266 1756 
L 3513 0 
L 2559 0 
z
" transform="scale(0.015625)"/>
       <path id="LiberationSans-Bold-70" d="M 3647 1706 
Q 3647 1322 3570 997 
Q 3494 672 3334 437 
Q 3175 203 2929 70 
Q 2684 -63 2350 -63 
Q 2200 -63 2051 -31 
Q 1903 0 1768 70 
Q 1634 141 1520 255 
Q 1406 369 1325 538 
L 1306 538 
Q 1309 522 1312 459 
Q 1316 397 1319 314 
Q 1322 231 1323 139 
Q 1325 47 1325 -31 
L 1325 -1328 
L 447 -1328 
L 447 2603 
Q 447 2863 439 3066 
Q 431 3269 422 3381 
L 1275 3381 
Q 1281 3359 1289 3296 
Q 1297 3234 1301 3153 
Q 1306 3072 1309 2984 
Q 1313 2897 1313 2831 
L 1325 2831 
Q 1484 3166 1762 3309 
Q 2041 3453 2406 3453 
Q 2728 3453 2962 3322 
Q 3197 3191 3348 2959 
Q 3500 2728 3573 2408 
Q 3647 2088 3647 1706 
z
M 2731 1706 
Q 2731 2284 2556 2564 
Q 2381 2844 2034 2844 
Q 1903 2844 1773 2789 
Q 1644 2734 1542 2601 
Q 1441 2469 1377 2245 
Q 1313 2022 1313 1681 
Q 1313 1350 1375 1129 
Q 1438 909 1539 778 
Q 1641 647 1769 592 
Q 1897 538 2028 538 
Q 2197 538 2328 605 
Q 2459 672 2548 814 
Q 2638 956 2684 1178 
Q 2731 1400 2731 1706 
z
" transform="scale(0.015625)"/>
       <path id="LiberationSans-Bold-28" d="M 1247 -1328 
Q 1006 -981 831 -637 
Q 656 -294 542 68 
Q 428 431 373 823 
Q 319 1216 319 1659 
Q 319 2106 373 2495 
Q 428 2884 542 3245 
Q 656 3606 831 3948 
Q 1006 4291 1247 4638 
L 2125 4638 
Q 1875 4275 1697 3922 
Q 1519 3569 1405 3206 
Q 1291 2844 1237 2461 
Q 1184 2078 1184 1656 
Q 1184 1231 1237 848 
Q 1291 466 1405 103 
Q 1519 -259 1697 -611 
Q 1875 -963 2125 -1328 
L 1247 -1328 
z
" transform="scale(0.015625)"/>
       <path id="LiberationSans-Bold-29" d="M 6 -1328 
Q 256 -963 434 -611 
Q 613 -259 727 103 
Q 841 466 894 848 
Q 947 1231 947 1656 
Q 947 2078 894 2461 
Q 841 2844 727 3206 
Q 613 3569 434 3922 
Q 256 4275 6 4638 
L 884 4638 
Q 1125 4291 1300 3948 
Q 1475 3606 1589 3245 
Q 1703 2884 1758 2495 
Q 1813 2106 1813 1659 
Q 1813 1216 1758 823 
Q 1703 431 1589 68 
Q 1475 -294 1300 -637 
Q 1125 -981 884 -1328 
L 6 -1328 
z
" transform="scale(0.015625)"/>
      </defs>
      <use xlink:href="#LiberationSans-Bold-52"/>
      <use xlink:href="#LiberationSans-Bold-69" transform="translate(72.216797 0)"/>
      <use xlink:href="#LiberationSans-Bold-73" transform="translate(100 0)"/>
      <use xlink:href="#LiberationSans-Bold-6b" transform="translate(155.615234 0)"/>
      <use xlink:href="#LiberationSans-Bold-20" transform="translate(211.230469 0)"/>
      <use xlink:href="#LiberationSans-Bold-45" transform="translate(239.013672 0)"/>
      <use xlink:href="#LiberationSans-Bold-78" transform="translate(305.712891 0)"/>
      <use xlink:href="#LiberationSans-Bold-70" transform="translate(361.328125 0)"/>
      <use xlink:href="#LiberationSans-Bold-6f" transform="translate(422.412109 0)"/>
      <use xlink:href="#LiberationSans-Bold-73" transform="translate(483.496094 0)"/>
      <use xlink:href="#LiberationSans-Bold-75" transform="translate(539.111328 0)"/>
      <use xlink:href="#LiberationSans-Bold-72" transform="translate(600.195312 0)"/>
      <use xlink:href="#LiberationSans-Bold-65" transform="translate(639.111328 0)"/>
      <use xlink:href="#LiberationSans-Bold-20" transform="translate(694.726562 0)"/>
      <use xlink:href="#LiberationSans-Bold-28" transform="translate(722.509766 0)"/>
      <use xlink:href="#LiberationSans-Bold-25" transform="translate(755.810547 0)"/>
      <use xlink:href="#LiberationSans-Bold-29" transform="translate(844.726562 0)"/>
     </g>
    </g>
   </g>
   <g id="patch_18">
    <path d="M 562.56929 340.964606 
L 649.086036 340.964606 
L 649.086036 240.133183 
L 562.56929 240.133183 
z
" clip-path="url(#p40b54ba705)" style="fill: #ffa500; opacity: 0.7"/>
   </g>
   <g id="patch_19">
    <path d="M 670.715223 340.964606 
L 757.231969 340.964606 
L 757.231969 189.717472 
L 670.715223 189.717472 
z
" clip-path="url(#p40b54ba705)" style="fill: #ffa500; opacity: 0.7"/>
   </g>
   <g id="patch_20">
    <path d="M 778.861156 340.964606 
L 865.377902 340.964606 
L 865.377902 277.944967 
L 778.861156 277.944967 
z
" clip-path="url(#p40b54ba705)" style="fill: #ffa500; opacity: 0.7"/>
   </g>
   <g id="patch_21">
    <path d="M 887.007089 340.964606 
L 973.523835 340.964606 
L 973.523835 38.470338 
L 887.007089 38.470338 
z
" clip-path="url(#p40b54ba705)" style="fill: #ffa500; opacity: 0.7"/>
   </g>
   <g id="patch_22">
    <path d="M 542.021562 340.964606 
L 542.021562 23.345625 
" style="fill: none"/>
   </g>
   <g id="patch_23">
    <path d="M 994.071563 340.964606 
L 994.071563 23.345625 
" style="fill: none"/>
   </g>
   <g id="patch_24">
    <path d="M 542.021562 340.964606 
L 994.071563 340.964606 
" style="fill: none"/>
   </g>
   <g id="patch_25">
    <path d="M 542.021562 23.345625 
L 994.071563 23.345625 
" style="fill: none"/>
   </g>
   <g id="text_36">
    <!-- 8% -->
    <g style="fill: #262626" transform="translate(598.6011 235.058183) scale(0.1 -0.1)">
     <defs>
      <path id="LiberationSans-25" d="M 5463 1356 
Q 5463 966 5383 698 
Q 5303 431 5167 267 
Q 5031 103 4850 32 
Q 4669 -38 4463 -38 
Q 4256 -38 4076 32 
Q 3897 103 3764 265 
Q 3631 428 3554 695 
Q 3478 963 3478 1356 
Q 3478 1772 3553 2044 
Q 3628 2316 3762 2477 
Q 3897 2638 4080 2702 
Q 4263 2766 4475 2766 
Q 4681 2766 4861 2702 
Q 5041 2638 5173 2477 
Q 5306 2316 5384 2044 
Q 5463 1772 5463 1356 
z
M 1647 0 
L 1163 0 
L 4044 4403 
L 4534 4403 
L 1647 0 
z
M 1231 4441 
Q 1431 4441 1609 4377 
Q 1788 4313 1922 4153 
Q 2056 3994 2132 3725 
Q 2209 3456 2209 3047 
Q 2209 2653 2131 2384 
Q 2053 2116 1920 1948 
Q 1788 1781 1606 1709 
Q 1425 1638 1219 1638 
Q 1009 1638 828 1709 
Q 647 1781 514 1947 
Q 381 2113 304 2381 
Q 228 2650 228 3047 
Q 228 3456 304 3725 
Q 381 3994 515 4153 
Q 650 4313 834 4377 
Q 1019 4441 1231 4441 
z
M 5000 1356 
Q 5000 1666 4965 1870 
Q 4931 2075 4864 2197 
Q 4797 2319 4698 2369 
Q 4600 2419 4475 2419 
Q 4344 2419 4244 2367 
Q 4144 2316 4075 2194 
Q 4006 2072 3972 1867 
Q 3938 1663 3938 1356 
Q 3938 1059 3973 859 
Q 4009 659 4076 536 
Q 4144 413 4242 359 
Q 4341 306 4469 306 
Q 4591 306 4689 359 
Q 4788 413 4856 536 
Q 4925 659 4962 859 
Q 5000 1059 5000 1356 
z
M 1750 3047 
Q 1750 3353 1715 3556 
Q 1681 3759 1615 3881 
Q 1550 4003 1453 4053 
Q 1356 4103 1231 4103 
Q 1097 4103 995 4051 
Q 894 4000 825 3878 
Q 756 3756 722 3553 
Q 688 3350 688 3047 
Q 688 2750 723 2547 
Q 759 2344 826 2220 
Q 894 2097 994 2044 
Q 1094 1991 1225 1991 
Q 1344 1991 1441 2044 
Q 1538 2097 1606 2220 
Q 1675 2344 1712 2547 
Q 1750 2750 1750 3047 
z
" transform="scale(0.015625)"/>
     </defs>
     <use xlink:href="#LiberationSans-38"/>
     <use xlink:href="#LiberationSans-25" transform="translate(55.615234 0)"/>
    </g>
   </g>
   <g id="text_37">
    <!-- 12% -->
    <g style="fill: #262626" transform="translate(703.966565 184.642472) scale(0.1 -0.1)">
     <use xlink:href="#LiberationSans-31"/>
     <use xlink:href="#LiberationSans-32" transform="translate(55.615234 0)"/>
     <use xlink:href="#LiberationSans-25" transform="translate(111.230469 0)"/>
    </g>
   </g>
   <g id="text_38">
    <!-- 5% -->
    <g style="fill: #262626" transform="translate(814.892967 272.869967) scale(0.1 -0.1)">
     <use xlink:href="#LiberationSans-35"/>
     <use xlink:href="#LiberationSans-25" transform="translate(55.615234 0)"/>
    </g>
   </g>
   <g id="text_39">
    <!-- 24% -->
    <g style="fill: #ff0000" transform="translate(920.258431 22.624088) scale(0.1 -0.1)">
     <defs>
      <path id="LiberationSans-Bold-34" d="M 2938 897 
L 2938 0 
L 2100 0 
L 2100 897 
L 97 897 
L 97 1556 
L 1956 4403 
L 2938 4403 
L 2938 1550 
L 3525 1550 
L 3525 897 
L 2938 897 
z
M 2100 2991 
Q 2100 3044 2101 3130 
Q 2103 3216 2108 3306 
Q 2113 3397 2117 3480 
Q 2122 3563 2128 3609 
Q 2113 3575 2078 3511 
Q 2044 3447 2001 3373 
Q 1959 3300 1914 3228 
Q 1869 3156 1834 3103 
L 813 1550 
L 2100 1550 
L 2100 2991 
z
" transform="scale(0.015625)"/>
     </defs>
     <use xlink:href="#LiberationSans-Bold-32"/>
     <use xlink:href="#LiberationSans-Bold-34" transform="translate(55.615234 0)"/>
     <use xlink:href="#LiberationSans-Bold-25" transform="translate(111.230469 0)"/>
    </g>
    <!-- HIGH RISK -->
    <g style="fill: #ff0000" transform="translate(904.430306 33.395338) scale(0.1 -0.1)">
     <defs>
      <path id="LiberationSans-Bold-48" d="M 3269 0 
L 3269 1888 
L 1350 1888 
L 1350 0 
L 428 0 
L 428 4403 
L 1350 4403 
L 1350 2650 
L 3269 2650 
L 3269 4403 
L 4191 4403 
L 4191 0 
L 3269 0 
z
" transform="scale(0.015625)"/>
      <path id="LiberationSans-Bold-47" d="M 2519 659 
Q 2719 659 2903 690 
Q 3088 722 3245 773 
Q 3403 825 3529 892 
Q 3656 959 3738 1031 
L 3738 1641 
L 2663 1641 
L 2663 2322 
L 4581 2322 
L 4581 703 
Q 4431 550 4218 411 
Q 4006 272 3740 167 
Q 3475 63 3161 0 
Q 2847 -63 2494 -63 
Q 1909 -63 1487 107 
Q 1066 278 794 583 
Q 522 888 392 1306 
Q 263 1725 263 2222 
Q 263 2738 400 3153 
Q 538 3569 817 3861 
Q 1097 4153 1520 4311 
Q 1944 4469 2516 4469 
Q 2931 4469 3254 4387 
Q 3578 4306 3820 4156 
Q 4063 4006 4227 3795 
Q 4391 3584 4488 3322 
L 3638 3066 
Q 3581 3203 3487 3326 
Q 3394 3450 3255 3542 
Q 3116 3634 2933 3689 
Q 2750 3744 2516 3744 
Q 2172 3744 1922 3636 
Q 1672 3528 1509 3328 
Q 1347 3128 1269 2848 
Q 1191 2569 1191 2222 
Q 1191 1878 1270 1590 
Q 1350 1303 1514 1097 
Q 1678 891 1928 775 
Q 2178 659 2519 659 
z
" transform="scale(0.015625)"/>
      <path id="LiberationSans-Bold-4b" d="M 3475 0 
L 1894 2022 
L 1350 1606 
L 1350 0 
L 428 0 
L 428 4403 
L 1350 4403 
L 1350 2406 
L 3334 4403 
L 4409 4403 
L 2528 2541 
L 4563 0 
L 3475 0 
z
" transform="scale(0.015625)"/>
     </defs>
     <use xlink:href="#LiberationSans-Bold-48"/>
     <use xlink:href="#LiberationSans-Bold-49" transform="translate(72.216797 0)"/>
     <use xlink:href="#LiberationSans-Bold-47" transform="translate(100 0)"/>
     <use xlink:href="#LiberationSans-Bold-48" transform="translate(177.783203 0)"/>
     <use xlink:href="#LiberationSans-Bold-20" transform="translate(250 0)"/>
     <use xlink:href="#LiberationSans-Bold-52" transform="translate(277.783203 0)"/>
     <use xlink:href="#LiberationSans-Bold-49" transform="translate(350 0)"/>
     <use xlink:href="#LiberationSans-Bold-53" transform="translate(377.783203 0)"/>
     <use xlink:href="#LiberationSans-Bold-4b" transform="translate(444.482422 0)"/>
    </g>
   </g>
   <g id="text_40">
    <!-- PII Risk Exposure - Immediate Action Required -->
    <g style="fill: #262626" transform="translate(612.334844 17.345625) scale(0.14 -0.14)">
     <defs>
      <path id="LiberationSans-Bold-6d" d="M 2438 0 
L 2438 1897 
Q 2438 2094 2411 2258 
Q 2384 2422 2323 2539 
Q 2263 2656 2164 2722 
Q 2066 2788 1925 2788 
Q 1791 2788 1681 2717 
Q 1572 2647 1492 2517 
Q 1413 2388 1369 2208 
Q 1325 2028 1325 1813 
L 1325 0 
L 447 0 
L 447 2625 
Q 447 2734 445 2850 
Q 444 2966 439 3070 
Q 434 3175 431 3258 
Q 428 3341 422 3381 
L 1259 3381 
Q 1266 3344 1272 3261 
Q 1278 3178 1284 3078 
Q 1291 2978 1295 2878 
Q 1300 2778 1300 2709 
L 1313 2709 
Q 1475 3097 1717 3272 
Q 1959 3447 2297 3447 
Q 2684 3447 2920 3258 
Q 3156 3069 3238 2709 
L 3256 2709 
Q 3347 2919 3451 3059 
Q 3556 3200 3682 3286 
Q 3809 3372 3957 3409 
Q 4106 3447 4281 3447 
Q 4559 3447 4751 3347 
Q 4944 3247 5064 3072 
Q 5184 2897 5239 2659 
Q 5294 2422 5294 2147 
L 5294 0 
L 4422 0 
L 4422 1897 
Q 4422 2094 4395 2258 
Q 4369 2422 4308 2539 
Q 4247 2656 4148 2722 
Q 4050 2788 3909 2788 
Q 3778 2788 3670 2720 
Q 3563 2653 3483 2529 
Q 3403 2406 3359 2234 
Q 3316 2063 3309 1853 
L 3309 0 
L 2438 0 
z
" transform="scale(0.015625)"/>
      <path id="LiberationSans-Bold-64" d="M 2638 0 
Q 2631 25 2623 89 
Q 2616 153 2608 234 
Q 2600 316 2595 400 
Q 2591 484 2591 550 
L 2578 550 
Q 2425 222 2151 79 
Q 1878 -63 1497 -63 
Q 1178 -63 945 68 
Q 713 200 561 434 
Q 409 669 336 989 
Q 263 1309 263 1688 
Q 263 2072 339 2394 
Q 416 2716 575 2948 
Q 734 3181 979 3312 
Q 1225 3444 1563 3444 
Q 1728 3444 1881 3409 
Q 2034 3375 2165 3303 
Q 2297 3231 2403 3118 
Q 2509 3006 2584 2847 
L 2591 2847 
Q 2591 2878 2589 2939 
Q 2588 3000 2588 3078 
Q 2588 3156 2586 3240 
Q 2584 3325 2584 3403 
L 2584 4638 
L 3463 4638 
L 3463 738 
Q 3463 491 3472 298 
Q 3481 106 3488 0 
L 2638 0 
z
M 2597 1709 
Q 2597 2044 2534 2264 
Q 2472 2484 2370 2614 
Q 2269 2744 2139 2795 
Q 2009 2847 1875 2847 
Q 1706 2847 1576 2781 
Q 1447 2716 1358 2575 
Q 1269 2434 1223 2215 
Q 1178 1997 1178 1688 
Q 1178 538 1869 538 
Q 2000 538 2131 594 
Q 2263 650 2366 784 
Q 2469 919 2533 1145 
Q 2597 1372 2597 1709 
z
" transform="scale(0.015625)"/>
      <path id="LiberationSans-Bold-41" d="M 3541 0 
L 3150 1125 
L 1472 1125 
L 1081 0 
L 159 0 
L 1766 4403 
L 2853 4403 
L 4453 0 
L 3541 0 
z
M 2509 3084 
Q 2472 3194 2436 3305 
Q 2400 3416 2373 3508 
Q 2347 3600 2330 3659 
Q 2313 3719 2309 3725 
Q 2306 3716 2290 3656 
Q 2275 3597 2248 3506 
Q 2222 3416 2186 3305 
Q 2150 3194 2113 3084 
L 1678 1819 
L 2944 1819 
L 2509 3084 
z
" transform="scale(0.015625)"/>
      <path id="LiberationSans-Bold-71" d="M 263 1688 
Q 263 2072 341 2395 
Q 419 2719 580 2951 
Q 741 3184 986 3315 
Q 1231 3447 1569 3447 
Q 1906 3447 2173 3303 
Q 2441 3159 2591 2838 
Q 2591 2903 2595 2989 
Q 2600 3075 2608 3154 
Q 2616 3234 2623 3296 
Q 2631 3359 2638 3381 
L 3481 3381 
Q 3475 3269 3469 3066 
Q 3463 2863 3463 2603 
L 3463 -1328 
L 2591 -1328 
L 2591 78 
Q 2591 166 2594 250 
Q 2597 334 2600 406 
Q 2603 488 2606 563 
L 2600 563 
Q 2447 234 2162 85 
Q 1878 -63 1497 -63 
Q 1178 -63 945 68 
Q 713 200 561 434 
Q 409 669 336 989 
Q 263 1309 263 1688 
z
M 2597 1706 
Q 2597 2044 2534 2262 
Q 2472 2481 2372 2611 
Q 2272 2741 2142 2792 
Q 2013 2844 1881 2844 
Q 1713 2844 1583 2778 
Q 1453 2713 1362 2572 
Q 1272 2431 1225 2212 
Q 1178 1994 1178 1688 
Q 1178 538 1875 538 
Q 2006 538 2136 594 
Q 2266 650 2369 784 
Q 2472 919 2534 1144 
Q 2597 1369 2597 1706 
z
" transform="scale(0.015625)"/>
     </defs>
     <use xlink:href="#LiberationSans-Bold-50"/>
     <use xlink:href="#LiberationSans-Bold-49" transform="translate(66.699219 0)"/>
     <use xlink:href="#LiberationSans-Bold-49" transform="translate(94.482422 0)"/>
     <use xlink:href="#LiberationSans-Bold-20" transform="translate(122.265625 0)"/>
     <use xlink:href="#LiberationSans-Bold-52" transform="translate(150.048828 0)"/>
     <use xlink:href="#LiberationSans-Bold-69" transform="translate(222.265625 0)"/>
     <use xlink:href="#LiberationSans-Bold-73" transform="translate(250.048828 0)"/>
     <use xlink:href="#LiberationSans-Bold-6b" transform="translate(305.664062 0)"/>
     <use xlink:href="#LiberationSans-Bold-20" transform="translate(361.279297 0)"/>
     <use xlink:href="#LiberationSans-Bold-45" transform="translate(389.0625 0)"/>
     <use xlink:href="#LiberationSans-Bold-78" transform="translate(455.761719 0)"/>
     <use xlink:href="#LiberationSans-Bold-70" transform="translate(511.376953 0)"/>
     <use xlink:href="#LiberationSans-Bold-6f" transform="translate(572.460938 0)"/>
     <use xlink:href="#LiberationSans-Bold-73" transform="translate(633.544922 0)"/>
     <use xlink:href="#LiberationSans-Bold-75" transform="translate(689.160156 0)"/>
     <use xlink:href="#LiberationSans-Bold-72" transform="translate(750.244141 0)"/>
     <use xlink:href="#LiberationSans-Bold-65" transform="translate(789.160156 0)"/>
     <use xlink:href="#LiberationSans-Bold-20" transform="translate(844.775391 0)"/>
     <use xlink:href="#LiberationSans-Bold-2d" transform="translate(872.558594 0)"/>
     <use xlink:href="#LiberationSans-Bold-20" transform="translate(905.859375 0)"/>
     <use xlink:href="#LiberationSans-Bold-49" transform="translate(933.642578 0)"/>
     <use xlink:href="#LiberationSans-Bold-6d" transform="translate(961.425781 0)"/>
     <use xlink:href="#LiberationSans-Bold-6d" transform="translate(1050.341797 0)"/>
     <use xlink:href="#LiberationSans-Bold-65" transform="translate(1139.257812 0)"/>
     <use xlink:href="#LiberationSans-Bold-64" transform="translate(1194.873047 0)"/>
     <use xlink:href="#LiberationSans-Bold-69" transform="translate(1255.957031 0)"/>
     <use xlink:href="#LiberationSans-Bold-61" transform="translate(1283.740234 0)"/>
     <use xlink:href="#LiberationSans-Bold-74" transform="translate(1339.355469 0)"/>
     <use xlink:href="#LiberationSans-Bold-65" transform="translate(1372.65625 0)"/>
     <use xlink:href="#LiberationSans-Bold-20" transform="translate(1428.271484 0)"/>
     <use xlink:href="#LiberationSans-Bold-41" transform="translate(1452.304688 0)"/>
     <use xlink:href="#LiberationSans-Bold-63" transform="translate(1524.521484 0)"/>
     <use xlink:href="#LiberationSans-Bold-74" transform="translate(1580.136719 0)"/>
     <use xlink:href="#LiberationSans-Bold-69" transform="translate(1613.4375 0)"/>
     <use xlink:href="#LiberationSans-Bold-6f" transform="translate(1641.220703 0)"/>
     <use xlink:href="#LiberationSans-Bold-6e" transform="translate(1702.304688 0)"/>
     <use xlink:href="#LiberationSans-Bold-20" transform="translate(1763.388672 0)"/>
     <use xlink:href="#LiberationSans-Bold-52" transform="translate(1791.171875 0)"/>
     <use xlink:href="#LiberationSans-Bold-65" transform="translate(1863.388672 0)"/>
     <use xlink:href="#LiberationSans-Bold-71" transform="translate(1919.003906 0)"/>
     <use xlink:href="#LiberationSans-Bold-75" transform="translate(1980.087891 0)"/>
     <use xlink:href="#LiberationSans-Bold-69" transform="translate(2041.171875 0)"/>
     <use xlink:href="#LiberationSans-Bold-72" transform="translate(2068.955078 0)"/>
     <use xlink:href="#LiberationSans-Bold-65" transform="translate(2107.871094 0)"/>
     <use xlink:href="#LiberationSans-Bold-64" transform="translate(2163.486328 0)"/>
    </g>
   </g>
  </g>
 </g>
 <defs>
  <clipPath id="pea92e25f46">
   <rect x="46.121563" y="23.345625" width="452.05" height="317.618981"/>
  </clipPath>
  <clipPath id="p40b54ba705">
   <rect x="542.021562" y="23.345625" width="452.05" height="317.618981"/>
  </clipPath>
 </defs>
</svg>
